Ubuntu-Italic.ufo
<glyph name="exclam" format="2">
  <advance width="249.115"/>
  <unicode hex="0021"/>
  <outline>
    <contour>
      <point x="145.325" y="215.68" type="curve"/>
      <point x="207.455" y="215.68" type="line"/>
      <point x="236.805" y="293.06"/>
      <point x="277.775" y="438.585"/>
      <point x="294.135" y="504.025" type="curve" smooth="yes"/>
      <point x="339.13" y="693.0" type="line"/>
      <point x="239.315" y="693.0" type="line"/>
      <point x="194.32" y="504.69" type="line" smooth="yes"/>
      <point x="168.655" y="393.365"/>
      <point x="155.66" y="306.36"/>
    </contour>
    <contour>
      <point x="136.065" y="-12.335" type="curve" smooth="yes"/>
      <point x="177.09" y="-12.335"/>
      <point x="207.47" y="23.015"/>
      <point x="207.47" y="62.735" type="curve" smooth="yes"/>
      <point x="207.47" y="97.785"/>
      <point x="185.77" y="121.79"/>
      <point x="146.75" y="121.79" type="curve" smooth="yes"/>
      <point x="105.725" y="121.79"/>
      <point x="75.345" y="86.44"/>
      <point x="75.345" y="46.72" type="curve" smooth="yes"/>
      <point x="75.345" y="11.67"/>
      <point x="97.045" y="-12.335"/>
    </contour>
  </outline>
</glyph>
<glyph name="numbersign" format="2">
  <advance width="635.395"/>
  <unicode hex="0023"/>
  <outline>
    <contour>
      <point x="86.28999999999999" y="0.0" type="line"/>
      <point x="170.4" y="0.0" type="line"/>
      <point x="248.05" y="182.635" type="line"/>
      <point x="401.61" y="182.635" type="line"/>
      <point x="323.96" y="0.0" type="line"/>
      <point x="408.07" y="0.0" type="line"/>
      <point x="485.72" y="182.635" type="line"/>
      <point x="625.365" y="182.635" type="line"/>
      <point x="644.055" y="257.07" type="line"/>
      <point x="517.095" y="257.07" type="line"/>
      <point x="592.7" y="435.265" type="line"/>
      <point x="686.025" y="435.265" type="line"/>
      <point x="704.715" y="509.7" type="line"/>
      <point x="624.075" y="509.7" type="line"/>
      <point x="702.725" y="693.0" type="line"/>
      <point x="618.615" y="693.0" type="line"/>
      <point x="539.965" y="509.7" type="line"/>
      <point x="387.735" y="509.7" type="line"/>
      <point x="466.385" y="693.0" type="line"/>
      <point x="382.275" y="693.0" type="line"/>
      <point x="303.625" y="509.7" type="line"/>
      <point x="160.99" y="509.7" type="line"/>
      <point x="142.965" y="435.265" type="line"/>
      <point x="272.25" y="435.265" type="line"/>
      <point x="195.98" y="257.07" type="line"/>
      <point x="100.33" y="257.07" type="line"/>
      <point x="82.305" y="182.635" type="line"/>
      <point x="163.94" y="182.635" type="line"/>
    </contour>
    <contour>
      <point x="280.09" y="257.07" type="line"/>
      <point x="355.695" y="435.265" type="line"/>
      <point x="508.59" y="435.265" type="line"/>
      <point x="432.985" y="257.07" type="line"/>
    </contour>
  </outline>
</glyph>
<glyph name="dollar" format="2">
  <advance width="565.34"/>
  <unicode hex="0024"/>
  <outline>
    <contour>
      <point x="212.6" y="-109.0" type="line"/>
      <point x="294.045" y="-109.0" type="line"/>
      <point x="325.04" y="19.645" type="line"/>
      <point x="448.71" y="33.31"/>
      <point x="533.375" y="99.97"/>
      <point x="533.375" y="215.99" type="curve" smooth="yes"/>
      <point x="533.375" y="319.65"/>
      <point x="454.06" y="353.68"/>
      <point x="383.38" y="389.355" type="curve" smooth="yes"/>
      <point x="329.35" y="415.37"/>
      <point x="296.055" y="439.695"/>
      <point x="296.055" y="488.995" type="curve" smooth="yes"/>
      <point x="296.055" y="555.94"/>
      <point x="360.015" y="585.585"/>
      <point x="436.965" y="585.585" type="curve" smooth="yes"/>
      <point x="499.925" y="585.585"/>
      <point x="544.945" y="566.265"/>
      <point x="567.31" y="549.905" type="curve"/>
      <point x="608.69" y="621.99" type="line"/>
      <point x="585.015" y="637.66"/>
      <point x="537.36" y="658.325"/>
      <point x="479.71" y="664.005" type="curve"/>
      <point x="507.045" y="776.0" type="line"/>
      <point x="424.935" y="776.0" type="line"/>
      <point x="397.27" y="661.685" type="line"/>
      <point x="271.565" y="645.685"/>
      <point x="204.91" y="576.315"/>
      <point x="204.91" y="480.665" type="curve" smooth="yes"/>
      <point x="204.91" y="396.37"/>
      <point x="257.535" y="350.98"/>
      <point x="325.91" y="317.955" type="curve" smooth="yes"/>
      <point x="388.595" y="287.61"/>
      <point x="440.9" y="265.945"/>
      <point x="440.9" y="207.985" type="curve" smooth="yes"/>
      <point x="440.9" y="122.04"/>
      <point x="358.285" y="95.75"/>
      <point x="280.005" y="95.75" type="curve" smooth="yes"/>
      <point x="206.695" y="95.75"/>
      <point x="153.01" y="124.415"/>
      <point x="129.665" y="140.095" type="curve"/>
      <point x="87.95" y="67.335" type="line"/>
      <point x="110.62" y="51.0"/>
      <point x="179.91" y="23.335"/>
      <point x="243.93" y="20.98" type="curve"/>
    </contour>
  </outline>
</glyph>
<glyph name="percent" format="2">
  <advance width="806.25"/>
  <unicode hex="0025"/>
  <outline>
    <contour>
      <point x="159.25" y="0.0" type="line"/>
      <point x="247.75" y="0.0" type="line"/>
      <point x="798.25" y="693.0" type="line"/>
      <point x="709.75" y="693.0" type="line"/>
    </contour>
    <contour>
      <point x="272.25" y="342.0" type="curve" smooth="yes"/>
      <point x="394.5" y="342.0"/>
      <point x="464.25" y="465.0"/>
      <point x="464.25" y="573.25" type="curve" smooth="yes"/>
      <point x="464.25" y="661.0"/>
      <point x="418.0" y="707.5"/>
      <point x="339.75" y="707.5" type="curve" smooth="yes"/>
      <point x="218.25" y="707.5"/>
      <point x="148.5" y="585.25"/>
      <point x="148.5" y="477.0" type="curve" smooth="yes"/>
      <point x="148.5" y="389.25"/>
      <point x="194.0" y="342.0"/>
    </contour>
    <contour>
      <point x="276.5" y="404.25" type="curve" smooth="yes"/>
      <point x="228.25" y="404.25"/>
      <point x="218.0" y="438.25"/>
      <point x="218.0" y="484.0" type="curve" smooth="yes"/>
      <point x="218.0" y="545.0"/>
      <point x="253.5" y="645.5"/>
      <point x="335.5" y="645.5" type="curve" smooth="yes"/>
      <point x="383.75" y="645.5"/>
      <point x="394.75" y="612.0"/>
      <point x="394.75" y="565.5" type="curve" smooth="yes"/>
      <point x="394.75" y="504.5"/>
      <point x="358.5" y="404.25"/>
    </contour>
    <contour>
      <point x="620.75" y="-15.25" type="curve" smooth="yes"/>
      <point x="743.0" y="-15.25"/>
      <point x="812.75" y="107.75"/>
      <point x="812.75" y="216.0" type="curve" smooth="yes"/>
      <point x="812.75" y="303.75"/>
      <point x="766.5" y="350.25"/>
      <point x="688.25" y="350.25" type="curve" smooth="yes"/>
      <point x="566.75" y="350.25"/>
      <point x="497.0" y="228.0"/>
      <point x="497.0" y="119.75" type="curve" smooth="yes"/>
      <point x="497.0" y="32.0"/>
      <point x="542.5" y="-15.25"/>
    </contour>
    <contour>
      <point x="625.0" y="47.0" type="curve" smooth="yes"/>
      <point x="576.75" y="47.0"/>
      <point x="566.5" y="81.0"/>
      <point x="566.5" y="126.75" type="curve" smooth="yes"/>
      <point x="566.5" y="187.75"/>
      <point x="602.0" y="288.25"/>
      <point x="684.0" y="288.25" type="curve" smooth="yes"/>
      <point x="732.25" y="288.25"/>
      <point x="743.25" y="254.75"/>
      <point x="743.25" y="208.25" type="curve" smooth="yes"/>
      <point x="743.25" y="147.25"/>
      <point x="707.0" y="47.0"/>
    </contour>
  </outline>
</glyph>
<glyph name="ampersand" format="2">
  <advance width="643.715"/>
  <unicode hex="0026"/>
  <outline>
    <contour>
      <point x="277.03" y="-9.0" type="curve" smooth="yes"/>
      <point x="360.025" y="-9.0"/>
      <point x="438.345" y="22.31"/>
      <point x="505.335" y="78.61" type="curve"/>
      <point x="522.985" y="51.96"/>
      <point x="538.305" y="25.645"/>
      <point x="548.3" y="0.0" type="curve"/>
      <point x="644.105" y="0.0" type="line"/>
      <point x="622.435" y="50.66"/>
      <point x="597.1" y="94.01"/>
      <point x="566.09" y="138.355" type="curve"/>
      <point x="607.75" y="188.355"/>
      <point x="644.075" y="250.02"/>
      <point x="671.745" y="321.69" type="curve"/>
      <point x="587.96" y="332.04" type="line"/>
      <point x="567.31" y="280.735"/>
      <point x="543.665" y="238.09"/>
      <point x="517.355" y="203.11" type="curve"/>
      <point x="402.1" y="360.33" type="line"/>
      <point x="420.48" y="369.35" type="line" smooth="yes"/>
      <point x="555.715" y="432.965"/>
      <point x="592.74" y="507.655"/>
      <point x="592.74" y="576.315" type="curve" smooth="yes"/>
      <point x="592.74" y="649.32"/>
      <point x="537.4" y="708.335"/>
      <point x="445.34" y="708.335" type="curve" smooth="yes"/>
      <point x="318.975" y="708.335"/>
      <point x="238.96" y="623.67"/>
      <point x="238.96" y="518.33" type="curve" smooth="yes"/>
      <point x="238.96" y="474.67"/>
      <point x="252.29" y="428.01"/>
      <point x="281.95" y="382.015" type="curve"/>
      <point x="272.265" y="377.34" type="line"/>
      <point x="138.975" y="318.025"/>
      <point x="91.97" y="246.36"/>
      <point x="91.97" y="157.0" type="curve" smooth="yes"/>
      <point x="91.97" y="69.01"/>
      <point x="155.645" y="-9.0"/>
    </contour>
    <contour>
      <point x="286.72" y="69.76" type="curve" smooth="yes"/>
      <point x="211.445" y="69.76"/>
      <point x="185.44" y="122.385"/>
      <point x="185.44" y="172.035" type="curve" smooth="yes"/>
      <point x="185.44" y="245.285"/>
      <point x="247.345" y="289.29"/>
      <point x="313.32" y="319.61" type="curve"/>
      <point x="323.665" y="324.615" type="line"/>
      <point x="460.615" y="140.69" type="line"/>
      <point x="402.3" y="91.06"/>
      <point x="341.005" y="69.76"/>
    </contour>
    <contour>
      <point x="361.05" y="416.065" type="line"/>
      <point x="337.4" y="450.385"/>
      <point x="325.075" y="488.68"/>
      <point x="325.075" y="522.31" type="curve" smooth="yes"/>
      <point x="325.075" y="587.63"/>
      <point x="365.41" y="635.585"/>
      <point x="437.33" y="635.585" type="curve" smooth="yes"/>
      <point x="479.325" y="635.585"/>
      <point x="508.63" y="610.59"/>
      <point x="508.63" y="568.3" type="curve" smooth="yes"/>
      <point x="508.63" y="517.31"/>
      <point x="481.605" y="469.35"/>
      <point x="369.06" y="419.735" type="curve"/>
    </contour>
  </outline>
</glyph>
<glyph name="quotesingle" format="2">
  <advance width="228.78"/>
  <unicode hex="0027"/>
  <outline>
    <contour>
      <point x="191.97" y="500.58" type="curve"/>
      <point x="247.08" y="500.58" type="line"/>
      <point x="276.085" y="568.935"/>
      <point x="301.765" y="644.61"/>
      <point x="318.095" y="709.94" type="curve" smooth="yes"/>
      <point x="330.11" y="760.0" type="line"/>
      <point x="234.315" y="760.0" type="line"/>
      <point x="222.3" y="710.94" type="line" smooth="yes"/>
      <point x="205.97" y="644.61"/>
      <point x="196.97" y="570.93"/>
    </contour>
  </outline>
</glyph>
<glyph name="parenleft" format="2">
  <advance width="320.09"/>
  <unicode hex="0028"/>
  <outline>
    <contour>
      <point x="189.985" y="-181.01" type="curve"/>
      <point x="260.085" y="-139.945" type="line"/>
      <point x="224.42000000000002" y="-52.62"/>
      <point x="208.09" y="41.35"/>
      <point x="208.09" y="132.33" type="curve" smooth="yes"/>
      <point x="208.09" y="352.32"/>
      <point x="309.435" y="573.28"/>
      <point x="483.045" y="738.61" type="curve"/>
      <point x="420.96" y="783.0" type="line"/>
      <point x="230.315" y="612.015"/>
      <point x="117.95" y="368.68"/>
      <point x="117.95" y="130.345" type="curve" smooth="yes"/>
      <point x="117.95" y="22.335"/>
      <point x="141.29" y="-80.345"/>
    </contour>
  </outline>
</glyph>
<glyph name="parenright" format="2">
  <advance width="315.5"/>
  <unicode hex="0029"/>
  <outline>
    <contour>
      <point x="35.25" y="-185.5" type="line"/>
      <point x="227.0" y="-14.5"/>
      <point x="337.75" y="229.5"/>
      <point x="337.75" y="468.5" type="curve" smooth="yes"/>
      <point x="337.75" y="576.75"/>
      <point x="314.75" y="678.75"/>
      <point x="266.75" y="780.25" type="curve"/>
      <point x="200.25" y="744.0" type="line"/>
      <point x="237.5" y="654.75"/>
      <point x="254.75" y="556.25"/>
      <point x="254.75" y="462.75" type="curve" smooth="yes"/>
      <point x="254.75" y="238.75"/>
      <point x="152.75" y="20.25"/>
      <point x="-22.5" y="-144.0" type="curve"/>
    </contour>
  </outline>
</glyph>
<glyph name="asterisk" format="2">
  <advance width="448.0"/>
  <unicode hex="002A"/>
  <outline>
    <contour>
      <point x="249.5" y="314.5" type="line"/>
      <point x="286.0" y="369.5"/>
      <point x="305.25" y="407.75"/>
      <point x="332.75" y="466.25" type="curve"/>
      <point x="359.5" y="408.0"/>
      <point x="378.75" y="369.25"/>
      <point x="415.25" y="314.5" type="curve"/>
      <point x="484.5" y="362.5" type="line"/>
      <point x="445.5" y="417.75"/>
      <point x="415.75" y="444.25"/>
      <point x="363.0" y="487.75" type="curve"/>
      <point x="429.75" y="492.25"/>
      <point x="468.0" y="494.0"/>
      <point x="533.25" y="518.25" type="curve"/>
      <point x="506.75" y="597.25" type="line"/>
      <point x="446.75" y="577.75"/>
      <point x="407.75" y="556.0"/>
      <point x="353.5" y="524.75" type="curve"/>
      <point x="367.0" y="588.5"/>
      <point x="375.25" y="626.0"/>
      <point x="375.25" y="693.0" type="curve"/>
      <point x="290.25" y="693.0" type="line"/>
      <point x="290.25" y="626.25"/>
      <point x="298.25" y="589.0"/>
      <point x="312.0" y="524.75" type="curve"/>
      <point x="257.75" y="556.0"/>
      <point x="218.75" y="577.75"/>
      <point x="158.75" y="597.25" type="curve"/>
      <point x="132.25" y="518.25" type="line"/>
      <point x="196.75" y="494.0"/>
      <point x="235.0" y="492.25"/>
      <point x="301.75" y="487.75" type="curve"/>
      <point x="250.25" y="444.5"/>
      <point x="220.0" y="418.0"/>
      <point x="181.0" y="362.5" type="curve" smooth="yes"/>
    </contour>
  </outline>
</glyph>
<glyph name="plus" format="2">
  <advance width="565.34"/>
  <unicode hex="002B"/>
  <outline>
    <contour>
      <point x="250.585" y="45.68" type="line"/>
      <point x="334.715" y="45.68" type="line"/>
      <point x="384.7" y="252.625" type="line"/>
      <point x="566.33" y="252.625" type="line"/>
      <point x="586.025" y="331.74" type="line"/>
      <point x="403.73" y="331.74" type="line"/>
      <point x="453.715" y="538.02" type="line"/>
      <point x="368.92" y="538.02" type="line"/>
      <point x="318.935" y="331.74" type="line"/>
      <point x="136.64" y="331.74" type="line"/>
      <point x="116.945" y="252.625" type="line"/>
      <point x="299.905" y="252.625" type="line"/>
    </contour>
  </outline>
</glyph>
<glyph name="comma" format="2">
  <advance width="241.25"/>
  <unicode hex="002C"/>
  <outline>
    <contour>
      <point x="64.5" y="-158.5" type="line"/>
      <point x="125.75" y="-88.0"/>
      <point x="182.25" y="14.25"/>
      <point x="195.25" y="109.25" type="curve"/>
      <point x="103.75" y="109.25" type="line"/>
      <point x="96.75" y="42.0"/>
      <point x="60.5" y="-61.75"/>
      <point x="7.25" y="-133.25" type="curve"/>
    </contour>
  </outline>
</glyph>
<glyph name="hyphen" format="2">
  <advance width="295.0"/>
  <unicode hex="002D"/>
  <outline>
    <contour>
      <point x="77.5" y="251.25" type="line"/>
      <point x="321.0" y="251.25" type="line"/>
      <point x="340.5" y="332.25" type="line"/>
      <point x="97.0" y="332.25" type="line"/>
    </contour>
  </outline>
</glyph>
<glyph name="period" format="2">
  <advance width="246.015"/>
  <unicode hex="002E"/>
  <outline>
    <contour>
      <point x="132.69" y="-13.0" type="curve" smooth="yes"/>
      <point x="173.715" y="-13.0"/>
      <point x="204.095" y="22.35"/>
      <point x="204.095" y="62.07" type="curve" smooth="yes"/>
      <point x="204.095" y="97.12"/>
      <point x="182.395" y="121.125"/>
      <point x="143.375" y="121.125" type="curve" smooth="yes"/>
      <point x="102.35" y="121.125"/>
      <point x="71.97" y="85.775"/>
      <point x="71.97" y="46.055" type="curve" smooth="yes"/>
      <point x="71.97" y="11.005"/>
      <point x="93.67" y="-13.0"/>
    </contour>
  </outline>
</glyph>
<glyph name="slash" format="2">
  <advance width="397.43"/>
  <unicode hex="002F"/>
  <outline>
    <contour>
      <point x="-71.38" y="-185.0" type="line"/>
      <point x="21.435000000000002" y="-185.0" type="line"/>
      <point x="580.435" y="783.0" type="line"/>
      <point x="487.29" y="783.0" type="line"/>
    </contour>
  </outline>
</glyph>
<glyph name="zero" format="2">
  <advance width="565.0"/>
  <unicode hex="0030"/>
  <outline>
    <contour>
      <point x="275.75" y="-14.75" type="curve" smooth="yes"/>
      <point x="467.75" y="-14.75"/>
      <point x="596.75" y="248.75"/>
      <point x="596.75" y="501.0" type="curve" smooth="yes"/>
      <point x="596.75" y="620.5"/>
      <point x="552.5" y="708.25"/>
      <point x="435.75" y="709.0" type="curve"/>
      <point x="243.0" y="709.0"/>
      <point x="114.0" y="445.5"/>
      <point x="114.0" y="193.25" type="curve" smooth="yes"/>
      <point x="114.0" y="73.0"/>
      <point x="158.25" y="-14.75"/>
    </contour>
    <contour>
      <point x="285.25" y="62.25" type="curve" smooth="yes"/>
      <point x="228.5" y="62.25"/>
      <point x="199.25" y="105.5"/>
      <point x="199.25" y="205.25" type="curve" smooth="yes"/>
      <point x="199.25" y="398.0"/>
      <point x="295.5" y="632.25"/>
      <point x="426.0" y="632.25" type="curve" smooth="yes"/>
      <point x="482.5" y="632.25"/>
      <point x="511.5" y="588.5"/>
      <point x="511.5" y="489.0" type="curve" smooth="yes"/>
      <point x="511.5" y="296.25"/>
      <point x="415.25" y="62.25"/>
    </contour>
  </outline>
</glyph>
<glyph name="one" format="2">
  <advance width="565.34"/>
  <unicode hex="0031"/>
  <outline>
    <contour>
      <point x="287.91" y="0.0" type="line"/>
      <point x="380.385" y="0.0" type="line"/>
      <point x="546.72" y="693.0" type="line"/>
      <point x="479.96" y="693.0" type="line"/>
      <point x="405.3" y="623.355"/>
      <point x="317.585" y="579.005"/>
      <point x="237.905" y="549.665" type="curve"/>
      <point x="251.915" y="472.57" type="line"/>
      <point x="312.885" y="491.895"/>
      <point x="378.2" y="523.87"/>
      <point x="422.54" y="560.845" type="curve"/>
    </contour>
  </outline>
</glyph>
<glyph name="two" format="2">
  <advance width="565.0"/>
  <unicode hex="0032"/>
  <outline>
    <contour>
      <point x="90.75" y="0.0" type="curve"/>
      <point x="496.25" y="0.0" type="line"/>
      <point x="513.5" y="73.75" type="line"/>
      <point x="198.25" y="73.75" type="line"/>
      <point x="226.5" y="150.25"/>
      <point x="301.0" y="203.25"/>
      <point x="407.5" y="282.5" type="curve" smooth="yes"/>
      <point x="509.5" y="359.25"/>
      <point x="595.25" y="430.75"/>
      <point x="595.25" y="549.25" type="curve" smooth="yes"/>
      <point x="595.25" y="654.5"/>
      <point x="518.25" y="708.25"/>
      <point x="425.25" y="708.25" type="curve" smooth="yes"/>
      <point x="353.0" y="708.25"/>
      <point x="277.0" y="682.75"/>
      <point x="218.75" y="635.75" type="curve"/>
      <point x="248.0" y="568.0" type="line"/>
      <point x="295.5" y="606.75"/>
      <point x="355.75" y="632.0"/>
      <point x="410.75" y="632.0" type="curve" smooth="yes"/>
      <point x="463.25" y="632.0"/>
      <point x="505.25" y="601.5"/>
      <point x="505.25" y="537.25" type="curve" smooth="yes"/>
      <point x="505.25" y="448.0"/>
      <point x="434.0" y="394.25"/>
      <point x="336.5" y="321.5" type="curve" smooth="yes"/>
      <point x="227.5" y="240.75"/>
      <point x="116.25" y="162.0"/>
    </contour>
  </outline>
</glyph>
<glyph name="three" format="2">
  <advance width="565.0"/>
  <unicode hex="0033"/>
  <outline>
    <contour>
      <point x="248.0" y="-14.75" type="curve" smooth="yes"/>
      <point x="405.5" y="-14.75"/>
      <point x="529.0" y="72.5"/>
      <point x="529.0" y="218.25" type="curve" smooth="yes"/>
      <point x="529.0" y="301.25"/>
      <point x="481.25" y="347.75"/>
      <point x="432.0" y="368.75" type="curve"/>
      <point x="528.5" y="403.0"/>
      <point x="576.5" y="478.75"/>
      <point x="576.5" y="556.25" type="curve" smooth="yes"/>
      <point x="576.5" y="657.0"/>
      <point x="501.25" y="708.25"/>
      <point x="403.5" y="708.25" type="curve" smooth="yes"/>
      <point x="342.0" y="708.25"/>
      <point x="283.5" y="689.75"/>
      <point x="232.75" y="658.75" type="curve"/>
      <point x="252.75" y="591.75" type="line"/>
      <point x="292.25" y="616.0"/>
      <point x="343.5" y="631.75"/>
      <point x="388.25" y="631.75" type="curve" smooth="yes"/>
      <point x="442.5" y="631.75"/>
      <point x="486.5" y="608.5"/>
      <point x="486.5" y="545.75" type="curve" smooth="yes"/>
      <point x="486.5" y="474.0"/>
      <point x="426.75" y="403.5"/>
      <point x="316.0" y="403.5" type="curve" smooth="yes"/>
      <point x="279.25" y="403.5" type="line"/>
      <point x="261.5" y="333.5" type="line"/>
      <point x="288.0" y="333.5" type="line"/>
      <point x="381.0" y="331.25"/>
      <point x="439.5" y="296.5"/>
      <point x="439.5" y="218.25" type="curve" smooth="yes"/>
      <point x="439.5" y="109.25"/>
      <point x="354.75" y="60.25"/>
      <point x="250.25" y="60.25" type="curve" smooth="yes"/>
      <point x="196.25" y="60.25"/>
      <point x="142.75" y="73.0"/>
      <point x="105.25" y="96.25" type="curve"/>
      <point x="72.25" y="24.75" type="line"/>
      <point x="124.25" y="-1.75"/>
      <point x="185.5" y="-14.75"/>
    </contour>
  </outline>
</glyph>
<glyph name="four" format="2">
  <advance width="565.34"/>
  <unicode hex="0034"/>
  <outline>
    <contour>
      <point x="347.615" y="0.0" type="line"/>
      <point x="437.745" y="0.0" type="line"/>
      <point x="479.735" y="176.945" type="line"/>
      <point x="560.385" y="176.945" type="line"/>
      <point x="578.745" y="253.055" type="line"/>
      <point x="497.765" y="253.055" type="line"/>
      <point x="603.42" y="693.0" type="line"/>
      <point x="512.625" y="693.0" type="line"/>
      <point x="351.655" y="565.685"/>
      <point x="184.315" y="374.02"/>
      <point x="100.645" y="239.73" type="curve"/>
      <point x="85.62" y="176.945" type="line"/>
      <point x="389.27" y="176.945" type="line"/>
    </contour>
    <contour>
      <point x="198.425" y="253.055" type="line"/>
      <point x="273.73" y="371.3"/>
      <point x="389.99" y="496.885"/>
      <point x="486.255" y="576.85" type="curve"/>
      <point x="408.305" y="253.055" type="line"/>
    </contour>
  </outline>
</glyph>
<glyph name="five" format="2">
  <advance width="565.0"/>
  <unicode hex="0035"/>
  <outline>
    <contour>
      <point x="251.25" y="-14.75" type="curve" smooth="yes"/>
      <point x="408.25" y="-14.75"/>
      <point x="532.25" y="70.25"/>
      <point x="532.25" y="229.25" type="curve" smooth="yes"/>
      <point x="532.25" y="347.5"/>
      <point x="444.25" y="413.75"/>
      <point x="301.75" y="426.0" type="curve"/>
      <point x="319.75" y="477.0"/>
      <point x="346.5" y="562.25"/>
      <point x="363.25" y="619.25" type="curve"/>
      <point x="608.0" y="619.25" type="line"/>
      <point x="625.25" y="693.0" type="line"/>
      <point x="306.25" y="693.0" type="line"/>
      <point x="276.0" y="575.75"/>
      <point x="244.75" y="481.0"/>
      <point x="202.25" y="360.75" type="curve"/>
      <point x="294.25" y="358.5"/>
      <point x="442.75" y="346.75"/>
      <point x="442.75" y="220.5" type="curve" smooth="yes"/>
      <point x="442.75" y="113.75"/>
      <point x="351.0" y="61.5"/>
      <point x="247.5" y="61.5" type="curve" smooth="yes"/>
      <point x="200.0" y="61.5"/>
      <point x="150.75" y="74.25"/>
      <point x="109.75" y="98.5" type="curve"/>
      <point x="75.75" y="24.0" type="line"/>
      <point x="130.0" y="-2.75"/>
      <point x="195.75" y="-14.75"/>
    </contour>
  </outline>
</glyph>
<glyph name="six" format="2">
  <advance width="565.34"/>
  <unicode hex="0036"/>
  <outline>
    <contour>
      <point x="314.36" y="-14.665" type="curve" smooth="yes"/>
      <point x="443.725" y="-14.665"/>
      <point x="567.385" y="81.0"/>
      <point x="567.385" y="250.34" type="curve" smooth="yes"/>
      <point x="567.385" y="355.055"/>
      <point x="506.67" y="422.375"/>
      <point x="393.04" y="422.375" type="curve" smooth="yes"/>
      <point x="343.065" y="422.375"/>
      <point x="289.075" y="409.055"/>
      <point x="244.1" y="386.065" type="curve"/>
      <point x="301.77" y="530.38"/>
      <point x="428.095" y="613.905"/>
      <point x="613.045" y="618.24" type="curve"/>
      <point x="623.73" y="697.005" type="line"/>
      <point x="324.715" y="700.38"/>
      <point x="118.3" y="486.45"/>
      <point x="118.3" y="204.065" type="curve" smooth="yes"/>
      <point x="118.3" y="59.03"/>
      <point x="204.99" y="-14.665"/>
    </contour>
    <contour>
      <point x="317.05" y="64.78" type="curve" smooth="yes"/>
      <point x="255.385" y="64.78"/>
      <point x="210.425" y="111.795"/>
      <point x="210.425" y="203.06" type="curve" smooth="yes"/>
      <point x="210.425" y="239.37"/>
      <point x="214.425" y="276.01"/>
      <point x="224.09" y="310.32" type="curve"/>
      <point x="263.73" y="328.97"/>
      <point x="315.69" y="344.955"/>
      <point x="362.655" y="344.955" type="curve" smooth="yes"/>
      <point x="437.255" y="344.955"/>
      <point x="473.265" y="307.665"/>
      <point x="473.265" y="239.01" type="curve" smooth="yes"/>
      <point x="473.265" y="132.4"/>
      <point x="403.66" y="64.78"/>
    </contour>
  </outline>
</glyph>
<glyph name="seven" format="2">
  <advance width="565.34"/>
  <unicode hex="0037"/>
  <outline>
    <contour>
      <point x="159.605" y="0.0" type="curve"/>
      <point x="256.075" y="0.0" type="line"/>
      <point x="328.725" y="246.665"/>
      <point x="529.72" y="513.965"/>
      <point x="644.02" y="618.25" type="curve"/>
      <point x="662.04" y="693.0" type="line"/>
      <point x="226.915" y="693.0" type="line"/>
      <point x="207.885" y="610.89" type="line"/>
      <point x="535.485" y="610.89" type="line"/>
      <point x="397.185" y="489.2"/>
      <point x="221.245" y="212.96"/>
    </contour>
  </outline>
</glyph>
<glyph name="eight" format="2">
  <advance width="565.34"/>
  <unicode hex="0038"/>
  <outline>
    <contour>
      <point x="284.72" y="-14.665" type="curve" smooth="yes"/>
      <point x="434.11" y="-14.665"/>
      <point x="547.395" y="70.365"/>
      <point x="547.395" y="203.0" type="curve" smooth="yes"/>
      <point x="547.395" y="264.7"/>
      <point x="514.385" y="312.35"/>
      <point x="458.08" y="345.68" type="curve"/>
      <point x="579.41" y="404.68"/>
      <point x="610.715" y="484.335"/>
      <point x="610.715" y="554.97" type="curve" smooth="yes"/>
      <point x="610.715" y="654.305"/>
      <point x="537.355" y="708.335"/>
      <point x="435.33" y="708.335" type="curve" smooth="yes"/>
      <point x="298.585" y="708.335"/>
      <point x="195.65" y="618.28"/>
      <point x="195.65" y="490.005" type="curve" smooth="yes"/>
      <point x="195.65" y="434.67"/>
      <point x="224.64" y="392.35"/>
      <point x="262.625" y="365.34" type="curve"/>
      <point x="135.005" y="299.67"/>
      <point x="96.99" y="220.045"/>
      <point x="96.99" y="141.04" type="curve" smooth="yes"/>
      <point x="96.99" y="30.995"/>
      <point x="189.71" y="-14.665"/>
    </contour>
    <contour>
      <point x="295.395" y="62.44" type="curve" smooth="yes"/>
      <point x="238.42000000000002" y="62.44"/>
      <point x="190.78" y="92.09"/>
      <point x="190.78" y="158.375" type="curve" smooth="yes"/>
      <point x="190.78" y="210.02"/>
      <point x="224.075" y="277.64"/>
      <point x="325.03" y="327.615" type="curve"/>
      <point x="389.33" y="298.62"/>
      <point x="453.27" y="270.62"/>
      <point x="453.27" y="197.005" type="curve" smooth="yes"/>
      <point x="453.27" y="114.73"/>
      <point x="376.665" y="62.44"/>
    </contour>
    <contour>
      <point x="394.0" y="382.065" type="curve"/>
      <point x="339.71" y="405.065"/>
      <point x="286.765" y="434.725"/>
      <point x="286.765" y="495.015" type="curve" smooth="yes"/>
      <point x="286.765" y="581.255"/>
      <point x="349.03" y="631.23"/>
      <point x="423.315" y="631.23" type="curve" smooth="yes"/>
      <point x="484.28" y="631.23"/>
      <point x="518.93" y="600.245"/>
      <point x="518.93" y="541.95" type="curve" smooth="yes"/>
      <point x="518.93" y="483.67"/>
      <point x="483.635" y="427.375"/>
    </contour>
  </outline>
</glyph>
<glyph name="nine" format="2">
  <advance width="565.34"/>
  <unicode hex="0039"/>
  <outline>
    <contour>
      <point x="115.005" y="-2.67" type="curve" smooth="yes"/>
      <point x="424.1" y="-2.67"/>
      <point x="600.385" y="227.675"/>
      <point x="600.385" y="493.265" type="curve" smooth="yes"/>
      <point x="600.385" y="646.28"/>
      <point x="511.7" y="708.67"/>
      <point x="408.315" y="708.67" type="curve" smooth="yes"/>
      <point x="276.29" y="708.67"/>
      <point x="153.96" y="612.34"/>
      <point x="153.96" y="439.675" type="curve" smooth="yes"/>
      <point x="153.96" y="339.615"/>
      <point x="214.675" y="271.63"/>
      <point x="331.63" y="271.63" type="curve" smooth="yes"/>
      <point x="365.645" y="271.63"/>
      <point x="421.63" y="282.29"/>
      <point x="474.585" y="307.94" type="curve"/>
      <point x="417.915" y="158.31"/>
      <point x="288.595" y="72.78"/>
      <point x="98.325" y="75.765" type="curve"/>
      <point x="84.315" y="-1.67" type="line"/>
      <point x="95.325" y="-2.67"/>
      <point x="107.33" y="-2.67"/>
    </contour>
    <contour>
      <point x="356.03" y="349.05" type="curve" smooth="yes"/>
      <point x="284.09" y="349.05"/>
      <point x="248.08" y="389.0"/>
      <point x="248.08" y="450.34" type="curve" smooth="yes"/>
      <point x="248.08" y="566.26"/>
      <point x="318.35" y="629.225"/>
      <point x="404.295" y="629.225" type="curve" smooth="yes"/>
      <point x="471.945" y="629.225"/>
      <point x="508.26" y="578.885"/>
      <point x="508.26" y="495.6" type="curve" smooth="yes"/>
      <point x="508.26" y="456.63"/>
      <point x="503.595" y="418.66"/>
      <point x="493.93" y="383.02" type="curve"/>
      <point x="443.65" y="359.715"/>
      <point x="396.345" y="349.05"/>
    </contour>
  </outline>
</glyph>
<glyph name="less" format="2">
  <advance width="565.0"/>
  <unicode hex="003C"/>
  <outline>
    <contour>
      <point x="484.5" y="83.0" type="line"/>
      <point x="524.25" y="151.25" type="line"/>
      <point x="212.5" y="295.0" type="line"/>
      <point x="596.75" y="437.5" type="line"/>
      <point x="590.5" y="514.25" type="line"/>
      <point x="130.0" y="336.25" type="line"/>
      <point x="112.75" y="263.5" type="line"/>
    </contour>
  </outline>
</glyph>
<glyph name="equal" format="2">
  <advance width="565.0"/>
  <unicode hex="003D"/>
  <outline>
    <contour>
      <point x="147.25" y="368.25" type="line"/>
      <point x="594.0" y="368.25" type="line"/>
      <point x="611.25" y="441.5" type="line"/>
      <point x="165.25" y="441.5" type="line"/>
    </contour>
    <contour>
      <point x="96.5" y="156.0" type="line"/>
      <point x="543.25" y="156.0" type="line"/>
      <point x="560.5" y="229.25" type="line"/>
      <point x="114.5" y="229.25" type="line"/>
    </contour>
  </outline>
</glyph>
<glyph name="greater" format="2">
  <advance width="565.34"/>
  <unicode hex="003E"/>
  <outline>
    <contour>
      <point x="101.275" y="79.94" type="line"/>
      <point x="563.305" y="258.28" type="line"/>
      <point x="581.66" y="336.045" type="line"/>
      <point x="208.295" y="517.395" type="line"/>
      <point x="165.91" y="444.635" type="line"/>
      <point x="474.515" y="302.33" type="line"/>
      <point x="94.6" y="162.38" type="line"/>
    </contour>
  </outline>
</glyph>
<glyph name="question" format="2">
  <advance width="386.775"/>
  <unicode hex="003F"/>
  <outline>
    <contour>
      <point x="163.02" y="215.68" type="curve"/>
      <point x="243.815" y="215.68" type="line"/>
      <point x="245.155" y="281.305"/>
      <point x="299.795" y="325.285"/>
      <point x="357.445" y="371.6" type="curve" smooth="yes"/>
      <point x="423.785" y="423.935"/>
      <point x="494.805" y="475.93"/>
      <point x="494.805" y="570.98" type="curve" smooth="yes"/>
      <point x="494.805" y="669.31"/>
      <point x="419.445" y="708.335"/>
      <point x="334.75" y="708.335" type="curve" smooth="yes"/>
      <point x="279.385" y="708.335"/>
      <point x="221.02" y="692.99"/>
      <point x="177.0" y="670.64" type="curve"/>
      <point x="188.685" y="594.87" type="line"/>
      <point x="221.69" y="611.21"/>
      <point x="272.71" y="627.555"/>
      <point x="317.055" y="627.555" type="curve" smooth="yes"/>
      <point x="362.035" y="627.555"/>
      <point x="399.345" y="609.895"/>
      <point x="399.345" y="559.6" type="curve" smooth="yes"/>
      <point x="399.345" y="512.29"/>
      <point x="371.0" y="478.64"/>
      <point x="295.99" y="421.63" type="curve" smooth="yes"/>
      <point x="218.685" y="360.655"/>
      <point x="164.35" y="307.99"/>
    </contour>
    <contour>
      <point x="180.395" y="-12.335" type="curve" smooth="yes"/>
      <point x="221.42000000000002" y="-12.335"/>
      <point x="251.8" y="23.015"/>
      <point x="251.8" y="62.735" type="curve" smooth="yes"/>
      <point x="251.8" y="97.785"/>
      <point x="230.1" y="121.79"/>
      <point x="191.08" y="121.79" type="curve" smooth="yes"/>
      <point x="150.055" y="121.79"/>
      <point x="119.675" y="86.44"/>
      <point x="119.675" y="46.72" type="curve" smooth="yes"/>
      <point x="119.675" y="11.67"/>
      <point x="141.375" y="-12.335"/>
    </contour>
  </outline>
</glyph>
<glyph name="at" format="2">
  <advance width="932.355"/>
  <unicode hex="0040"/>
  <outline>
    <contour>
      <point x="464.035" y="-156.685" type="curve" smooth="yes"/>
      <point x="511.045" y="-156.685"/>
      <point x="564.4" y="-149.685"/>
      <point x="616.41" y="-137.355" type="curve"/>
      <point x="621.745" y="-67.615" type="line"/>
      <point x="571.75" y="-78.61"/>
      <point x="519.725" y="-85.28"/>
      <point x="475.385" y="-85.28" type="curve" smooth="yes"/>
      <point x="307.095" y="-85.28"/>
      <point x="195.055" y="1.6449999999999996"/>
      <point x="195.055" y="184.325" type="curve" smooth="yes"/>
      <point x="195.055" y="482.31"/>
      <point x="406.04" y="640.28"/>
      <point x="615.665" y="640.28" type="curve" smooth="yes"/>
      <point x="771.62" y="640.28"/>
      <point x="879.295" y="561.305"/>
      <point x="879.295" y="390.31" type="curve" smooth="yes"/>
      <point x="879.295" y="265.275"/>
      <point x="830.29" y="122.04"/>
      <point x="721.39" y="122.04" type="curve" smooth="yes"/>
      <point x="687.085" y="122.04"/>
      <point x="680.395" y="135.695"/>
      <point x="680.395" y="152.045" type="curve" smooth="yes"/>
      <point x="680.395" y="161.7"/>
      <point x="683.385" y="171.355"/>
      <point x="685.72" y="181.015" type="curve"/>
      <point x="759.38" y="482.335" type="line"/>
      <point x="732.025" y="493.345"/>
      <point x="679.365" y="508.35"/>
      <point x="610.34" y="508.35" type="curve" smooth="yes"/>
      <point x="431.27" y="508.35"/>
      <point x="322.61" y="372.94"/>
      <point x="322.61" y="217.0" type="curve" smooth="yes"/>
      <point x="322.61" y="105.995"/>
      <point x="389.265" y="46.62"/>
      <point x="487.615" y="46.62" type="curve" smooth="yes"/>
      <point x="533.96" y="46.62"/>
      <point x="579.95" y="62.61"/>
      <point x="616.31" y="85.62" type="curve"/>
      <point x="630.325" y="61.285"/>
      <point x="660.995" y="47.95"/>
      <point x="697.325" y="47.95" type="curve" smooth="yes"/>
      <point x="834.81" y="47.95"/>
      <point x="959.715" y="172.105"/>
      <point x="959.715" y="389.01" type="curve" smooth="yes"/>
      <point x="959.715" y="608.685"/>
      <point x="817.32" y="711.35"/>
      <point x="627.67" y="711.35" type="curve" smooth="yes"/>
      <point x="356.67" y="711.35"/>
      <point x="111.97" y="522.01"/>
      <point x="111.97" y="177.335" type="curve" smooth="yes"/>
      <point x="111.97" y="-32.995"/>
      <point x="253.64" y="-156.685"/>
    </contour>
    <contour>
      <point x="500.67" y="119.71000000000001" type="curve" smooth="yes"/>
      <point x="443.685" y="119.71000000000001"/>
      <point x="412.715" y="153.04"/>
      <point x="412.715" y="225.01" type="curve" smooth="yes"/>
      <point x="412.715" y="338.255"/>
      <point x="483.99" y="436.93"/>
      <point x="597.975" y="436.93" type="curve" smooth="yes"/>
      <point x="624.945" y="436.93"/>
      <point x="653.905" y="433.27"/>
      <point x="660.255" y="430.27" type="curve"/>
      <point x="603.275" y="196.34" type="line" smooth="yes"/>
      <point x="599.94" y="181.33"/>
      <point x="596.275" y="166.67"/>
      <point x="595.94" y="144.365" type="curve"/>
      <point x="571.935" y="132.03"/>
      <point x="546.275" y="119.71000000000001"/>
    </contour>
  </outline>
</glyph>
<glyph name="A" format="2">
  <advance width="645.0"/>
  <unicode hex="0041"/>
  <outline>
    <contour>
      <point x="18.75" y="0.0" type="curve"/>
      <point x="115.0" y="0.0" type="line"/>
      <point x="147.25" y="62.5"/>
      <point x="181.0" y="122.25"/>
      <point x="214.0" y="180.25" type="curve"/>
      <point x="523.5" y="180.25" type="line"/>
      <point x="530.5" y="120.0"/>
      <point x="536.5" y="60.25"/>
      <point x="542.5" y="0.0" type="curve"/>
      <point x="634.25" y="0.0" type="line"/>
      <point x="605.0" y="262.0"/>
      <point x="572.75" y="498.5"/>
      <point x="536.5" y="693.0" type="curve"/>
      <point x="447.0" y="693.0" type="line"/>
      <point x="308.0" y="491.25"/>
      <point x="164.75" y="259.75"/>
    </contour>
    <contour>
      <point x="255.25" y="254.25" type="line"/>
      <point x="323.5" y="370.75"/>
      <point x="395.5" y="482.0"/>
      <point x="470.25" y="596.5" type="curve"/>
      <point x="488.5" y="478.25"/>
      <point x="502.75" y="363.75"/>
      <point x="515.75" y="254.25" type="curve"/>
    </contour>
  </outline>
</glyph>
<glyph name="B" format="2">
  <advance width="617.435"/>
  <unicode hex="0042"/>
  <outline>
    <contour>
      <point x="276.09" y="-7.005" type="curve" smooth="yes"/>
      <point x="474.9" y="-7.005"/>
      <point x="618.115" y="66.11"/>
      <point x="618.115" y="234.01" type="curve" smooth="yes"/>
      <point x="618.115" y="292.005"/>
      <point x="584.13" y="346.655"/>
      <point x="523.135" y="365.675" type="curve"/>
      <point x="606.845" y="396.71"/>
      <point x="658.765" y="463.39"/>
      <point x="658.765" y="543.67" type="curve" smooth="yes"/>
      <point x="658.765" y="654.605"/>
      <point x="559.84" y="700.335"/>
      <point x="429.765" y="700.335" type="curve" smooth="yes"/>
      <point x="365.42" y="700.335"/>
      <point x="294.375" y="692.345"/>
      <point x="240.32" y="680.67" type="curve"/>
      <point x="80.32" y="12.665" type="line"/>
      <point x="137.015" y="0.32499999999999996"/>
      <point x="207.395" y="-7.005"/>
    </contour>
    <contour>
      <point x="287.135" y="73.775" type="curve" smooth="yes"/>
      <point x="253.15" y="73.775"/>
      <point x="218.145" y="75.775"/>
      <point x="192.49" y="80.44" type="curve"/>
      <point x="249.455" y="322.285" type="line"/>
      <point x="370.09" y="322.285" type="line" smooth="yes"/>
      <point x="475.01" y="322.285"/>
      <point x="517.64" y="291.26"/>
      <point x="517.64" y="226.995" type="curve" smooth="yes"/>
      <point x="517.64" y="100.425"/>
      <point x="400.715" y="73.775"/>
    </contour>
    <contour>
      <point x="269.145" y="400.05" type="line"/>
      <point x="321.105" y="613.23" type="line"/>
      <point x="343.09" y="616.895"/>
      <point x="378.76" y="619.56"/>
      <point x="412.08" y="619.56" type="curve" smooth="yes"/>
      <point x="505.64" y="619.56"/>
      <point x="559.96" y="593.25"/>
      <point x="559.96" y="523.295" type="curve" smooth="yes"/>
      <point x="559.96" y="450.69"/>
      <point x="502.34" y="400.05"/>
      <point x="363.82" y="400.05" type="curve" smooth="yes"/>
    </contour>
  </outline>
</glyph>
<glyph name="C" format="2">
  <advance width="617.0"/>
  <unicode hex="0043"/>
  <outline>
    <contour>
      <point x="393.5" y="-14.75" type="curve" smooth="yes"/>
      <point x="467.75" y="-14.75"/>
      <point x="539.5" y="2.25"/>
      <point x="593.75" y="30.75" type="curve"/>
      <point x="582.75" y="107.5" type="line"/>
      <point x="550.0" y="91.0"/>
      <point x="497.0" y="64.75"/>
      <point x="400.0" y="64.75" type="curve" smooth="yes"/>
      <point x="285.25" y="64.75"/>
      <point x="228.5" y="133.25"/>
      <point x="228.5" y="263.5" type="curve" smooth="yes"/>
      <point x="228.5" y="483.0"/>
      <point x="365.5" y="629.25"/>
      <point x="528.75" y="629.25" type="curve" smooth="yes"/>
      <point x="581.25" y="629.25"/>
      <point x="629.25" y="616.5"/>
      <point x="680.0" y="586.75" type="curve"/>
      <point x="717.25" y="663.5" type="line"/>
      <point x="659.25" y="695.25"/>
      <point x="604.25" y="708.25"/>
      <point x="541.75" y="708.25" type="curve" smooth="yes"/>
      <point x="315.0" y="708.25"/>
      <point x="134.25" y="526.25"/>
      <point x="134.25" y="259.75" type="curve" smooth="yes"/>
      <point x="134.25" y="72.75"/>
      <point x="240.25" y="-14.75"/>
    </contour>
  </outline>
</glyph>
<glyph name="D" format="2">
  <advance width="692.065"/>
  <unicode hex="0044"/>
  <outline>
    <contour>
      <point x="256.72" y="-7.005" type="curve" smooth="yes"/>
      <point x="558.37" y="-7.005"/>
      <point x="725.405" y="164.31"/>
      <point x="725.405" y="417.68" type="curve" smooth="yes"/>
      <point x="725.405" y="593.32"/>
      <point x="622.04" y="699.67"/>
      <point x="420.05" y="699.67" type="curve" smooth="yes"/>
      <point x="366.71" y="699.67"/>
      <point x="308.675" y="694.67"/>
      <point x="239.99" y="680.335" type="curve"/>
      <point x="80.32" y="12.665" type="line"/>
      <point x="129.7" y="-0.3400000000000001"/>
      <point x="202.715" y="-7.005"/>
    </contour>
    <contour>
      <point x="274.425" y="76.45" type="curve" smooth="yes"/>
      <point x="245.43" y="76.45"/>
      <point x="220.79500000000002" y="78.11500000000001"/>
      <point x="193.825" y="81.775" type="curve"/>
      <point x="320.44" y="610.89" type="line"/>
      <point x="350.085" y="614.885"/>
      <point x="380.06" y="617.215"/>
      <point x="408.705" y="617.215" type="curve" smooth="yes"/>
      <point x="557.975" y="617.215"/>
      <point x="623.26" y="545.24"/>
      <point x="623.26" y="413.005" type="curve" smooth="yes"/>
      <point x="623.26" y="215.71"/>
      <point x="499.295" y="76.45"/>
    </contour>
  </outline>
</glyph>
<glyph name="E" format="2">
  <advance width="541.5"/>
  <unicode hex="0045"/>
  <outline>
    <contour>
      <point x="81.0" y="0.0" type="line"/>
      <point x="508.75" y="0.0" type="line"/>
      <point x="525.75" y="76.5" type="line"/>
      <point x="187.75" y="76.5" type="line"/>
      <point x="249.5" y="326.0" type="line"/>
      <point x="528.0" y="326.0" type="line"/>
      <point x="545.5" y="401.0" type="line"/>
      <point x="265.5" y="401.0" type="line"/>
      <point x="317.75" y="616.75" type="line"/>
      <point x="632.75" y="616.75" type="line"/>
      <point x="650.5" y="693.0" type="line"/>
      <point x="247.0" y="693.0" type="line"/>
    </contour>
  </outline>
</glyph>
<glyph name="F" format="2">
  <advance width="518.75"/>
  <unicode hex="0046"/>
  <outline>
    <contour>
      <point x="81.0" y="0.0" type="line"/>
      <point x="170.75" y="0.0" type="line"/>
      <point x="248.0" y="320.0" type="line"/>
      <point x="522.75" y="320.0" type="line"/>
      <point x="541.0" y="396.5" type="line"/>
      <point x="264.0" y="396.5" type="line"/>
      <point x="317.75" y="616.5" type="line"/>
      <point x="628.75" y="616.5" type="line"/>
      <point x="646.5" y="693.0" type="line"/>
      <point x="247.0" y="693.0" type="line"/>
    </contour>
  </outline>
</glyph>
<glyph name="G" format="2">
  <advance width="652.0"/>
  <unicode hex="0047"/>
  <outline>
    <contour>
      <point x="404.25" y="-14.5" type="curve" smooth="yes"/>
      <point x="476.5" y="-14.5"/>
      <point x="544.25" y="0.25"/>
      <point x="597.75" y="22.0" type="curve"/>
      <point x="672.75" y="334.5" type="line"/>
      <point x="582.75" y="334.5" type="line"/>
      <point x="524.0" y="83.0" type="line"/>
      <point x="485.25" y="70.25"/>
      <point x="445.5" y="64.5"/>
      <point x="407.25" y="64.5" type="curve" smooth="yes"/>
      <point x="283.5" y="64.5"/>
      <point x="228.5" y="136.25"/>
      <point x="228.5" y="268.75" type="curve" smooth="yes"/>
      <point x="228.5" y="459.0"/>
      <point x="344.75" y="629.25"/>
      <point x="533.25" y="629.25" type="curve" smooth="yes"/>
      <point x="615.75" y="629.25"/>
      <point x="681.0" y="596.25"/>
      <point x="698.75" y="583.75" type="curve"/>
      <point x="736.0" y="660.5" type="line"/>
      <point x="700.75" y="680.25"/>
      <point x="648.5" y="708.25"/>
      <point x="541.75" y="708.25" type="curve" smooth="yes"/>
      <point x="287.75" y="708.25"/>
      <point x="134.25" y="491.75"/>
      <point x="134.25" y="264.25" type="curve" smooth="yes"/>
      <point x="134.25" y="93.0"/>
      <point x="218.75" y="-14.5"/>
    </contour>
  </outline>
</glyph>
<glyph name="H" format="2">
  <advance width="674.765"/>
  <unicode hex="0048"/>
  <outline>
    <contour>
      <point x="80.32" y="0.0" type="line"/>
      <point x="177.465" y="0.0" type="line"/>
      <point x="254.45" y="320.27" type="line"/>
      <point x="574.93" y="320.27" type="line"/>
      <point x="497.945" y="0.0" type="line"/>
      <point x="595.425" y="0.0" type="line"/>
      <point x="761.095" y="693.0" type="line"/>
      <point x="663.615" y="693.0" type="line"/>
      <point x="594.295" y="403.725" type="line"/>
      <point x="273.15" y="403.725" type="line"/>
      <point x="343.8" y="693.0" type="line"/>
      <point x="246.32" y="693.0" type="line"/>
    </contour>
  </outline>
</glyph>
<glyph name="I" format="2">
  <advance width="250.5"/>
  <unicode hex="0049"/>
  <outline>
    <contour>
      <point x="81.0" y="0.0" type="line"/>
      <point x="171.5" y="0.0" type="line"/>
      <point x="337.0" y="693.0" type="line"/>
      <point x="247.0" y="693.0" type="line"/>
    </contour>
  </outline>
</glyph>
<glyph name="J" format="2">
  <advance width="472.11"/>
  <unicode hex="004A"/>
  <outline>
    <contour>
      <point x="191.375" y="-14.665" type="curve" smooth="yes"/>
      <point x="324.155" y="-14.665"/>
      <point x="403.79" y="43.075"/>
      <point x="439.78" y="195.37" type="curve" smooth="yes"/>
      <point x="558.44" y="693.0" type="line"/>
      <point x="460.96" y="693.0" type="line"/>
      <point x="344.98" y="211.075" type="line" smooth="yes"/>
      <point x="317.33" y="96.475"/>
      <point x="266.045" y="70.79"/>
      <point x="193.705" y="70.79" type="curve" smooth="yes"/>
      <point x="134.39" y="70.79"/>
      <point x="89.08" y="96.775"/>
      <point x="65.06" y="117.78" type="curve"/>
      <point x="18.67" y="44.34" type="line"/>
      <point x="61.685" y="9.335"/>
      <point x="121.37" y="-14.665"/>
    </contour>
  </outline>
</glyph>
<glyph name="K" format="2">
  <advance width="620.105"/>
  <unicode hex="004B"/>
  <outline>
    <contour>
      <point x="80.32" y="0.0" type="line"/>
      <point x="177.465" y="0.0" type="line"/>
      <point x="255.78" y="328.57" type="line"/>
      <point x="354.055" y="250.91"/>
      <point x="435.36" y="128.905"/>
      <point x="498.96" y="0.0" type="curve"/>
      <point x="605.12" y="0.0" type="line"/>
      <point x="552.1" y="125.07"/>
      <point x="443.505" y="281.305"/>
      <point x="352.19" y="359.34" type="curve"/>
      <point x="477.87" y="458.355"/>
      <point x="648.735" y="601.615"/>
      <point x="748.455" y="693.0" type="curve"/>
      <point x="626.63" y="693.0" type="line"/>
      <point x="552.615" y="622.645"/>
      <point x="393.45" y="488.775"/>
      <point x="272.16" y="397.115" type="curve"/>
      <point x="343.135" y="693.0" type="line"/>
      <point x="246.32" y="693.0" type="line"/>
    </contour>
  </outline>
</glyph>
<glyph name="L" format="2">
  <advance width="496.5"/>
  <unicode hex="004C"/>
  <outline>
    <contour>
      <point x="81.0" y="0.0" type="line"/>
      <point x="477.75" y="0.0" type="line"/>
      <point x="495.5" y="76.5" type="line"/>
      <point x="188.5" y="76.5" type="line"/>
      <point x="336.25" y="693.0" type="line"/>
      <point x="246.25" y="693.0" type="line"/>
    </contour>
  </outline>
</glyph>
<glyph name="M" format="2">
  <advance width="842.75"/>
  <unicode hex="004D"/>
  <outline>
    <contour>
      <point x="64.75" y="0.0" type="curve"/>
      <point x="153.5" y="0.0" type="line"/>
      <point x="205.25" y="191.25"/>
      <point x="262.0" y="387.5"/>
      <point x="318.5" y="559.0" type="curve"/>
      <point x="342.75" y="463.25"/>
      <point x="390.75" y="200.25"/>
      <point x="406.0" y="97.0" type="curve"/>
      <point x="479.5" y="97.0" type="line"/>
      <point x="537.75" y="187.5"/>
      <point x="724.5" y="473.25"/>
      <point x="786.75" y="558.25" type="curve"/>
      <point x="761.25" y="386.75"/>
      <point x="727.5" y="195.75"/>
      <point x="686.0" y="0.0" type="curve"/>
      <point x="776.5" y="0.0" type="line"/>
      <point x="821.75" y="231.75"/>
      <point x="860.75" y="465.75"/>
      <point x="884.25" y="693.0" type="curve"/>
      <point x="797.25" y="693.0" type="line"/>
      <point x="708.0" y="572.75"/>
      <point x="561.5" y="350.75"/>
      <point x="463.75" y="201.25" type="curve"/>
      <point x="442.0" y="342.0"/>
      <point x="400.5" y="555.75"/>
      <point x="365.75" y="693.0" type="curve"/>
      <point x="279.75" y="693.0" type="line"/>
      <point x="211.5" y="492.25"/>
      <point x="130.25" y="240.75"/>
    </contour>
  </outline>
</glyph>
<glyph name="N" format="2">
  <advance width="693.455"/>
  <unicode hex="004E"/>
  <outline>
    <contour>
      <point x="80.32" y="0.0" type="line"/>
      <point x="176.13" y="0.0" type="line"/>
      <point x="308.74" y="553.43" type="line"/>
      <point x="388.405" y="411.105"/>
      <point x="480.35" y="160.99"/>
      <point x="531.03" y="0.0" type="curve"/>
      <point x="614.78" y="0.0" type="line"/>
      <point x="779.785" y="693.0" type="line"/>
      <point x="683.305" y="693.0" type="line"/>
      <point x="559.7" y="164.945" type="line"/>
      <point x="514.645" y="311.3"/>
      <point x="416.345" y="548.795"/>
      <point x="330.74" y="693.0" type="curve"/>
      <point x="246.32" y="693.0" type="line"/>
    </contour>
  </outline>
</glyph>
<glyph name="O" format="2">
  <advance width="750.25"/>
  <unicode hex="004F"/>
  <outline>
    <contour>
      <point x="389.0" y="-14.75" type="curve" smooth="yes"/>
      <point x="598.0" y="-14.75"/>
      <point x="783.5" y="171.5"/>
      <point x="783.5" y="431.5" type="curve" smooth="yes"/>
      <point x="783.5" y="615.5"/>
      <point x="668.5" y="708.25"/>
      <point x="528.75" y="708.25" type="curve" smooth="yes"/>
      <point x="320.5" y="708.25"/>
      <point x="134.25" y="521.5"/>
      <point x="134.25" y="262.75" type="curve" smooth="yes"/>
      <point x="134.25" y="78.0"/>
      <point x="249.25" y="-14.75"/>
    </contour>
    <contour>
      <point x="397.5" y="64.5" type="curve" smooth="yes"/>
      <point x="298.75" y="64.5"/>
      <point x="228.25" y="130.25"/>
      <point x="228.25" y="257.25" type="curve" smooth="yes"/>
      <point x="228.25" y="486.25"/>
      <point x="368.0" y="629.0"/>
      <point x="520.25" y="629.0" type="curve" smooth="yes"/>
      <point x="619.0" y="629.0"/>
      <point x="689.5" y="563.25"/>
      <point x="689.5" y="436.25" type="curve" smooth="yes"/>
      <point x="689.5" y="207.25"/>
      <point x="549.75" y="64.5"/>
    </contour>
  </outline>
</glyph>
<glyph name="P" format="2">
  <advance width="589.79"/>
  <unicode hex="0050"/>
  <outline>
    <contour>
      <point x="80.32" y="0.0" type="line"/>
      <point x="177.465" y="0.0" type="line"/>
      <point x="239.45" y="255.94" type="line"/>
      <point x="315.025" y="255.94" type="line" smooth="yes"/>
      <point x="530.69" y="255.94"/>
      <point x="666.095" y="350.545"/>
      <point x="666.095" y="516.965" type="curve" smooth="yes"/>
      <point x="666.095" y="633.65"/>
      <point x="582.71" y="699.67"/>
      <point x="421.36" y="699.67" type="curve" smooth="yes"/>
      <point x="363.03" y="699.67"/>
      <point x="301.355" y="692.675"/>
      <point x="243.32" y="681.005" type="curve"/>
    </contour>
    <contour>
      <point x="258.815" y="339.06" type="line"/>
      <point x="324.105" y="610.89" type="line"/>
      <point x="348.085" y="613.22"/>
      <point x="376.05" y="616.55"/>
      <point x="407.03" y="616.55" type="curve" smooth="yes"/>
      <point x="512.965" y="616.55"/>
      <point x="564.615" y="582.91"/>
      <point x="564.615" y="505.62" type="curve" smooth="yes"/>
      <point x="564.615" y="397.33"/>
      <point x="476.98" y="339.06"/>
      <point x="331.73" y="339.06" type="curve" smooth="yes"/>
    </contour>
  </outline>
</glyph>
<glyph name="Q" format="2">
  <advance width="750.0"/>
  <unicode hex="0051"/>
  <outline>
    <contour>
      <point x="589.0" y="-184.75" type="curve"/>
      <point x="620.0" y="-115.75" type="line"/>
      <point x="522.5" y="-103.25"/>
      <point x="431.75" y="-79.25"/>
      <point x="431.75" y="-24.75" type="curve" smooth="yes"/>
      <point x="431.75" y="-20.0"/>
      <point x="432.5" y="-16.0"/>
      <point x="434.0" y="-11.25" type="curve"/>
      <point x="622.0" y="12.25"/>
      <point x="783.5" y="189.75"/>
      <point x="783.5" y="431.5" type="curve" smooth="yes"/>
      <point x="783.5" y="615.5"/>
      <point x="668.5" y="708.25"/>
      <point x="528.75" y="708.25" type="curve" smooth="yes"/>
      <point x="320.5" y="708.25"/>
      <point x="134.25" y="521.5"/>
      <point x="134.25" y="262.75" type="curve" smooth="yes"/>
      <point x="134.25" y="95.5"/>
      <point x="227.5" y="5.0"/>
      <point x="347.75" y="-11.5" type="curve"/>
      <point x="346.25" y="-18.75"/>
      <point x="346.25" y="-26.25"/>
      <point x="346.25" y="-32.75" type="curve" smooth="yes"/>
      <point x="346.25" y="-136.0"/>
      <point x="466.75" y="-173.75"/>
    </contour>
    <contour>
      <point x="397.5" y="64.5" type="curve" smooth="yes"/>
      <point x="298.75" y="64.5"/>
      <point x="228.25" y="130.25"/>
      <point x="228.25" y="257.25" type="curve" smooth="yes"/>
      <point x="228.25" y="486.25"/>
      <point x="368.0" y="629.0"/>
      <point x="520.25" y="629.0" type="curve" smooth="yes"/>
      <point x="619.0" y="629.0"/>
      <point x="689.5" y="563.25"/>
      <point x="689.5" y="436.25" type="curve" smooth="yes"/>
      <point x="689.5" y="207.25"/>
      <point x="549.75" y="64.5"/>
    </contour>
  </outline>
</glyph>
<glyph name="R" format="2">
  <advance width="613.44"/>
  <unicode hex="0052"/>
  <outline>
    <contour>
      <point x="80.32" y="0.0" type="line"/>
      <point x="177.465" y="0.0" type="line"/>
      <point x="242.455" y="270.955" type="line"/>
      <point x="319.42" y="270.955" type="line" smooth="yes"/>
      <point x="337.055" y="270.955"/>
      <point x="354.025" y="271.62"/>
      <point x="370.33" y="272.95" type="curve"/>
      <point x="408.33" y="206.62"/>
      <point x="451.3" y="105.63"/>
      <point x="485.955" y="0.0" type="curve"/>
      <point x="589.78" y="0.0" type="line"/>
      <point x="558.105" y="100.685"/>
      <point x="502.475" y="228.625"/>
      <point x="468.8" y="290.975" type="curve"/>
      <point x="606.815" y="328.66"/>
      <point x="663.095" y="414.335"/>
      <point x="663.095" y="511.975" type="curve" smooth="yes"/>
      <point x="663.095" y="624.63"/>
      <point x="582.085" y="699.67"/>
      <point x="417.38" y="699.67" type="curve" smooth="yes"/>
      <point x="360.385" y="699.67"/>
      <point x="298.03" y="691.345"/>
      <point x="243.32" y="681.005" type="curve"/>
    </contour>
    <contour>
      <point x="261.15" y="350.73" type="line"/>
      <point x="324.105" y="610.555" type="line"/>
      <point x="347.42" y="612.885"/>
      <point x="378.74" y="616.215"/>
      <point x="409.055" y="616.215" type="curve" smooth="yes"/>
      <point x="519.34" y="616.215"/>
      <point x="563.62" y="577.875"/>
      <point x="563.62" y="506.94" type="curve" smooth="yes"/>
      <point x="563.62" y="413.04"/>
      <point x="487.04" y="350.73"/>
      <point x="334.1" y="350.73" type="curve" smooth="yes"/>
    </contour>
  </outline>
</glyph>
<glyph name="S" format="2">
  <advance width="511.12"/>
  <unicode hex="0053"/>
  <outline>
    <contour>
      <point x="240.74" y="-14.665" type="curve" smooth="yes"/>
      <point x="425.37" y="-14.665"/>
      <point x="518.43" y="81.275"/>
      <point x="518.43" y="202.02" type="curve" smooth="yes"/>
      <point x="518.43" y="315.01"/>
      <point x="442.1" y="355.695"/>
      <point x="367.41" y="393.375" type="curve" smooth="yes"/>
      <point x="313.095" y="421.365"/>
      <point x="263.78" y="445.675"/>
      <point x="263.78" y="511.975" type="curve" smooth="yes"/>
      <point x="263.78" y="595.58"/>
      <point x="338.065" y="626.885"/>
      <point x="416.355" y="626.885" type="curve" smooth="yes"/>
      <point x="468.695" y="626.885"/>
      <point x="515.705" y="613.535"/>
      <point x="557.35" y="586.54" type="curve"/>
      <point x="602.4" y="662.97" type="line"/>
      <point x="549.765" y="691.3"/>
      <point x="491.72" y="708.335"/>
      <point x="425.005" y="708.335" type="curve" smooth="yes"/>
      <point x="247.65" y="708.335"/>
      <point x="163.63" y="610.015"/>
      <point x="163.63" y="504.305" type="curve" smooth="yes"/>
      <point x="163.63" y="399.995"/>
      <point x="232.265" y="358.64"/>
      <point x="303.27" y="320.295" type="curve" smooth="yes"/>
      <point x="360.265" y="289.96"/>
      <point x="417.615" y="263.31"/>
      <point x="417.615" y="196.675" type="curve" smooth="yes"/>
      <point x="417.615" y="102.405"/>
      <point x="333.325" y="68.12"/>
      <point x="249.715" y="68.12" type="curve" smooth="yes"/>
      <point x="187.7" y="68.12"/>
      <point x="127.025" y="92.14"/>
      <point x="90.705" y="118.46000000000001" type="curve"/>
      <point x="45.32" y="39.36" type="line"/>
      <point x="91.28999999999999" y="11.040000000000001"/>
      <point x="161.325" y="-14.665"/>
    </contour>
  </outline>
</glyph>
<glyph name="T" format="2">
  <advance width="543.0"/>
  <unicode hex="0054"/>
  <outline>
    <contour>
      <point x="225.75" y="0.0" type="line"/>
      <point x="315.75" y="0.0" type="line"/>
      <point x="463.5" y="616.0" type="line"/>
      <point x="673.25" y="616.0" type="line"/>
      <point x="691.75" y="693.0" type="line"/>
      <point x="181.5" y="693.0" type="line"/>
      <point x="163.75" y="616.0" type="line"/>
      <point x="373.5" y="616.0" type="line"/>
    </contour>
  </outline>
</glyph>
<glyph name="U" format="2">
  <advance width="659.725"/>
  <unicode hex="0055"/>
  <outline>
    <contour>
      <point x="346.355" y="-15.33" type="curve" smooth="yes"/>
      <point x="511.03" y="-15.33"/>
      <point x="600.39" y="65.995"/>
      <point x="646.72" y="257.985" type="curve" smooth="yes"/>
      <point x="751.055" y="693.0" type="line"/>
      <point x="653.575" y="693.0" type="line"/>
      <point x="551.575" y="268.99" type="line" smooth="yes"/>
      <point x="517.935" y="131.105"/>
      <point x="465.975" y="69.795"/>
      <point x="357.38" y="69.795" type="curve" smooth="yes"/>
      <point x="259.43" y="69.795"/>
      <point x="228.785" y="123.42"/>
      <point x="228.785" y="193.375" type="curve" smooth="yes"/>
      <point x="228.785" y="219.7"/>
      <point x="233.115" y="248.69"/>
      <point x="240.115" y="277.015" type="curve" smooth="yes"/>
      <point x="340.11" y="693.0" type="line"/>
      <point x="242.63" y="693.0" type="line"/>
      <point x="144.975" y="283.055" type="line" smooth="yes"/>
      <point x="136.305" y="248.71"/>
      <point x="131.97" y="215.7"/>
      <point x="131.97" y="184.69" type="curve" smooth="yes"/>
      <point x="131.97" y="68.345"/>
      <point x="194.97" y="-15.33"/>
    </contour>
  </outline>
</glyph>
<glyph name="V" format="2">
  <advance width="626.155"/>
  <unicode hex="0056"/>
  <outline>
    <contour>
      <point x="267.335" y="0.0" type="curve"/>
      <point x="358.14" y="0.0" type="line"/>
      <point x="500.87" y="197.12"/>
      <point x="631.89" y="421.2"/>
      <point x="777.78" y="693.0" type="curve"/>
      <point x="671.63" y="693.0" type="line"/>
      <point x="569.02" y="483.105"/>
      <point x="448.37" y="273.455"/>
      <point x="336.445" y="112.18" type="curve"/>
      <point x="309.465" y="268.505"/>
      <point x="289.14" y="457.54"/>
      <point x="269.835" y="693.0" type="curve"/>
      <point x="170.0" y="693.0" type="line"/>
      <point x="197.645" y="397.575"/>
      <point x="227.66" y="201.065"/>
    </contour>
  </outline>
</glyph>
<glyph name="W" format="2">
  <advance width="884.25"/>
  <unicode hex="0057"/>
  <outline>
    <contour>
      <point x="182.5" y="0.0" type="curve"/>
      <point x="273.0" y="0.0" type="line"/>
      <point x="373.25" y="155.0"/>
      <point x="462.5" y="306.0"/>
      <point x="555.75" y="476.25" type="curve"/>
      <point x="569.75" y="296.25"/>
      <point x="589.5" y="141.0"/>
      <point x="613.5" y="0.0" type="curve"/>
      <point x="704.0" y="0.0" type="line"/>
      <point x="819.5" y="202.25"/>
      <point x="924.75" y="429.0"/>
      <point x="1031.75" y="693.0" type="curve"/>
      <point x="935.0" y="693.0" type="line"/>
      <point x="853.75" y="484.25"/>
      <point x="757.75" y="258.75"/>
      <point x="675.25" y="108.5" type="curve"/>
      <point x="656.25" y="233.5"/>
      <point x="633.75" y="431.25"/>
      <point x="622.75" y="607.75" type="curve"/>
      <point x="545.75" y="607.75" type="line"/>
      <point x="441.5" y="410.75"/>
      <point x="360.75" y="271.5"/>
      <point x="258.25" y="107.75" type="curve"/>
      <point x="250.75" y="289.75"/>
      <point x="257.0" y="497.0"/>
      <point x="269.5" y="693.0" type="curve"/>
      <point x="180.75" y="693.0" type="line"/>
      <point x="166.0" y="458.25"/>
      <point x="160.25" y="226.5"/>
    </contour>
  </outline>
</glyph>
<glyph name="X" format="2">
  <advance width="579.75"/>
  <unicode hex="0058"/>
  <outline>
    <contour>
      <point x="11.25" y="0.0" type="line"/>
      <point x="117.25" y="0.0" type="line"/>
      <point x="363.25" y="295.25" type="line"/>
      <point x="409.5" y="192.75"/>
      <point x="450.0" y="90.0"/>
      <point x="479.5" y="0.0" type="curve"/>
      <point x="576.75" y="0.0" type="line"/>
      <point x="531.75" y="126.25"/>
      <point x="480.5" y="243.5"/>
      <point x="430.5" y="361.0" type="curve"/>
      <point x="524.75" y="465.25"/>
      <point x="615.75" y="575.0"/>
      <point x="704.75" y="693.0" type="curve"/>
      <point x="605.0" y="693.0" type="line"/>
      <point x="546.0" y="611.5"/>
      <point x="473.25" y="520.25"/>
      <point x="393.75" y="428.75" type="curve"/>
      <point x="283.75" y="693.0" type="line"/>
      <point x="185.25" y="693.0" type="line"/>
      <point x="326.25" y="368.75" type="line"/>
    </contour>
  </outline>
</glyph>
<glyph name="Y" format="2">
  <advance width="587.495"/>
  <unicode hex="0059"/>
  <outline>
    <contour>
      <point x="244.0" y="0.0" type="line"/>
      <point x="341.48" y="0.0" type="line"/>
      <point x="407.48" y="277.99" type="line"/>
      <point x="531.145" y="419.99"/>
      <point x="642.76" y="558.94"/>
      <point x="740.795" y="693.0" type="curve"/>
      <point x="629.31" y="693.0" type="line"/>
      <point x="560.975" y="587.005"/>
      <point x="463.735" y="467.1"/>
      <point x="376.425" y="366.105" type="curve"/>
      <point x="338.11" y="469.095"/>
      <point x="306.46" y="585.03"/>
      <point x="281.47" y="693.0" type="curve"/>
      <point x="176.65" y="693.0" type="line"/>
      <point x="213.325" y="562.955"/>
      <point x="257.99" y="415.665"/>
      <point x="310.0" y="277.99" type="curve"/>
    </contour>
  </outline>
</glyph>
<glyph name="Z" format="2">
  <advance width="577.485"/>
  <unicode hex="005A"/>
  <outline>
    <contour>
      <point x="41.675" y="0.0" type="line"/>
      <point x="532.125" y="0.0" type="line"/>
      <point x="551.49" y="83.12" type="line"/>
      <point x="177.555" y="83.12" type="line"/>
      <point x="316.21" y="262.74"/>
      <point x="559.115" y="514.615"/>
      <point x="672.765" y="615.59" type="curve"/>
      <point x="690.785" y="693.0" type="line"/>
      <point x="224.34" y="693.0" type="line"/>
      <point x="204.31" y="609.88" type="line"/>
      <point x="548.215" y="609.88" type="line"/>
      <point x="410.56" y="480.225"/>
      <point x="171.01" y="221.035"/>
      <point x="56.695" y="65.07" type="curve"/>
    </contour>
  </outline>
</glyph>
<glyph name="bracketleft" format="2">
  <advance width="322.0"/>
  <unicode hex="005B"/>
  <outline>
    <contour>
      <point x="51.0" y="-185.0" type="line"/>
      <point x="265.5" y="-185.0" type="line"/>
      <point x="282.5" y="-117.75" type="line"/>
      <point x="147.5" y="-117.75" type="line"/>
      <point x="348.75" y="715.75" type="line"/>
      <point x="483.0" y="715.75" type="line"/>
      <point x="498.5" y="783.0" type="line"/>
      <point x="283.75" y="783.0" type="line"/>
    </contour>
  </outline>
</glyph>
<glyph name="backslash" format="2">
  <advance width="372.25"/>
  <unicode hex="005C"/>
  <outline>
    <contour>
      <point x="275.5" y="-185.0" type="line"/>
      <point x="356.25" y="-185.0" type="line"/>
      <point x="251.75" y="783.0" type="line"/>
      <point x="171.0" y="783.0" type="line"/>
    </contour>
  </outline>
</glyph>
<glyph name="bracketright" format="2">
  <advance width="328.445"/>
  <unicode hex="005D"/>
  <outline>
    <contour>
      <point x="-47.31" y="-185.0" type="line"/>
      <point x="174.145" y="-185.0" type="line"/>
      <point x="407.145" y="783.0" type="line"/>
      <point x="186.02" y="783.0" type="line"/>
      <point x="167.66" y="709.885" type="line"/>
      <point x="301.98" y="709.885" type="line"/>
      <point x="103.705" y="-111.88499999999999" type="line"/>
      <point x="-29.615000000000002" y="-111.88499999999999" type="line"/>
    </contour>
  </outline>
</glyph>
<glyph name="asciicircum" format="2">
  <advance width="565.34"/>
  <unicode hex="005E"/>
  <outline>
    <contour>
      <point x="507.955" y="317.935" type="line"/>
      <point x="584.09" y="350.99" type="line"/>
      <point x="475.07" y="694.34" type="line"/>
      <point x="402.955" y="694.34" type="line"/>
      <point x="134.59" y="360.335" type="line"/>
      <point x="200.025" y="321.27" type="line"/>
      <point x="419.98" y="596.19" type="line"/>
    </contour>
  </outline>
</glyph>
<glyph name="underscore" format="2">
  <advance width="533.59"/>
  <unicode hex="005F"/>
  <outline>
    <contour>
      <point x="-18.03" y="-185.0" type="line"/>
      <point x="481.635" y="-185.0" type="line"/>
      <point x="499.995" y="-107.55" type="line"/>
      <point x="-0.0050000000000001155" y="-107.55" type="line"/>
    </contour>
  </outline>
</glyph>
<glyph name="grave" format="2">
  <advance width="313.75"/>
  <unicode hex="0060"/>
  <outline>
    <contour>
      <point x="362.0" y="581.25" type="line"/>
      <point x="404.25" y="622.0" type="line"/>
      <point x="261.0" y="779.5" type="line"/>
      <point x="198.25" y="716.25" type="line"/>
    </contour>
  </outline>
</glyph>
<glyph name="a" format="2">
  <advance width="544.11"/>
  <unicode hex="0061"/>
  <outline>
    <contour>
      <point x="268.045" y="-13.335" type="curve" smooth="yes"/>
      <point x="322.715" y="-13.335"/>
      <point x="373.035" y="8.0"/>
      <point x="416.02" y="48.31" type="curve"/>
      <point x="420.36" y="27.98"/>
      <point x="426.36" y="8.995"/>
      <point x="434.36" y="-7.005" type="curve"/>
      <point x="523.47" y="6.01" type="line"/>
      <point x="494.485" y="73.655"/>
      <point x="494.79" y="135.705"/>
      <point x="512.46" y="207.05" type="curve" smooth="yes"/>
      <point x="585.44" y="504.985" type="line"/>
      <point x="534.375" y="526.69"/>
      <point x="473.27" y="532.015"/>
      <point x="437.63" y="532.015" type="curve" smooth="yes"/>
      <point x="242.99" y="532.015"/>
      <point x="98.67" y="390.33"/>
      <point x="98.67" y="186.71" type="curve" smooth="yes"/>
      <point x="98.67" y="57.735"/>
      <point x="167.295" y="-13.335"/>
    </contour>
    <contour>
      <point x="285.095" y="68.44" type="curve" smooth="yes"/>
      <point x="228.76" y="68.44"/>
      <point x="192.14" y="105.78"/>
      <point x="192.14" y="199.04" type="curve" smooth="yes"/>
      <point x="192.14" y="325.98"/>
      <point x="279.1" y="450.91"/>
      <point x="418.645" y="450.91" type="curve" smooth="yes"/>
      <point x="439.31" y="450.91"/>
      <point x="455.965" y="448.58"/>
      <point x="477.62" y="444.25" type="curve"/>
      <point x="429.31" y="249.01" type="line" smooth="yes"/>
      <point x="420.98" y="214.02"/>
      <point x="409.66" y="166.375"/>
      <point x="408.655" y="131.38" type="curve"/>
      <point x="370.68" y="90.08"/>
      <point x="331.39" y="68.44"/>
    </contour>
  </outline>
</glyph>
<glyph name="b" format="2">
  <advance width="540.42"/>
  <unicode hex="0062"/>
  <outline>
    <contour>
      <point x="234.105" y="-12.67" type="curve" smooth="yes"/>
      <point x="445.375" y="-12.67"/>
      <point x="571.75" y="155.62"/>
      <point x="571.75" y="331.31" type="curve" smooth="yes"/>
      <point x="571.75" y="449.645"/>
      <point x="516.41" y="531.68"/>
      <point x="398.385" y="531.68" type="curve" smooth="yes"/>
      <point x="358.74" y="531.68"/>
      <point x="319.11" y="520.025"/>
      <point x="283.465" y="498.715" type="curve"/>
      <point x="349.455" y="776.0" type="line"/>
      <point x="252.31" y="759.98" type="line"/>
      <point x="75.32" y="19.68" type="line"/>
      <point x="129.38" y="-5.6850000000000005"/>
      <point x="195.14" y="-12.67"/>
    </contour>
    <contour>
      <point x="246.44" y="68.435" type="curve" smooth="yes"/>
      <point x="220.43" y="68.435"/>
      <point x="203.465" y="71.43"/>
      <point x="182.475" y="77.09" type="curve"/>
      <point x="260.445" y="404.29" type="line"/>
      <point x="299.075" y="435.265"/>
      <point x="344.38" y="450.24"/>
      <point x="379.34" y="450.24" type="curve" smooth="yes"/>
      <point x="440.33" y="450.24"/>
      <point x="478.28" y="409.58"/>
      <point x="478.28" y="324.3" type="curve" smooth="yes"/>
      <point x="478.28" y="203.345"/>
      <point x="393.64" y="68.435"/>
    </contour>
  </outline>
</glyph>
<glyph name="c" format="2">
  <advance width="461.25"/>
  <unicode hex="0063"/>
  <outline>
    <contour>
      <point x="293.0" y="-12.5" type="curve" smooth="yes"/>
      <point x="359.75" y="-12.5"/>
      <point x="415.5" y="5.75"/>
      <point x="444.25" y="22.25" type="curve"/>
      <point x="436.25" y="96.25" type="line"/>
      <point x="415.75" y="83.5"/>
      <point x="361.5" y="64.0"/>
      <point x="309.0" y="64.0" type="curve" smooth="yes"/>
      <point x="222.5" y="64.0"/>
      <point x="187.25" y="116.0"/>
      <point x="187.25" y="199.0" type="curve" smooth="yes"/>
      <point x="187.25" y="339.5"/>
      <point x="273.25" y="455.25"/>
      <point x="404.5" y="455.25" type="curve" smooth="yes"/>
      <point x="435.75" y="455.25"/>
      <point x="464.75" y="449.75"/>
      <point x="494.75" y="438.0" type="curve"/>
      <point x="527.75" y="511.25" type="line"/>
      <point x="493.25" y="524.25"/>
      <point x="455.5" y="531.75"/>
      <point x="414.25" y="531.75" type="curve" smooth="yes"/>
      <point x="216.0" y="531.75"/>
      <point x="98.5" y="371.5"/>
      <point x="98.5" y="189.75" type="curve" smooth="yes"/>
      <point x="98.5" y="69.5"/>
      <point x="161.25" y="-12.5"/>
    </contour>
  </outline>
</glyph>
<glyph name="d" format="2">
  <advance width="556.75"/>
  <unicode hex="0064"/>
  <outline>
    <contour>
      <point x="268.38" y="-12.67" type="curve" smooth="yes"/>
      <point x="341.005" y="-12.67"/>
      <point x="390.995" y="20.634999999999998"/>
      <point x="420.015" y="48.31" type="curve"/>
      <point x="424.355" y="27.98"/>
      <point x="431.02" y="7.0"/>
      <point x="438.355" y="-7.005" type="curve"/>
      <point x="527.465" y="6.01" type="line"/>
      <point x="501.805" y="63.015"/>
      <point x="497.455" y="128.39"/>
      <point x="513.795" y="195.08" type="curve" smooth="yes"/>
      <point x="653.775" y="776.0" type="line"/>
      <point x="556.63" y="759.98" type="line"/>
      <point x="500.635" y="524.005" type="line"/>
      <point x="478.97" y="528.34"/>
      <point x="457.64" y="530.675"/>
      <point x="435.635" y="530.675" type="curve" smooth="yes"/>
      <point x="217.05" y="530.675"/>
      <point x="98.67" y="360.395"/>
      <point x="98.67" y="188.37" type="curve" smooth="yes"/>
      <point x="98.67" y="78.345"/>
      <point x="148.015" y="-12.67"/>
    </contour>
    <contour>
      <point x="284.1" y="69.105" type="curve" smooth="yes"/>
      <point x="216.46" y="69.105"/>
      <point x="192.14" y="124.065"/>
      <point x="192.14" y="198.04" type="curve" smooth="yes"/>
      <point x="192.14" y="316.66"/>
      <point x="268.785" y="449.57"/>
      <point x="423.965" y="449.57" type="curve" smooth="yes"/>
      <point x="445.985" y="449.57"/>
      <point x="463.28" y="447.905"/>
      <point x="481.61" y="444.905" type="curve"/>
      <point x="433.305" y="249.01" type="line" smooth="yes"/>
      <point x="422.98" y="207.37"/>
      <point x="413.655" y="165.045"/>
      <point x="412.65" y="130.715" type="curve"/>
      <point x="383.32" y="99.39"/>
      <point x="338.375" y="69.105"/>
    </contour>
  </outline>
</glyph>
<glyph name="e" format="2">
  <advance width="498.5"/>
  <unicode hex="0065"/>
  <outline>
    <contour>
      <point x="302.25" y="-12.5" type="curve" smooth="yes"/>
      <point x="360.5" y="-12.5"/>
      <point x="419.25" y="2.25"/>
      <point x="462.25" y="24.75" type="curve"/>
      <point x="454.25" y="99.0" type="line"/>
      <point x="413.0" y="75.0"/>
      <point x="364.25" y="63.5"/>
      <point x="319.0" y="63.5" type="curve" smooth="yes"/>
      <point x="211.5" y="63.5"/>
      <point x="185.5" y="109.5"/>
      <point x="183.25" y="202.0" type="curve"/>
      <point x="400.75" y="209.5"/>
      <point x="550.0" y="246.0"/>
      <point x="550.0" y="395.0" type="curve" smooth="yes"/>
      <point x="550.0" y="478.25"/>
      <point x="493.0" y="531.75"/>
      <point x="400.0" y="531.75" type="curve" smooth="yes"/>
      <point x="210.0" y="531.75"/>
      <point x="98.5" y="356.5"/>
      <point x="98.5" y="185.0" type="curve" smooth="yes"/>
      <point x="98.5" y="70.25"/>
      <point x="151.0" y="-12.5"/>
    </contour>
    <contour>
      <point x="191.75" y="271.75" type="curve"/>
      <point x="216.75" y="374.25"/>
      <point x="292.25" y="458.0"/>
      <point x="389.5" y="458.0" type="curve" smooth="yes"/>
      <point x="435.75" y="458.0"/>
      <point x="466.75" y="434.25"/>
      <point x="466.75" y="387.5" type="curve" smooth="yes"/>
      <point x="466.75" y="320.75"/>
      <point x="404.0" y="276.75"/>
    </contour>
  </outline>
</glyph>
<glyph name="f" format="2">
  <advance width="382.805"/>
  <unicode hex="0066"/>
  <outline>
    <contour>
      <point x="61.09" y="-189.0" type="line"/>
      <point x="128.415" y="-120.385"/>
      <point x="164.79" y="-31.36"/>
      <point x="200.48" y="117.745" type="curve" smooth="yes"/>
      <point x="278.105" y="441.905" type="line"/>
      <point x="453.105" y="441.905" type="line"/>
      <point x="471.135" y="520.015" type="line"/>
      <point x="297.13" y="520.015" type="line"/>
      <point x="308.45" y="564.635" type="line" smooth="yes"/>
      <point x="332.755" y="659.87"/>
      <point x="376.725" y="695.885"/>
      <point x="446.4" y="695.885" type="curve" smooth="yes"/>
      <point x="477.39" y="695.885"/>
      <point x="503.41" y="689.885"/>
      <point x="530.07" y="679.88" type="curve"/>
      <point x="567.435" y="753.655" type="line"/>
      <point x="541.11" y="764.655"/>
      <point x="504.75" y="776.0"/>
      <point x="455.06" y="776.0" type="curve" smooth="yes"/>
      <point x="339.955" y="776.0"/>
      <point x="251.635" y="719.27"/>
      <point x="215.31" y="566.635" type="curve" smooth="yes"/>
      <point x="98.01" y="78.1" type="line" smooth="yes"/>
      <point x="76.345" y="-13.239999999999998"/>
      <point x="46.635" y="-95.36"/>
      <point x="-21.37" y="-176.65" type="curve"/>
    </contour>
  </outline>
</glyph>
<glyph name="h" format="2">
  <advance width="551.7"/>
  <unicode hex="0068"/>
  <outline>
    <contour>
      <point x="78.645" y="0.0" type="line"/>
      <point x="171.785" y="0.0" type="line"/>
      <point x="274.105" y="433.93" type="line"/>
      <point x="303.745" y="443.25"/>
      <point x="337.375" y="450.24"/>
      <point x="369.68" y="450.24" type="curve" smooth="yes"/>
      <point x="427.995" y="450.24"/>
      <point x="467.93" y="423.57"/>
      <point x="467.93" y="357.98" type="curve" smooth="yes"/>
      <point x="467.93" y="323.01"/>
      <point x="457.94" y="283.045"/>
      <point x="449.615" y="246.08" type="curve" smooth="yes"/>
      <point x="390.93" y="0.0" type="line"/>
      <point x="484.07" y="0.0" type="line"/>
      <point x="548.08" y="266.045" type="line" smooth="yes"/>
      <point x="556.41" y="300.365"/>
      <point x="561.405" y="334.015"/>
      <point x="561.405" y="366.335" type="curve" smooth="yes"/>
      <point x="561.405" y="472.645"/>
      <point x="497.105" y="531.01"/>
      <point x="399.065" y="531.01" type="curve" smooth="yes"/>
      <point x="364.75" y="531.01"/>
      <point x="329.105" y="523.35"/>
      <point x="292.795" y="510.37" type="curve"/>
      <point x="357.12" y="776.0" type="line"/>
      <point x="259.975" y="759.98" type="line"/>
    </contour>
  </outline>
</glyph>
<glyph name="i" format="2">
  <advance width="251.08"/>
  <unicode hex="0069"/>
  <outline>
    <contour>
      <point x="78.645" y="0.0" type="line"/>
      <point x="171.45" y="0.0" type="line"/>
      <point x="296.785" y="520.015" type="line"/>
      <point x="203.645" y="520.015" type="line"/>
    </contour>
    <contour>
      <point x="279.36" y="613.94" type="curve" smooth="yes"/>
      <point x="311.75" y="613.94"/>
      <point x="345.785" y="640.985"/>
      <point x="345.785" y="681.025" type="curve" smooth="yes"/>
      <point x="345.785" y="715.4"/>
      <point x="321.745" y="736.075"/>
      <point x="290.72" y="736.075" type="curve" smooth="yes"/>
      <point x="257.665" y="736.075"/>
      <point x="225.625" y="708.365"/>
      <point x="225.625" y="666.995" type="curve" smooth="yes"/>
      <point x="225.625" y="633.285"/>
      <point x="248.335" y="613.94"/>
    </contour>
  </outline>
</glyph>
<glyph name="j" format="2">
  <advance width="248.75"/>
  <unicode hex="006A"/>
  <outline>
    <contour>
      <point x="-18.75" y="-187.25" type="curve" smooth="yes"/>
      <point x="101.0" y="-187.25"/>
      <point x="149.75" y="-116.75"/>
      <point x="183.25" y="25.75" type="curve" smooth="yes"/>
      <point x="301.5" y="519.25" type="line"/>
      <point x="215.5" y="519.25" type="line"/>
      <point x="96.0" y="17.75" type="line" smooth="yes"/>
      <point x="78.25" y="-60.0"/>
      <point x="50.0" y="-113.0"/>
      <point x="-15.0" y="-113.0" type="curve" smooth="yes"/>
      <point x="-39.5" y="-113.0"/>
      <point x="-57.0" y="-108.25"/>
      <point x="-77.5" y="-98.25" type="curve"/>
      <point x="-98.25" y="-169.0" type="line"/>
      <point x="-79.75" y="-178.5"/>
      <point x="-52.75" y="-187.25"/>
    </contour>
    <contour>
      <point x="290.25" y="617.0" type="curve" smooth="yes"/>
      <point x="319.75" y="617.0"/>
      <point x="352.0" y="641.75"/>
      <point x="352.0" y="679.75" type="curve" smooth="yes"/>
      <point x="352.0" y="712.0"/>
      <point x="330.0" y="732.25"/>
      <point x="300.25" y="732.25" type="curve" smooth="yes"/>
      <point x="270.0" y="732.25"/>
      <point x="240.0" y="706.75"/>
      <point x="240.0" y="667.25" type="curve" smooth="yes"/>
      <point x="240.0" y="635.75"/>
      <point x="260.5" y="617.0"/>
    </contour>
  </outline>
</glyph>
<glyph name="k" format="2">
  <advance width="519.77"/>
  <unicode hex="006B"/>
  <outline>
    <contour>
      <point x="78.645" y="0.0" type="line"/>
      <point x="171.45" y="0.0" type="line"/>
      <point x="234.1" y="257.265" type="line"/>
      <point x="304.71" y="200.255"/>
      <point x="373.665" y="105.91"/>
      <point x="420.275" y="0.0" type="curve"/>
      <point x="522.435" y="0.0" type="line"/>
      <point x="490.775" y="90.0"/>
      <point x="414.81" y="215.65"/>
      <point x="334.87" y="283.985" type="curve"/>
      <point x="411.605" y="339.07"/>
      <point x="534.82" y="452.31"/>
      <point x="591.2" y="520.015" type="curve"/>
      <point x="482.385" y="520.015" type="line"/>
      <point x="437.37" y="469.335"/>
      <point x="336.105" y="374.73"/>
      <point x="246.465" y="310.73" type="curve"/>
      <point x="358.45" y="776.0" type="line"/>
      <point x="261.305" y="759.98" type="line"/>
    </contour>
  </outline>
</glyph>
<glyph name="l" format="2">
  <advance width="278.25"/>
  <unicode hex="006C"/>
  <outline>
    <contour>
      <point x="251.25" y="-9.25" type="curve"/>
      <point x="270.0" y="64.25" type="line"/>
      <point x="165.75" y="84.25"/>
      <point x="188.0" y="151.25"/>
      <point x="209.5" y="241.25" type="curve" smooth="yes"/>
      <point x="337.25" y="776.0" type="line"/>
      <point x="248.25" y="761.0" type="line"/>
      <point x="120.5" y="228.5" type="line" smooth="yes"/>
      <point x="91.5" y="105.25"/>
      <point x="96.5" y="4.25"/>
    </contour>
  </outline>
</glyph>
<glyph name="m" format="2">
  <advance width="829.375"/>
  <unicode hex="006D"/>
  <outline>
    <contour>
      <point x="78.645" y="0.0" type="line"/>
      <point x="171.785" y="0.0" type="line"/>
      <point x="276.765" y="437.59" type="line"/>
      <point x="302.75" y="444.25"/>
      <point x="332.04" y="448.91"/>
      <point x="359.025" y="448.91" type="curve" smooth="yes"/>
      <point x="415.345" y="448.91"/>
      <point x="450.29" y="424.225"/>
      <point x="450.29" y="355.97" type="curve" smooth="yes"/>
      <point x="450.29" y="321.0"/>
      <point x="440.3" y="281.705"/>
      <point x="432.31" y="246.08" type="curve" smooth="yes"/>
      <point x="373.625" y="0.0" type="line"/>
      <point x="466.765" y="0.0" type="line"/>
      <point x="530.775" y="266.045" type="line" smooth="yes"/>
      <point x="539.105" y="299.695"/>
      <point x="544.1" y="333.345"/>
      <point x="544.1" y="364.66" type="curve" smooth="yes"/>
      <point x="544.1" y="381.305"/>
      <point x="543.105" y="396.29"/>
      <point x="539.44" y="411.28" type="curve"/>
      <point x="587.37" y="441.565"/>
      <point x="626.005" y="448.91"/>
      <point x="654.005" y="448.91" type="curve" smooth="yes"/>
      <point x="710.325" y="448.91"/>
      <point x="745.27" y="424.225"/>
      <point x="745.27" y="355.97" type="curve" smooth="yes"/>
      <point x="745.27" y="321.0"/>
      <point x="735.28" y="281.705"/>
      <point x="727.29" y="246.08" type="curve" smooth="yes"/>
      <point x="668.605" y="0.0" type="line"/>
      <point x="761.745" y="0.0" type="line"/>
      <point x="825.755" y="266.045" type="line" smooth="yes"/>
      <point x="834.085" y="299.695"/>
      <point x="839.08" y="333.345"/>
      <point x="839.08" y="364.66" type="curve" smooth="yes"/>
      <point x="839.08" y="484.29"/>
      <point x="772.78" y="530.685"/>
      <point x="671.055" y="530.685" type="curve" smooth="yes"/>
      <point x="616.695" y="530.685"/>
      <point x="569.035" y="515.34"/>
      <point x="508.065" y="479.36" type="curve"/>
      <point x="476.39" y="516.68"/>
      <point x="430.74" y="530.685"/>
      <point x="373.06" y="530.685" type="curve" smooth="yes"/>
      <point x="302.305" y="530.685"/>
      <point x="239.66" y="513.34"/>
      <point x="198.315" y="500.005" type="curve"/>
    </contour>
  </outline>
</glyph>
<glyph name="n" format="2">
  <advance width="553.035"/>
  <unicode hex="006E"/>
  <outline>
    <contour>
      <point x="78.645" y="0.0" type="line"/>
      <point x="171.785" y="0.0" type="line"/>
      <point x="276.765" y="437.59" type="line"/>
      <point x="306.075" y="444.25"/>
      <point x="337.38" y="448.91"/>
      <point x="367.02" y="448.91" type="curve" smooth="yes"/>
      <point x="490.91" y="448.91"/>
      <point x="476.255" y="359.635"/>
      <point x="450.28" y="246.08" type="curve" smooth="yes"/>
      <point x="391.595" y="0.0" type="line"/>
      <point x="484.735" y="0.0" type="line"/>
      <point x="548.745" y="266.045" type="line" smooth="yes"/>
      <point x="586.415" y="419.72"/>
      <point x="549.69" y="530.685"/>
      <point x="382.385" y="530.685" type="curve" smooth="yes"/>
      <point x="308.97" y="530.685"/>
      <point x="248.305" y="514.67"/>
      <point x="198.315" y="500.005" type="curve"/>
    </contour>
  </outline>
</glyph>
<glyph name="o" format="2">
  <advance width="542.08"/>
  <unicode hex="006F"/>
  <outline>
    <contour>
      <point x="284.06" y="-12.67" type="curve" smooth="yes"/>
      <point x="435.835" y="-12.67"/>
      <point x="573.41" y="124.1"/>
      <point x="573.41" y="344.28" type="curve" smooth="yes"/>
      <point x="573.41" y="461.97"/>
      <point x="496.765" y="532.02"/>
      <point x="388.02" y="532.02" type="curve" smooth="yes"/>
      <point x="238.255" y="532.02"/>
      <point x="98.67" y="395.25"/>
      <point x="98.67" y="175.735" type="curve" smooth="yes"/>
      <point x="98.67" y="57.38"/>
      <point x="175.315" y="-12.67"/>
    </contour>
    <contour>
      <point x="291.41" y="68.775" type="curve" smooth="yes"/>
      <point x="232.085" y="68.775"/>
      <point x="192.14" y="109.105"/>
      <point x="192.14" y="183.42000000000002" type="curve" smooth="yes"/>
      <point x="192.14" y="347.55"/>
      <point x="288.015" y="450.575"/>
      <point x="380.67" y="450.575" type="curve" smooth="yes"/>
      <point x="439.995" y="450.575"/>
      <point x="479.94" y="410.245"/>
      <point x="479.94" y="335.93" type="curve" smooth="yes"/>
      <point x="479.94" y="171.8"/>
      <point x="384.065" y="68.775"/>
    </contour>
  </outline>
</glyph>
<glyph name="p" format="2">
  <advance width="533.75"/>
  <unicode hex="0070"/>
  <outline>
    <contour>
      <point x="34.75" y="-185.0" type="line"/>
      <point x="121.25" y="-185.0" type="line"/>
      <point x="165.5" y="-1.0" type="line"/>
      <point x="187.75" y="-6.5"/>
      <point x="211.25" y="-9.25"/>
      <point x="236.5" y="-9.25" type="curve" smooth="yes"/>
      <point x="441.75" y="-9.25"/>
      <point x="565.25" y="151.75"/>
      <point x="565.25" y="334.5" type="curve" smooth="yes"/>
      <point x="565.25" y="459.0"/>
      <point x="504.0" y="531.25"/>
      <point x="375.25" y="531.25" type="curve" smooth="yes"/>
      <point x="314.75" y="531.25"/>
      <point x="253.75" y="517.75"/>
      <point x="199.25" y="498.75" type="curve"/>
    </contour>
    <contour>
      <point x="242.0" y="66.25" type="curve" smooth="yes"/>
      <point x="222.5" y="66.25"/>
      <point x="203.25" y="68.75"/>
      <point x="184.25" y="74.0" type="curve"/>
      <point x="272.25" y="445.25" type="line"/>
      <point x="301.75" y="453.0"/>
      <point x="330.75" y="458.0"/>
      <point x="358.5" y="458.0" type="curve" smooth="yes"/>
      <point x="440.25" y="458.0"/>
      <point x="478.75" y="412.75"/>
      <point x="478.75" y="324.25" type="curve" smooth="yes"/>
      <point x="478.75" y="193.75"/>
      <point x="392.5" y="66.25"/>
    </contour>
  </outline>
</glyph>
<glyph name="q" format="2">
  <advance width="550.39"/>
  <unicode hex="0071"/>
  <outline>
    <contour>
      <point x="333.635" y="-185.0" type="line"/>
      <point x="426.775" y="-185.0" type="line"/>
      <point x="591.77" y="501.66" type="line"/>
      <point x="551.375" y="523.005"/>
      <point x="498.015" y="532.015"/>
      <point x="460.62" y="532.015" type="curve" smooth="yes"/>
      <point x="218.415" y="532.015"/>
      <point x="98.67" y="367.445"/>
      <point x="98.67" y="185.38" type="curve" smooth="yes"/>
      <point x="98.67" y="75.32"/>
      <point x="154.72" y="-11.33"/>
      <point x="268.355" y="-11.33" type="curve" smooth="yes"/>
      <point x="310.325" y="-11.33"/>
      <point x="350.3" y="-2.005"/>
      <point x="380.965" y="13.655" type="curve"/>
    </contour>
    <contour>
      <point x="291.735" y="68.11500000000001" type="curve" smooth="yes"/>
      <point x="211.825" y="68.11500000000001"/>
      <point x="192.14" y="132.685"/>
      <point x="192.14" y="195.05" type="curve" smooth="yes"/>
      <point x="192.14" y="340.955"/>
      <point x="289.39" y="452.24"/>
      <point x="440.285" y="452.24" type="curve" smooth="yes"/>
      <point x="453.955" y="452.24"/>
      <point x="470.95" y="448.58"/>
      <point x="485.28" y="445.58" type="curve"/>
      <point x="403.32" y="106.415" type="line"/>
      <point x="370.99" y="82.095"/>
      <point x="330.7" y="68.11500000000001"/>
    </contour>
  </outline>
</glyph>
<glyph name="r" format="2">
  <advance width="386.1"/>
  <unicode hex="0072"/>
  <outline>
    <contour>
      <point x="78.645" y="0.0" type="line"/>
      <point x="171.785" y="0.0" type="line"/>
      <point x="276.765" y="436.585" type="line"/>
      <point x="304.4" y="444.575"/>
      <point x="336.05" y="449.905"/>
      <point x="365.69" y="449.905" type="curve" smooth="yes"/>
      <point x="400.73" y="449.905"/>
      <point x="425.05" y="444.9"/>
      <point x="451.385" y="437.235" type="curve"/>
      <point x="477.43" y="516.67" type="line"/>
      <point x="450.42" y="527.01"/>
      <point x="416.06" y="531.68"/>
      <point x="385.055" y="531.68" type="curve" smooth="yes"/>
      <point x="316.67" y="531.68"/>
      <point x="250.325" y="515.005"/>
      <point x="197.315" y="495.34" type="curve"/>
    </contour>
  </outline>
</glyph>
<glyph name="s" format="2">
  <advance width="427.805"/>
  <unicode hex="0073"/>
  <outline>
    <contour>
      <point x="212.075" y="-12.67" type="curve" smooth="yes"/>
      <point x="334.855" y="-12.67"/>
      <point x="420.815" y="49.06"/>
      <point x="420.815" y="156.005" type="curve" smooth="yes"/>
      <point x="420.815" y="234.02"/>
      <point x="372.52" y="262.69"/>
      <point x="303.435" y="297.395" type="curve" smooth="yes"/>
      <point x="261.78" y="318.39"/>
      <point x="227.145" y="335.035"/>
      <point x="227.145" y="376.0" type="curve" smooth="yes"/>
      <point x="227.145" y="433.955"/>
      <point x="281.115" y="453.255"/>
      <point x="335.735" y="453.255" type="curve" smooth="yes"/>
      <point x="375.41" y="453.255"/>
      <point x="416.76" y="442.575"/>
      <point x="444.76" y="429.57" type="curve"/>
      <point x="479.135" y="505.325" type="line"/>
      <point x="442.14" y="521.665"/>
      <point x="394.115" y="532.685"/>
      <point x="341.735" y="532.685" type="curve" smooth="yes"/>
      <point x="225.315" y="532.685"/>
      <point x="135.335" y="479.65"/>
      <point x="135.335" y="366.995" type="curve" smooth="yes"/>
      <point x="135.335" y="281.67"/>
      <point x="197.315" y="251.655"/>
      <point x="255.67" y="223.32" type="curve" smooth="yes"/>
      <point x="301.7" y="201.31"/>
      <point x="329.335" y="183.66"/>
      <point x="329.335" y="144.685" type="curve" smooth="yes"/>
      <point x="329.335" y="93.755"/>
      <point x="284.395" y="67.43"/>
      <point x="216.395" y="67.43" type="curve" smooth="yes"/>
      <point x="163.025" y="67.43"/>
      <point x="124.665" y="81.795"/>
      <point x="84.375" y="103.44" type="curve"/>
      <point x="48.67" y="26.015" type="line"/>
      <point x="85.64" y="5.365"/>
      <point x="142.32" y="-12.67"/>
    </contour>
  </outline>
</glyph>
<glyph name="v" format="2">
  <advance width="485.485"/>
  <unicode hex="0076"/>
  <outline>
    <contour>
      <point x="198.34" y="0.0" type="curve"/>
      <point x="282.44" y="0.0" type="line"/>
      <point x="394.42" y="131.29"/>
      <point x="527.79" y="344.315"/>
      <point x="585.485" y="520.015" type="curve"/>
      <point x="489.995" y="520.015" type="line"/>
      <point x="450.015" y="391.07"/>
      <point x="339.725" y="201.47"/>
      <point x="266.425" y="103.18" type="curve"/>
      <point x="241.455" y="213.81"/>
      <point x="224.81" y="389.745"/>
      <point x="222.475" y="520.015" type="curve"/>
      <point x="128.325" y="520.015" type="line"/>
      <point x="134.005" y="326.305"/>
      <point x="164.67" y="142.31"/>
    </contour>
  </outline>
</glyph>
<glyph name="w" format="2">
  <advance width="776.25"/>
  <unicode hex="0077"/>
  <outline>
    <contour>
      <point x="180.25" y="0.0" type="curve"/>
      <point x="260.25" y="0.0" type="line"/>
      <point x="331.5" y="91.5"/>
      <point x="422.25" y="249.25"/>
      <point x="474.5" y="370.25" type="curve"/>
      <point x="477.5" y="246.75"/>
      <point x="489.75" y="114.25"/>
      <point x="503.5" y="0.0" type="curve"/>
      <point x="583.5" y="0.0" type="line"/>
      <point x="682.5" y="115.0"/>
      <point x="817.25" y="337.5"/>
      <point x="876.25" y="519.25" type="curve"/>
      <point x="788.75" y="519.25" type="line"/>
      <point x="750.75" y="393.0"/>
      <point x="636.0" y="180.0"/>
      <point x="570.75" y="95.0" type="curve"/>
      <point x="554.0" y="225.0"/>
      <point x="543.75" y="397.0"/>
      <point x="543.75" y="519.25" type="curve"/>
      <point x="462.5" y="519.25" type="line"/>
      <point x="415.75" y="384.25"/>
      <point x="327.25" y="212.25"/>
      <point x="246.0" y="95.0" type="curve"/>
      <point x="227.75" y="200.0"/>
      <point x="216.75" y="390.25"/>
      <point x="214.5" y="519.25" type="curve"/>
      <point x="130.0" y="519.25" type="line"/>
      <point x="133.5" y="323.0"/>
      <point x="154.0" y="137.25"/>
    </contour>
  </outline>
</glyph>
<glyph name="x" format="2">
  <advance width="476.25"/>
  <unicode hex="0078"/>
  <outline>
    <contour>
      <point x="14.0" y="0.0" type="line"/>
      <point x="112.25" y="0.0" type="line"/>
      <point x="295.5" y="208.75" type="line"/>
      <point x="326.0" y="148.5"/>
      <point x="365.75" y="62.0"/>
      <point x="385.25" y="0.0" type="curve"/>
      <point x="473.0" y="0.0" type="line"/>
      <point x="444.75" y="90.0"/>
      <point x="394.5" y="187.25"/>
      <point x="355.0" y="262.5" type="curve"/>
      <point x="426.25" y="343.5"/>
      <point x="500.25" y="434.0"/>
      <point x="557.75" y="519.25" type="curve"/>
      <point x="466.5" y="519.25" type="line"/>
      <point x="431.75" y="463.5"/>
      <point x="373.5" y="390.75"/>
      <point x="316.5" y="321.5" type="curve"/>
      <point x="221.75" y="519.25" type="line"/>
      <point x="127.0" y="519.25" type="line"/>
      <point x="255.25" y="270.25" type="line"/>
    </contour>
  </outline>
</glyph>
<glyph name="y" format="2">
  <advance width="478.8"/>
  <unicode hex="0079"/>
  <outline>
    <contour>
      <point x="43.43" y="-186.995" type="curve" smooth="yes"/>
      <point x="163.175" y="-186.995"/>
      <point x="250.815" y="-102.91"/>
      <point x="342.765" y="34.01" type="curve" smooth="yes"/>
      <point x="464.375" y="212.915"/>
      <point x="537.05" y="415.435"/>
      <point x="572.15" y="520.015" type="curve"/>
      <point x="476.66" y="520.015" type="line"/>
      <point x="448.955" y="420.91"/>
      <point x="384.335" y="243.395"/>
      <point x="283.095" y="84.885" type="curve"/>
      <point x="244.485" y="226.105"/>
      <point x="227.83" y="400.385"/>
      <point x="223.5" y="520.015" type="curve"/>
      <point x="127.025" y="520.015" type="line"/>
      <point x="134.035" y="338.285"/>
      <point x="166.365" y="156.995"/>
      <point x="215.33" y="-4.6" type="curve"/>
      <point x="169.375" y="-71.56"/>
      <point x="109.415" y="-107.55"/>
      <point x="48.45" y="-107.55" type="curve" smooth="yes"/>
      <point x="23.435000000000002" y="-107.55"/>
      <point x="3.775000000000002" y="-102.215"/>
      <point x="-17.24" y="-91.88" type="curve"/>
      <point x="-47.61" y="-166.985" type="line"/>
      <point x="-17.945" y="-182.65"/>
      <point x="11.725000000000001" y="-186.995"/>
    </contour>
  </outline>
</glyph>
<glyph name="z" format="2">
  <advance width="452.5"/>
  <unicode hex="007A"/>
  <outline>
    <contour>
      <point x="45.0" y="0.0" type="line"/>
      <point x="428.5" y="0.0" type="line"/>
      <point x="445.0" y="72.5" type="line"/>
      <point x="162.75" y="72.5" type="line"/>
      <point x="235.25" y="172.5"/>
      <point x="453.5" y="386.0"/>
      <point x="532.5" y="456.25" type="curve"/>
      <point x="547.5" y="519.25" type="line"/>
      <point x="180.75" y="519.25" type="line"/>
      <point x="164.25" y="446.75" type="line"/>
      <point x="419.5" y="446.75" type="line"/>
      <point x="325.25" y="362.75"/>
      <point x="139.25" y="177.75"/>
      <point x="58.5" y="56.25" type="curve"/>
    </contour>
  </outline>
</glyph>
<glyph name="braceleft" format="2">
  <advance width="321.5"/>
  <unicode hex="007B"/>
  <outline>
    <contour>
      <point x="261.75" y="-192.5" type="curve"/>
      <point x="279.5" y="-125.25" type="line"/>
      <point x="187.5" y="-125.25"/>
      <point x="184.0" y="-83.25"/>
      <point x="199.25" y="-24.5" type="curve" smooth="yes"/>
      <point x="237.0" y="132.5" type="line" smooth="yes"/>
      <point x="251.0" y="193.25"/>
      <point x="259.5" y="255.0"/>
      <point x="202.0" y="287.0" type="curve"/>
      <point x="269.75" y="315.25"/>
      <point x="293.25" y="373.25"/>
      <point x="320.5" y="485.0" type="curve" smooth="yes"/>
      <point x="350.0" y="606.75" type="line" smooth="yes"/>
      <point x="370.25" y="690.5"/>
      <point x="408.0" y="708.25"/>
      <point x="480.0" y="708.25" type="curve"/>
      <point x="497.0" y="775.5" type="line"/>
      <point x="329.0" y="775.5"/>
      <point x="299.75" y="715.75"/>
      <point x="263.75" y="571.5" type="curve" smooth="yes"/>
      <point x="235.25" y="455.75" type="line" smooth="yes"/>
      <point x="221.5" y="400.0"/>
      <point x="195.75" y="324.25"/>
      <point x="117.25" y="324.25" type="curve"/>
      <point x="101.0" y="258.0" type="line"/>
      <point x="174.0" y="253.5"/>
      <point x="175.25" y="196.5"/>
      <point x="160.0" y="133.25" type="curve" smooth="yes"/>
      <point x="124.25" y="-13.25" type="line" smooth="yes"/>
      <point x="96.0" y="-127.0"/>
      <point x="122.5" y="-192.5"/>
    </contour>
  </outline>
</glyph>
<glyph name="bar" format="2">
  <advance width="280.725"/>
  <unicode hex="007C"/>
  <outline>
    <contour>
      <point x="48.62" y="-185.0" type="line"/>
      <point x="135.755" y="-185.0" type="line"/>
      <point x="368.755" y="783.0" type="line"/>
      <point x="281.285" y="783.0" type="line"/>
    </contour>
  </outline>
</glyph>
<glyph name="braceright" format="2">
  <advance width="327.11"/>
  <unicode hex="007D"/>
  <outline>
    <contour>
      <point x="-29.055" y="-191.65" type="line"/>
      <point x="141.325" y="-191.65"/>
      <point x="174.74" y="-131.985"/>
      <point x="210.06" y="9.629999999999999" type="curve" smooth="yes"/>
      <point x="239.41" y="129.375" type="line" smooth="yes"/>
      <point x="253.075" y="185.04"/>
      <point x="279.42" y="256.625"/>
      <point x="358.43" y="256.625" type="curve"/>
      <point x="376.125" y="328.74" type="line"/>
      <point x="302.785" y="332.73"/>
      <point x="299.41" y="386.67"/>
      <point x="314.405" y="450.005" type="curve" smooth="yes"/>
      <point x="349.39" y="593.955" type="line" smooth="yes"/>
      <point x="378.4" y="712.695"/>
      <point x="350.04" y="776.35"/>
      <point x="205.94" y="776.35" type="curve"/>
      <point x="186.915" y="703.235" type="line"/>
      <point x="276.905" y="703.235"/>
      <point x="283.25" y="666.615"/>
      <point x="267.25" y="604.61" type="curve" smooth="yes"/>
      <point x="230.265" y="450.33" type="line" smooth="yes"/>
      <point x="216.265" y="389.325"/>
      <point x="208.275" y="328.34"/>
      <point x="267.305" y="296.34" type="curve"/>
      <point x="197.26" y="267.665"/>
      <point x="173.93" y="210.685"/>
      <point x="147.955" y="103.78" type="curve" smooth="yes"/>
      <point x="118.285" y="-19.244999999999997" type="line" smooth="yes"/>
      <point x="98.3" y="-99.845"/>
      <point x="63.68" y="-118.535"/>
      <point x="-10.695" y="-118.535" type="curve"/>
    </contour>
  </outline>
</glyph>
<glyph name="asciitilde" format="2">
  <advance width="565.0"/>
  <unicode hex="007E"/>
  <outline>
    <contour>
      <point x="428.0" y="206.5" type="curve" smooth="yes"/>
      <point x="522.25" y="206.5"/>
      <point x="570.0" y="287.75"/>
      <point x="590.5" y="345.0" type="curve"/>
      <point x="530.75" y="364.0" type="line"/>
      <point x="516.75" y="336.0"/>
      <point x="490.75" y="284.25"/>
      <point x="443.5" y="284.25" type="curve" smooth="yes"/>
      <point x="374.25" y="284.25"/>
      <point x="347.75" y="373.0"/>
      <point x="261.0" y="373.0" type="curve" smooth="yes"/>
      <point x="169.0" y="373.0"/>
      <point x="121.0" y="291.25"/>
      <point x="100.0" y="233.75" type="curve"/>
      <point x="159.75" y="214.75" type="line"/>
      <point x="173.75" y="242.75"/>
      <point x="199.75" y="295.25"/>
      <point x="247.0" y="295.25" type="curve" smooth="yes"/>
      <point x="314.0" y="295.25"/>
      <point x="341.25" y="206.5"/>
    </contour>
  </outline>
</glyph>
<glyph name="exclamdown" format="2">
  <advance width="275.715"/>
  <unicode hex="00A1"/>
  <outline>
    <contour>
      <point x="71.9" y="-181.65" type="line"/>
      <point x="171.715" y="-181.65" type="line"/>
      <point x="216.71" y="6.66" type="line" smooth="yes"/>
      <point x="242.375" y="117.985"/>
      <point x="255.37" y="204.99"/>
      <point x="265.705" y="295.67" type="curve"/>
      <point x="203.575" y="295.67" type="line"/>
      <point x="174.225" y="218.29"/>
      <point x="133.255" y="72.765"/>
      <point x="116.895" y="7.325" type="curve" smooth="yes"/>
    </contour>
    <contour>
      <point x="264.28" y="389.56" type="curve" smooth="yes"/>
      <point x="305.305" y="389.56"/>
      <point x="335.685" y="424.91"/>
      <point x="335.685" y="464.63" type="curve" smooth="yes"/>
      <point x="335.685" y="499.68"/>
      <point x="313.985" y="523.685"/>
      <point x="274.965" y="523.685" type="curve" smooth="yes"/>
      <point x="233.94" y="523.685"/>
      <point x="203.56" y="488.335"/>
      <point x="203.56" y="448.615" type="curve" smooth="yes"/>
      <point x="203.56" y="413.565"/>
      <point x="225.26" y="389.56"/>
    </contour>
  </outline>
</glyph>
<glyph name="cent" format="2">
  <advance width="565.34"/>
  <unicode hex="00A2"/>
  <outline>
    <contour>
      <point x="244.275" y="-109.0" type="line"/>
      <point x="331.08" y="-109.0" type="line"/>
      <point x="364.745" y="30.33" type="line"/>
      <point x="417.38" y="31.67"/>
      <point x="467.36" y="47.655"/>
      <point x="493.725" y="60.33" type="curve"/>
      <point x="487.38" y="138.765" type="line"/>
      <point x="451.715" y="121.11"/>
      <point x="407.38" y="109.44"/>
      <point x="367.05" y="109.44" type="curve" smooth="yes"/>
      <point x="301.095" y="109.44"/>
      <point x="243.475" y="141.41"/>
      <point x="243.475" y="226.365" type="curve" smooth="yes"/>
      <point x="243.475" y="370.98"/>
      <point x="335.74" y="474.23"/>
      <point x="454.005" y="474.23" type="curve" smooth="yes"/>
      <point x="487.0" y="474.23"/>
      <point x="521.665" y="467.23"/>
      <point x="556.325" y="449.56" type="curve"/>
      <point x="590.365" y="525.99" type="line"/>
      <point x="559.375" y="540.99"/>
      <point x="520.735" y="550.325"/>
      <point x="489.41" y="552.335" type="curve"/>
      <point x="523.41" y="693.0" type="line"/>
      <point x="436.605" y="693.0" type="line"/>
      <point x="401.605" y="549.665" type="line"/>
      <point x="245.675" y="518.995"/>
      <point x="147.995" y="381.39"/>
      <point x="147.995" y="225.355" type="curve" smooth="yes"/>
      <point x="147.995" y="131.665"/>
      <point x="187.675" y="61.695"/>
      <point x="279.945" y="37.685" type="curve"/>
    </contour>
  </outline>
</glyph>
<glyph name="sterling" format="2">
  <advance width="565.34"/>
  <unicode hex="00A3"/>
  <outline>
    <contour>
      <point x="120.625" y="0.0" type="curve"/>
      <point x="514.725" y="0.0" type="line"/>
      <point x="534.085" y="79.78" type="line"/>
      <point x="244.465" y="79.78" type="line"/>
      <point x="273.435" y="151.045"/>
      <point x="298.42" y="234.31"/>
      <point x="312.415" y="296.605" type="curve"/>
      <point x="501.05" y="296.605" type="line"/>
      <point x="520.075" y="374.05" type="line"/>
      <point x="330.775" y="374.05" type="line"/>
      <point x="350.765" y="457.67" type="line" smooth="yes"/>
      <point x="382.08" y="589.26"/>
      <point x="436.73" y="623.895"/>
      <point x="511.02" y="623.895" type="curve" smooth="yes"/>
      <point x="549.335" y="623.895"/>
      <point x="581.665" y="615.895"/>
      <point x="612.67" y="598.9" type="curve"/>
      <point x="653.385" y="671.66" type="line"/>
      <point x="616.37" y="692.665"/>
      <point x="569.36" y="706.0"/>
      <point x="519.335" y="706.0" type="curve" smooth="yes"/>
      <point x="399.345" y="706.0"/>
      <point x="305.645" y="649.005"/>
      <point x="260.65" y="467.39" type="curve" smooth="yes"/>
      <point x="237.645" y="374.05" type="line"/>
      <point x="144.66" y="374.05" type="line"/>
      <point x="126.3" y="296.605" type="line"/>
      <point x="219.285" y="296.605" type="line"/>
      <point x="197.29" y="200.655"/>
      <point x="159.98" y="96.36"/>
    </contour>
  </outline>
</glyph>
<glyph name="currency" format="2">
  <advance width="565.34"/>
  <unicode hex="00A4"/>
  <outline>
    <contour>
      <point x="185.34" y="108.635" type="line"/>
      <point x="260.67" y="184.625" type="line"/>
      <point x="291.0" y="165.64"/>
      <point x="326.32" y="155.32"/>
      <point x="364.64" y="155.32" type="curve" smooth="yes"/>
      <point x="403.63" y="155.32"/>
      <point x="438.28" y="165.64"/>
      <point x="468.275" y="184.625" type="curve"/>
      <point x="543.605" y="108.635" type="line"/>
      <point x="601.695" y="166.72" type="line"/>
      <point x="528.365" y="240.375" type="line"/>
      <point x="547.685" y="269.7"/>
      <point x="558.675" y="306.35"/>
      <point x="558.675" y="347.0" type="curve" smooth="yes"/>
      <point x="558.675" y="387.65"/>
      <point x="547.685" y="424.3"/>
      <point x="528.365" y="453.625" type="curve"/>
      <point x="601.695" y="527.28" type="line"/>
      <point x="543.94" y="585.03" type="line"/>
      <point x="468.61" y="509.375" type="line"/>
      <point x="438.28" y="528.36"/>
      <point x="402.96" y="538.68"/>
      <point x="364.64" y="538.68" type="curve" smooth="yes"/>
      <point x="325.65" y="538.68"/>
      <point x="291.0" y="528.36"/>
      <point x="261.005" y="509.375" type="curve"/>
      <point x="185.675" y="585.365" type="line"/>
      <point x="127.585" y="527.28" type="line"/>
      <point x="200.915" y="453.625" type="line"/>
      <point x="181.595" y="424.3"/>
      <point x="170.605" y="387.65"/>
      <point x="170.605" y="347.0" type="curve" smooth="yes"/>
      <point x="170.605" y="306.35"/>
      <point x="181.595" y="269.7"/>
      <point x="200.915" y="240.375" type="curve"/>
      <point x="127.585" y="166.385" type="line"/>
    </contour>
    <contour>
      <point x="364.64" y="227.415" type="curve" smooth="yes"/>
      <point x="301.685" y="227.415"/>
      <point x="251.385" y="274.04"/>
      <point x="251.385" y="347.0" type="curve" smooth="yes"/>
      <point x="251.385" y="419.96"/>
      <point x="301.685" y="466.585"/>
      <point x="364.64" y="466.585" type="curve" smooth="yes"/>
      <point x="427.595" y="466.585"/>
      <point x="477.895" y="419.96"/>
      <point x="477.895" y="347.0" type="curve" smooth="yes"/>
      <point x="477.895" y="274.04"/>
      <point x="427.595" y="227.415"/>
    </contour>
  </outline>
</glyph>
<glyph name="yen" format="2">
  <advance width="565.34"/>
  <unicode hex="00A5"/>
  <outline>
    <contour>
      <point x="228.6" y="0.0" type="line"/>
      <point x="324.085" y="0.0" type="line"/>
      <point x="351.75" y="113.66" type="line"/>
      <point x="512.38" y="113.66" type="line"/>
      <point x="528.73" y="180.73" type="line"/>
      <point x="368.1" y="180.73" type="line"/>
      <point x="392.08" y="282.98" type="line"/>
      <point x="552.71" y="282.98" type="line"/>
      <point x="569.06" y="350.05" type="line"/>
      <point x="431.485" y="350.05" type="line"/>
      <point x="541.105" y="469.695"/>
      <point x="622.43" y="579.005"/>
      <point x="704.08" y="693.0" type="curve"/>
      <point x="605.92" y="693.0" type="line"/>
      <point x="532.61" y="589.01"/>
      <point x="456.325" y="491.07"/>
      <point x="369.705" y="391.765" type="curve"/>
      <point x="329.06" y="494.085"/>
      <point x="299.74" y="586.03"/>
      <point x="277.75" y="693.0" type="curve"/>
      <point x="179.605" y="693.0" type="line"/>
      <point x="205.925" y="586.04"/>
      <point x="246.265" y="468.36"/>
      <point x="293.585" y="350.05" type="curve"/>
      <point x="153.315" y="350.05" type="line"/>
      <point x="136.965" y="282.98" type="line"/>
      <point x="296.595" y="282.98" type="line"/>
      <point x="272.615" y="180.73" type="line"/>
      <point x="112.985" y="180.73" type="line"/>
      <point x="96.635" y="113.66" type="line"/>
      <point x="256.265" y="113.66" type="line"/>
    </contour>
  </outline>
</glyph>
<glyph name="brokenbar" format="2">
  <advance width="276.065"/>
  <unicode hex="00A6"/>
  <outline>
    <contour>
      <point x="189.26" y="399.965" type="line"/>
      <point x="278.725" y="399.965" type="line"/>
      <point x="370.735" y="783.0" type="line"/>
      <point x="281.935" y="783.0" type="line"/>
    </contour>
    <contour>
      <point x="49.269999999999996" y="-185.0" type="line"/>
      <point x="137.735" y="-185.0" type="line"/>
      <point x="229.745" y="197.37" type="line"/>
      <point x="140.945" y="197.37" type="line"/>
    </contour>
  </outline>
</glyph>
<glyph name="section" format="2">
  <advance width="497.75"/>
  <unicode hex="00A7"/>
  <outline>
    <contour>
      <point x="218.0" y="-109.25" type="curve" smooth="yes"/>
      <point x="345.75" y="-109.25"/>
      <point x="446.5" y="-47.0"/>
      <point x="446.5" y="65.0" type="curve" smooth="yes"/>
      <point x="446.5" y="101.5"/>
      <point x="432.0" y="129.5"/>
      <point x="409.0" y="150.5" type="curve"/>
      <point x="485.0" y="194.5"/>
      <point x="536.0" y="252.5"/>
      <point x="536.0" y="324.0" type="curve" smooth="yes"/>
      <point x="536.0" y="398.5"/>
      <point x="488.25" y="431.0"/>
      <point x="428.5" y="455.5" type="curve" smooth="yes"/>
      <point x="358.75" y="485.5"/>
      <point x="310.0" y="499.0"/>
      <point x="310.0" y="553.5" type="curve" smooth="yes"/>
      <point x="310.0" y="610.0"/>
      <point x="371.5" y="641.0"/>
      <point x="440.75" y="641.0" type="curve" smooth="yes"/>
      <point x="479.5" y="641.0"/>
      <point x="520.75" y="631.25"/>
      <point x="554.25" y="610.25" type="curve"/>
      <point x="588.0" y="675.0" type="line"/>
      <point x="547.5" y="696.75"/>
      <point x="494.5" y="708.25"/>
      <point x="442.0" y="708.25" type="curve" smooth="yes"/>
      <point x="323.75" y="708.25"/>
      <point x="225.25" y="651.5"/>
      <point x="225.25" y="544.5" type="curve" smooth="yes"/>
      <point x="225.25" y="517.25"/>
      <point x="235.75" y="487.25"/>
      <point x="255.5" y="462.75" type="curve"/>
      <point x="176.75" y="417.5"/>
      <point x="126.0" y="357.0"/>
      <point x="126.0" y="284.75" type="curve" smooth="yes"/>
      <point x="126.0" y="211.75"/>
      <point x="174.5" y="177.5"/>
      <point x="235.0" y="152.0" type="curve" smooth="yes"/>
      <point x="305.25" y="122.25"/>
      <point x="361.0" y="108.75"/>
      <point x="361.0" y="55.0" type="curve" smooth="yes"/>
      <point x="361.0" y="-6.75"/>
      <point x="298.0" y="-38.25"/>
      <point x="220.5" y="-38.25" type="curve" smooth="yes"/>
      <point x="173.5" y="-38.25"/>
      <point x="125.0" y="-26.5"/>
      <point x="88.5" y="-2.75" type="curve"/>
      <point x="52.5" y="-71.25" type="line"/>
      <point x="98.5" y="-96.5"/>
      <point x="159.25" y="-109.25"/>
    </contour>
    <contour>
      <point x="349.25" y="186.25" type="curve"/>
      <point x="278.5" y="216.25" type="line" smooth="yes"/>
      <point x="228.5" y="237.0"/>
      <point x="208.5" y="261.5"/>
      <point x="208.5" y="298.25" type="curve" smooth="yes"/>
      <point x="208.5" y="350.75"/>
      <point x="252.75" y="396.75"/>
      <point x="302.25" y="424.0" type="curve"/>
      <point x="381.5" y="392.25" type="line" smooth="yes"/>
      <point x="437.75" y="369.25"/>
      <point x="453.5" y="341.5"/>
      <point x="453.5" y="309.5" type="curve" smooth="yes"/>
      <point x="453.5" y="263.75"/>
      <point x="411.0" y="214.75"/>
    </contour>
  </outline>
</glyph>
<glyph name="dieresis" format="2">
  <advance width="403.0"/>
  <unicode hex="00A8"/>
  <outline>
    <contour>
      <point x="434.88" y="617.295" type="curve" smooth="yes"/>
      <point x="468.555" y="617.295"/>
      <point x="495.6" y="648.305"/>
      <point x="495.6" y="681.345" type="curve" smooth="yes"/>
      <point x="495.6" y="709.045"/>
      <point x="475.905" y="732.055"/>
      <point x="444.225" y="732.055" type="curve" smooth="yes"/>
      <point x="409.545" y="732.055"/>
      <point x="383.175" y="701.71"/>
      <point x="383.175" y="667.335" type="curve" smooth="yes"/>
      <point x="383.175" y="639.305"/>
      <point x="401.865" y="617.295"/>
    </contour>
    <contour>
      <point x="245.465" y="617.295" type="curve" smooth="yes"/>
      <point x="279.14" y="617.295"/>
      <point x="306.85" y="648.305"/>
      <point x="306.85" y="681.345" type="curve" smooth="yes"/>
      <point x="306.85" y="709.045"/>
      <point x="287.155" y="732.055"/>
      <point x="254.81" y="732.055" type="curve" smooth="yes"/>
      <point x="220.13" y="732.055"/>
      <point x="194.425" y="701.71"/>
      <point x="194.425" y="667.335" type="curve" smooth="yes"/>
      <point x="194.425" y="639.305"/>
      <point x="213.115" y="617.295"/>
    </contour>
  </outline>
</glyph>
<glyph name="copyright" format="2">
  <advance width="764.5"/>
  <unicode hex="00A9"/>
  <outline>
    <contour>
      <point x="459.75" y="-15.0" type="curve" smooth="yes"/>
      <point x="640.0" y="-15.0"/>
      <point x="801.0" y="119.0"/>
      <point x="801.0" y="347.0" type="curve"/>
      <point x="801.0" y="575.0"/>
      <point x="640.0" y="708.25"/>
      <point x="459.75" y="708.25" type="curve"/>
      <point x="279.5" y="708.25"/>
      <point x="118.5" y="575.0"/>
      <point x="118.5" y="347.0" type="curve" smooth="yes"/>
      <point x="118.5" y="119.0"/>
      <point x="279.5" y="-15.0"/>
    </contour>
    <contour>
      <point x="467.5" y="146.5" type="curve"/>
      <point x="531.25" y="146.5"/>
      <point x="576.5" y="167.75"/>
      <point x="593.5" y="177.5" type="curve"/>
      <point x="573.75" y="236.25" type="line"/>
      <point x="557.25" y="227.5"/>
      <point x="527.75" y="211.75"/>
      <point x="475.0" y="211.75" type="curve" smooth="yes"/>
      <point x="399.25" y="211.75"/>
      <point x="357.75" y="264.25"/>
      <point x="357.75" y="349.5" type="curve" smooth="yes"/>
      <point x="357.75" y="434.0"/>
      <point x="406.25" y="482.5"/>
      <point x="472.0" y="482.5" type="curve" smooth="yes"/>
      <point x="521.0" y="482.5"/>
      <point x="548.0" y="468.5"/>
      <point x="567.75" y="457.5" type="curve"/>
      <point x="590.0" y="513.25" type="line"/>
      <point x="575.0" y="523.5"/>
      <point x="534.5" y="547.5"/>
      <point x="469.75" y="547.5" type="curve" smooth="yes"/>
      <point x="369.25" y="547.5"/>
      <point x="283.75" y="474.25"/>
      <point x="283.75" y="348.25" type="curve" smooth="yes"/>
      <point x="283.75" y="219.75"/>
      <point x="359.75" y="146.5"/>
    </contour>
    <contour>
      <point x="459.75" y="48.75" type="curve" smooth="yes"/>
      <point x="301.25" y="48.75"/>
      <point x="188.25" y="168.25"/>
      <point x="188.25" y="347.0" type="curve"/>
      <point x="188.25" y="525.75"/>
      <point x="301.25" y="644.5"/>
      <point x="459.75" y="644.5" type="curve" smooth="yes"/>
      <point x="618.25" y="644.5"/>
      <point x="731.25" y="525.75"/>
      <point x="731.25" y="347.0" type="curve"/>
      <point x="731.25" y="168.25"/>
      <point x="618.25" y="48.75"/>
    </contour>
  </outline>
</glyph>
<glyph name="ordfeminine" format="2">
  <advance width="443.5"/>
  <unicode hex="00AA"/>
  <outline>
    <contour>
      <point x="296.5" y="325.25" type="curve" smooth="yes"/>
      <point x="342.75" y="325.25"/>
      <point x="377.0" y="339.5"/>
      <point x="403.75" y="356.5" type="curve"/>
      <point x="407.75" y="344.25"/>
      <point x="412.0" y="334.75"/>
      <point x="419.0" y="323.25" type="curve"/>
      <point x="483.75" y="334.0" type="line"/>
      <point x="454.0" y="388.25"/>
      <point x="451.25" y="433.5"/>
      <point x="470.25" y="499.5" type="curve" smooth="yes"/>
      <point x="522.5" y="687.0" type="line"/>
      <point x="495.0" y="698.5"/>
      <point x="454.5" y="705.0"/>
      <point x="432.0" y="705.0" type="curve" smooth="yes"/>
      <point x="263.25" y="705.0"/>
      <point x="174.75" y="576.75"/>
      <point x="174.75" y="461.0" type="curve" smooth="yes"/>
      <point x="174.75" y="379.5"/>
      <point x="216.25" y="325.25"/>
    </contour>
    <contour>
      <point x="310.75" y="386.25" type="curve" smooth="yes"/>
      <point x="271.5" y="386.25"/>
      <point x="244.75" y="410.25"/>
      <point x="244.75" y="461.5" type="curve" smooth="yes"/>
      <point x="244.75" y="552.0"/>
      <point x="311.0" y="644.25"/>
      <point x="413.75" y="644.25" type="curve" smooth="yes"/>
      <point x="424.75" y="644.25"/>
      <point x="431.5" y="642.5"/>
      <point x="438.25" y="640.75" type="curve"/>
      <point x="399.25" y="494.75" type="line" smooth="yes"/>
      <point x="392.75" y="471.0"/>
      <point x="387.0" y="439.5"/>
      <point x="391.0" y="415.0" type="curve"/>
      <point x="364.75" y="396.0"/>
      <point x="335.75" y="386.25"/>
    </contour>
  </outline>
</glyph>
<glyph name="logicalnot" format="2">
  <advance width="565.0"/>
  <unicode hex="00AC"/>
  <outline>
    <contour>
      <point x="423.75" y="53.25" type="line"/>
      <point x="501.25" y="53.25" type="line"/>
      <point x="582.25" y="392.0" type="line"/>
      <point x="140.75" y="392.0" type="line"/>
      <point x="123.5" y="318.75" type="line"/>
      <point x="487.5" y="318.75" type="line"/>
    </contour>
  </outline>
</glyph>
<glyph name="registered" format="2">
  <advance width="764.5"/>
  <unicode hex="00AE"/>
  <outline>
    <contour>
      <point x="459.75" y="-15.0" type="curve" smooth="yes"/>
      <point x="640.0" y="-15.0"/>
      <point x="801.0" y="119.0"/>
      <point x="801.0" y="347.0" type="curve" smooth="yes"/>
      <point x="801.0" y="575.0"/>
      <point x="640.0" y="708.25"/>
      <point x="459.75" y="708.25" type="curve" smooth="yes"/>
      <point x="279.5" y="708.25"/>
      <point x="118.5" y="575.0"/>
      <point x="118.5" y="347.0" type="curve" smooth="yes"/>
      <point x="118.5" y="119.0"/>
      <point x="279.5" y="-15.0"/>
    </contour>
    <contour>
      <point x="459.75" y="48.75" type="curve" smooth="yes"/>
      <point x="301.25" y="48.75"/>
      <point x="188.25" y="168.25"/>
      <point x="188.25" y="347.0" type="curve" smooth="yes"/>
      <point x="188.25" y="525.75"/>
      <point x="301.25" y="644.5"/>
      <point x="459.75" y="644.5" type="curve" smooth="yes"/>
      <point x="618.25" y="644.5"/>
      <point x="731.25" y="525.75"/>
      <point x="731.25" y="347.0" type="curve" smooth="yes"/>
      <point x="731.25" y="168.25"/>
      <point x="618.25" y="48.75"/>
    </contour>
    <contour>
      <point x="324.0" y="156.0" type="line"/>
      <point x="389.5" y="156.0" type="line"/>
      <point x="389.5" y="302.5" type="line"/>
      <point x="444.5" y="302.5" type="line"/>
      <point x="449.75" y="302.5"/>
      <point x="457.25" y="302.5"/>
      <point x="464.75" y="303.25" type="curve"/>
      <point x="490.75" y="270.75"/>
      <point x="524.75" y="215.25"/>
      <point x="556.0" y="156.0" type="curve"/>
      <point x="627.25" y="156.0" type="line"/>
      <point x="598.0" y="217.75"/>
      <point x="553.5" y="288.0"/>
      <point x="529.5" y="316.75" type="curve"/>
      <point x="577.25" y="335.75"/>
      <point x="602.25" y="373.75"/>
      <point x="602.25" y="419.75" type="curve" smooth="yes"/>
      <point x="602.25" y="502.25"/>
      <point x="543.0" y="543.75"/>
      <point x="431.5" y="543.75" type="curve" smooth="yes"/>
      <point x="399.5" y="543.75"/>
      <point x="357.75" y="539.75"/>
      <point x="324.0" y="531.75" type="curve"/>
    </contour>
    <contour>
      <point x="389.5" y="355.75" type="line"/>
      <point x="389.5" y="484.75" type="line"/>
      <point x="401.75" y="485.75"/>
      <point x="418.75" y="486.75"/>
      <point x="436.0" y="486.75" type="curve" smooth="yes"/>
      <point x="488.5" y="486.75"/>
      <point x="533.75" y="470.25"/>
      <point x="533.75" y="420.75" type="curve" smooth="yes"/>
      <point x="533.75" y="368.5"/>
      <point x="491.75" y="355.75"/>
      <point x="431.5" y="355.75" type="curve" smooth="yes"/>
    </contour>
  </outline>
</glyph>
<glyph name="macron" format="2">
  <advance width="349.4"/>
  <unicode hex="00AF"/>
  <outline>
    <contour>
      <point x="174.325" y="638.96" type="line"/>
      <point x="454.43" y="638.96" type="line"/>
      <point x="471.45" y="711.035" type="line"/>
      <point x="191.345" y="711.035" type="line"/>
    </contour>
  </outline>
</glyph>
<glyph name="degree" format="2">
  <advance width="327.25"/>
  <unicode hex="00B0"/>
  <outline>
    <contour>
      <point x="303.75" y="501.0" type="curve" smooth="yes"/>
      <point x="377.75" y="501.0"/>
      <point x="441.5" y="551.75"/>
      <point x="441.5" y="638.0" type="curve" smooth="yes"/>
      <point x="441.5" y="724.25"/>
      <point x="377.75" y="775.0"/>
      <point x="303.75" y="775.0" type="curve" smooth="yes"/>
      <point x="229.75" y="775.0"/>
      <point x="166.0" y="724.25"/>
      <point x="166.0" y="638.0" type="curve" smooth="yes"/>
      <point x="166.0" y="551.75"/>
      <point x="229.75" y="501.0"/>
    </contour>
    <contour>
      <point x="303.75" y="559.25" type="curve" smooth="yes"/>
      <point x="262.25" y="559.25"/>
      <point x="228.5" y="589.5"/>
      <point x="228.5" y="638.0" type="curve" smooth="yes"/>
      <point x="228.5" y="686.5"/>
      <point x="262.25" y="716.75"/>
      <point x="303.75" y="716.75" type="curve" smooth="yes"/>
      <point x="345.25" y="716.75"/>
      <point x="379.0" y="686.5"/>
      <point x="379.0" y="638.0" type="curve" smooth="yes"/>
      <point x="379.0" y="589.5"/>
      <point x="345.25" y="559.25"/>
    </contour>
  </outline>
</glyph>
<glyph name="plusminus" format="2">
  <advance width="565.0"/>
  <unicode hex="00B1"/>
  <outline>
    <contour>
      <point x="275.25" y="135.25" type="line"/>
      <point x="352.75" y="135.25" type="line"/>
      <point x="402.75" y="341.25" type="line"/>
      <point x="586.25" y="341.25" type="line"/>
      <point x="604.25" y="414.5" type="line"/>
      <point x="420.0" y="414.5" type="line"/>
      <point x="470.0" y="619.75" type="line"/>
      <point x="391.75" y="619.75" type="line"/>
      <point x="341.75" y="414.5" type="line"/>
      <point x="157.5" y="414.5" type="line"/>
      <point x="139.5" y="341.25" type="line"/>
      <point x="324.5" y="341.25" type="line"/>
    </contour>
    <contour>
      <point x="66.5" y="0.75" type="line"/>
      <point x="505.5" y="0.75" type="line"/>
      <point x="522.75" y="74.0" type="line"/>
      <point x="83.5" y="74.0" type="line"/>
    </contour>
  </outline>
</glyph>
<glyph name="twosuperior" format="2">
  <advance width="363.0"/>
  <unicode hex="00B2"/>
  <outline>
    <contour>
      <point x="127.25" y="313.25" type="curve"/>
      <point x="379.75" y="313.25" type="line"/>
      <point x="393.75" y="372.0" type="line"/>
      <point x="209.5" y="372.0" type="line"/>
      <point x="219.0" y="406.5"/>
      <point x="269.0" y="434.5"/>
      <point x="317.75" y="464.25" type="curve" smooth="yes"/>
      <point x="382.25" y="503.25"/>
      <point x="437.0" y="544.75"/>
      <point x="437.0" y="611.75" type="curve" smooth="yes"/>
      <point x="437.0" y="684.75"/>
      <point x="383.0" y="708.25"/>
      <point x="324.25" y="708.25" type="curve" smooth="yes"/>
      <point x="276.5" y="708.25"/>
      <point x="233.25" y="693.0"/>
      <point x="193.0" y="659.0" type="curve"/>
      <point x="216.5" y="611.5" type="line"/>
      <point x="245.25" y="633.75"/>
      <point x="281.5" y="649.0"/>
      <point x="318.5" y="649.0" type="curve" smooth="yes"/>
      <point x="346.75" y="649.0"/>
      <point x="368.25" y="633.25"/>
      <point x="368.25" y="604.25" type="curve" smooth="yes"/>
      <point x="368.25" y="560.75"/>
      <point x="333.75" y="536.75"/>
      <point x="277.75" y="503.5" type="curve" smooth="yes"/>
      <point x="199.0" y="459.0"/>
      <point x="132.5" y="411.75"/>
    </contour>
  </outline>
</glyph>
<glyph name="threesuperior" format="2">
  <advance width="363.0"/>
  <unicode hex="00B3"/>
  <outline>
    <contour>
      <point x="240.645" y="303.64" type="curve" smooth="yes"/>
      <point x="354.59" y="303.64"/>
      <point x="419.66" y="363.585"/>
      <point x="419.66" y="437.65" type="curve" smooth="yes"/>
      <point x="419.66" y="472.985"/>
      <point x="401.99" y="503.655"/>
      <point x="363.68" y="518.655" type="curve"/>
      <point x="414.66" y="538.985"/>
      <point x="441.65" y="581.98"/>
      <point x="441.65" y="620.98" type="curve" smooth="yes"/>
      <point x="441.65" y="674.695"/>
      <point x="400.615" y="708.335"/>
      <point x="334.62" y="708.335" type="curve" smooth="yes"/>
      <point x="288.935" y="708.335"/>
      <point x="240.91" y="695.325"/>
      <point x="207.91" y="676.995" type="curve"/>
      <point x="222.26" y="623.595" type="line"/>
      <point x="244.605" y="634.6"/>
      <point x="284.265" y="647.6"/>
      <point x="317.93" y="647.6" type="curve" smooth="yes"/>
      <point x="355.25" y="647.6"/>
      <point x="372.575" y="632.935"/>
      <point x="372.575" y="608.29" type="curve" smooth="yes"/>
      <point x="372.575" y="575.315"/>
      <point x="339.265" y="544.0"/>
      <point x="276.98" y="544.0" type="curve" smooth="yes"/>
      <point x="247.275" y="544.0" type="line"/>
      <point x="233.26" y="488.28" type="line"/>
      <point x="254.335" y="488.28" type="line" smooth="yes"/>
      <point x="321.61" y="488.28"/>
      <point x="349.255" y="471.29"/>
      <point x="349.255" y="435.655" type="curve" smooth="yes"/>
      <point x="349.255" y="392.01"/>
      <point x="306.27" y="365.71"/>
      <point x="244.65" y="365.71" type="curve" smooth="yes"/>
      <point x="209.64" y="365.71"/>
      <point x="172.96" y="374.05"/>
      <point x="148.625" y="388.055" type="curve"/>
      <point x="121.26" y="330.655" type="line"/>
      <point x="153.6" y="312.98"/>
      <point x="196.955" y="303.64"/>
    </contour>
  </outline>
</glyph>
<glyph name="acute" format="2">
  <advance width="323.5"/>
  <unicode hex="00B4"/>
  <outline>
    <contour>
      <point x="243.0" y="581.25" type="line"/>
      <point x="418.5" y="711.25" type="line"/>
      <point x="370.75" y="779.5" type="line"/>
      <point x="206.25" y="629.75" type="line"/>
    </contour>
  </outline>
</glyph>
<glyph name="mu" format="2">
  <advance width="584.785"/>
  <unicode hex="00B5"/>
  <outline>
    <contour>
      <point x="36.995" y="-178.635" type="line"/>
      <point x="129.8" y="-178.635" type="line"/>
      <point x="163.43" y="-39.125" type="line"/>
      <point x="170.11" y="-11.405000000000001"/>
      <point x="174.44" y="7.9399999999999995"/>
      <point x="177.1" y="29.63" type="curve"/>
      <point x="200.435" y="4.645"/>
      <point x="235.42000000000002" y="-12.0"/>
      <point x="284.37" y="-12.0" type="curve" smooth="yes"/>
      <point x="339.35" y="-12.0"/>
      <point x="395.335" y="6.67"/>
      <point x="444.655" y="45.985" type="curve"/>
      <point x="460.995" y="8.01"/>
      <point x="514.29" y="-9.335"/>
      <point x="560.385" y="-9.67" type="curve"/>
      <point x="587.44" y="70.44" type="line"/>
      <point x="506.445" y="81.425"/>
      <point x="519.445" y="139.39"/>
      <point x="536.445" y="207.05" type="curve" smooth="yes"/>
      <point x="612.765" y="520.015" type="line"/>
      <point x="519.625" y="520.015" type="line"/>
      <point x="453.295" y="249.01" type="line" smooth="yes"/>
      <point x="440.975" y="198.065"/>
      <point x="432.98" y="158.73"/>
      <point x="431.31" y="124.4" type="curve"/>
      <point x="390.315" y="84.745"/>
      <point x="351.01" y="69.44"/>
      <point x="302.755" y="69.44" type="curve" smooth="yes"/>
      <point x="184.84" y="69.44"/>
      <point x="212.465" y="161.35"/>
      <point x="238.775" y="273.925" type="curve" smooth="yes"/>
      <point x="297.795" y="520.015" type="line"/>
      <point x="204.655" y="520.015" type="line"/>
    </contour>
  </outline>
</glyph>
<glyph name="paragraph" format="2">
  <advance width="616.25"/>
  <unicode hex="00B6"/>
  <outline>
    <contour>
      <point x="226.0" y="-185.0" type="line"/>
      <point x="305.0" y="-185.0" type="line"/>
      <point x="500.5" y="626.5" type="line"/>
      <point x="531.0" y="628.75"/>
      <point x="574.0" y="626.25"/>
      <point x="605.75" y="622.5" type="curve"/>
      <point x="411.25" y="-185.0" type="line"/>
      <point x="490.25" y="-185.0" type="line"/>
      <point x="698.25" y="683.0" type="line"/>
      <point x="650.5" y="695.75"/>
      <point x="573.75" y="700.0"/>
      <point x="518.0" y="700.0" type="curve" smooth="yes"/>
      <point x="272.0" y="700.0"/>
      <point x="142.25" y="580.5"/>
      <point x="142.25" y="437.0" type="curve" smooth="yes"/>
      <point x="142.25" y="342.25"/>
      <point x="207.75" y="266.25"/>
      <point x="333.0" y="262.5" type="curve"/>
    </contour>
  </outline>
</glyph>
<glyph name="cedilla" format="2">
  <advance width="333.5"/>
  <unicode hex="00B8"/>
  <outline>
    <contour>
      <point x="103.75" y="-195.5" type="curve" smooth="yes"/>
      <point x="168.5" y="-195.5"/>
      <point x="221.5" y="-164.25"/>
      <point x="221.5" y="-104.25" type="curve" smooth="yes"/>
      <point x="221.5" y="-73.5"/>
      <point x="208.0" y="-56.0"/>
      <point x="177.5" y="-39.5" type="curve"/>
      <point x="187.75" y="-23.5"/>
      <point x="208.5" y="6.0"/>
      <point x="219.5" y="20.0" type="curve"/>
      <point x="160.75" y="20.0" type="line"/>
      <point x="151.25" y="7.75"/>
      <point x="115.5" y="-39.0"/>
      <point x="101.0" y="-65.75" type="curve"/>
      <point x="139.0" y="-81.0"/>
      <point x="148.75" y="-90.25"/>
      <point x="148.75" y="-109.0" type="curve" smooth="yes"/>
      <point x="148.75" y="-129.5"/>
      <point x="130.5" y="-138.25"/>
      <point x="100.5" y="-138.25" type="curve" smooth="yes"/>
      <point x="82.75" y="-138.25"/>
      <point x="64.0" y="-134.5"/>
      <point x="48.5" y="-128.0" type="curve"/>
      <point x="26.0" y="-180.75" type="line"/>
      <point x="52.5" y="-192.0"/>
      <point x="77.5" y="-195.5"/>
    </contour>
  </outline>
</glyph>
<glyph name="onesuperior" format="2">
  <advance width="363.0"/>
  <unicode hex="00B9"/>
  <outline>
    <contour>
      <point x="251.25" y="313.25" type="line"/>
      <point x="320.25" y="313.25" type="line"/>
      <point x="412.25" y="699.5" type="line"/>
      <point x="363.5" y="699.5" type="line"/>
      <point x="321.0" y="667.0"/>
      <point x="273.0" y="641.75"/>
      <point x="208.5" y="619.5" type="curve"/>
      <point x="217.25" y="566.25" type="line"/>
      <point x="241.5" y="573.75"/>
      <point x="287.0" y="587.75"/>
      <point x="322.75" y="611.75" type="curve"/>
    </contour>
  </outline>
</glyph>
<glyph name="ordmasculine" format="2">
  <advance width="442.325"/>
  <unicode hex="00BA"/>
  <outline>
    <contour>
      <point x="295.655" y="322.625" type="curve" smooth="yes"/>
      <point x="439.005" y="322.625"/>
      <point x="517.005" y="450.625"/>
      <point x="517.005" y="572.985" type="curve" smooth="yes"/>
      <point x="517.005" y="647.35"/>
      <point x="477.985" y="706.34"/>
      <point x="389.945" y="706.34" type="curve" smooth="yes"/>
      <point x="246.595" y="706.34"/>
      <point x="168.595" y="578.34"/>
      <point x="168.595" y="455.98" type="curve" smooth="yes"/>
      <point x="168.595" y="381.615"/>
      <point x="207.615" y="322.625"/>
    </contour>
    <contour>
      <point x="308.65" y="385.36" type="curve" smooth="yes"/>
      <point x="266.35" y="385.36"/>
      <point x="242.005" y="408.66"/>
      <point x="242.005" y="464.645" type="curve" smooth="yes"/>
      <point x="242.005" y="551.99"/>
      <point x="298.665" y="643.605"/>
      <point x="376.95" y="643.605" type="curve" smooth="yes"/>
      <point x="419.25" y="643.605"/>
      <point x="443.595" y="619.97"/>
      <point x="443.595" y="564.32" type="curve" smooth="yes"/>
      <point x="443.595" y="476.975"/>
      <point x="386.935" y="385.36"/>
    </contour>
  </outline>
</glyph>
<glyph name="questiondown" format="2">
  <advance width="396.25"/>
  <unicode hex="00BF"/>
  <outline>
    <contour>
      <point x="236.25" y="-190.0" type="curve" smooth="yes"/>
      <point x="290.0" y="-190.0"/>
      <point x="346.75" y="-175.25"/>
      <point x="389.75" y="-153.75" type="curve"/>
      <point x="379.0" y="-83.25" type="line"/>
      <point x="346.5" y="-99.75"/>
      <point x="296.0" y="-115.0"/>
      <point x="252.5" y="-115.0" type="curve" smooth="yes"/>
      <point x="206.5" y="-115.0"/>
      <point x="168.0" y="-97.0"/>
      <point x="168.0" y="-44.75" type="curve" smooth="yes"/>
      <point x="168.0" y="4.0"/>
      <point x="195.25" y="38.0"/>
      <point x="270.25" y="94.75" type="curve" smooth="yes"/>
      <point x="349.25" y="157.0"/>
      <point x="403.25" y="209.5"/>
      <point x="404.75" y="303.25" type="curve"/>
      <point x="330.5" y="303.25" type="line"/>
      <point x="329.25" y="237.25"/>
      <point x="276.5" y="192.25"/>
      <point x="219.5" y="147.0" type="curve" smooth="yes"/>
      <point x="152.0" y="94.0"/>
      <point x="79.0" y="41.0"/>
      <point x="79.0" y="-53.75" type="curve" smooth="yes"/>
      <point x="79.0" y="-152.25"/>
      <point x="153.0" y="-190.0"/>
    </contour>
    <contour>
      <point x="379.75" y="402.75" type="curve" smooth="yes"/>
      <point x="419.5" y="402.75"/>
      <point x="447.5" y="437.25"/>
      <point x="447.5" y="474.25" type="curve" smooth="yes"/>
      <point x="447.5" y="506.75"/>
      <point x="427.5" y="530.5"/>
      <point x="389.5" y="530.5" type="curve" smooth="yes"/>
      <point x="349.75" y="530.5"/>
      <point x="321.75" y="496.0"/>
      <point x="321.75" y="459.0" type="curve" smooth="yes"/>
      <point x="321.75" y="426.5"/>
      <point x="341.75" y="402.75"/>
    </contour>
  </outline>
</glyph>
<glyph name="Aring" format="2">
  <advance width="652.82"/>
  <unicode hex="00C5"/>
  <outline>
    <contour>
      <point x="18.325" y="0.0" type="curve"/>
      <point x="122.14" y="0.0" type="line"/>
      <point x="153.79500000000002" y="61.31"/>
      <point x="187.12" y="119.955"/>
      <point x="219.44" y="176.935" type="curve"/>
      <point x="523.33" y="176.935" type="line"/>
      <point x="529.99" y="117.96"/>
      <point x="535.65" y="59.315"/>
      <point x="541.31" y="0.0" type="curve"/>
      <point x="640.455" y="0.0" type="line"/>
      <point x="614.135" y="238.915"/>
      <point x="583.46" y="467.355"/>
      <point x="549.445" y="654.035" type="curve"/>
      <point x="582.775" y="669.71"/>
      <point x="607.105" y="702.045"/>
      <point x="607.105" y="747.05" type="curve" smooth="yes"/>
      <point x="607.105" y="810.08"/>
      <point x="559.42" y="848.75"/>
      <point x="504.065" y="848.75" type="curve" smooth="yes"/>
      <point x="449.05" y="848.75"/>
      <point x="401.03" y="810.08"/>
      <point x="401.03" y="747.05" type="curve" smooth="yes"/>
      <point x="401.03" y="714.71"/>
      <point x="413.03" y="689.04"/>
      <point x="432.695" y="671.035" type="curve"/>
      <point x="299.355" y="476.715"/>
      <point x="161.395" y="252.435"/>
    </contour>
    <contour>
      <point x="263.155" y="256.375" type="line"/>
      <point x="329.45" y="369.985"/>
      <point x="399.41" y="478.6"/>
      <point x="472.035" y="590.21" type="curve"/>
      <point x="489.69" y="474.935"/>
      <point x="503.005" y="362.645"/>
      <point x="515.325" y="256.375" type="curve"/>
    </contour>
    <contour>
      <point x="504.065" y="692.07" type="curve" smooth="yes"/>
      <point x="475.08" y="692.07"/>
      <point x="451.085" y="711.395"/>
      <point x="451.085" y="747.05" type="curve" smooth="yes"/>
      <point x="451.085" y="782.04"/>
      <point x="475.08" y="802.03"/>
      <point x="504.065" y="802.03" type="curve" smooth="yes"/>
      <point x="533.385" y="802.03"/>
      <point x="557.38" y="782.04"/>
      <point x="557.38" y="747.05" type="curve" smooth="yes"/>
      <point x="557.38" y="711.395"/>
      <point x="533.385" y="692.07"/>
    </contour>
  </outline>
</glyph>
<glyph name="AE" format="2">
  <advance width="912.5"/>
  <unicode hex="00C6"/>
  <outline>
    <contour>
      <point x="13.5" y="0.0" type="curve"/>
      <point x="109.0" y="0.0" type="line"/>
      <point x="149.5" y="59.25"/>
      <point x="196.5" y="122.75"/>
      <point x="243.5" y="183.5" type="curve"/>
      <point x="513.25" y="183.5" type="line"/>
      <point x="469.5" y="0.0" type="line"/>
      <point x="879.75" y="0.0" type="line"/>
      <point x="896.75" y="77.0" type="line"/>
      <point x="574.0" y="77.0" type="line"/>
      <point x="635.75" y="325.75" type="line"/>
      <point x="899.0" y="325.75" type="line"/>
      <point x="916.5" y="401.25" type="line"/>
      <point x="651.75" y="401.25" type="line"/>
      <point x="704.0" y="616.0" type="line"/>
      <point x="1003.75" y="616.0" type="line"/>
      <point x="1021.5" y="693.0" type="line"/>
      <point x="589.5" y="693.0" type="line"/>
      <point x="376.75" y="472.25"/>
      <point x="210.25" y="273.25"/>
    </contour>
    <contour>
      <point x="301.0" y="258.0" type="line"/>
      <point x="415.25" y="400.5"/>
      <point x="543.0" y="545.0"/>
      <point x="617.75" y="619.5" type="curve"/>
      <point x="531.0" y="258.0" type="line"/>
    </contour>
  </outline>
</glyph>
<glyph name="Ccedilla" format="2">
  <advance width="619.38"/>
  <unicode hex="00C7"/>
  <outline>
    <contour>
      <point x="307.625" y="-198.39" type="curve" smooth="yes"/>
      <point x="372.97" y="-198.39"/>
      <point x="427.67" y="-167.055"/>
      <point x="427.67" y="-105.015" type="curve" smooth="yes"/>
      <point x="427.67" y="-74.69"/>
      <point x="414.0" y="-56.34"/>
      <point x="383.67" y="-40.01" type="curve"/>
      <point x="388.005" y="-32.675"/>
      <point x="393.675" y="-23.67"/>
      <point x="400.345" y="-14.665" type="curve"/>
      <point x="475.395" y="-13.665"/>
      <point x="543.04" y="3.0"/>
      <point x="596.045" y="30.665" type="curve"/>
      <point x="584.365" y="113.11" type="line"/>
      <point x="550.0" y="96.1"/>
      <point x="497.0" y="71.125"/>
      <point x="403.74" y="71.125" type="curve" smooth="yes"/>
      <point x="291.115" y="71.125"/>
      <point x="234.79" y="137.755"/>
      <point x="234.79" y="266.39" type="curve" smooth="yes"/>
      <point x="234.79" y="478.58"/>
      <point x="367.03" y="623.215"/>
      <point x="529.005" y="623.215" type="curve" smooth="yes"/>
      <point x="581.335" y="623.215"/>
      <point x="628.315" y="610.89"/>
      <point x="679.66" y="581.225" type="curve"/>
      <point x="719.035" y="662.99" type="line"/>
      <point x="660.015" y="695.335"/>
      <point x="604.335" y="708.335"/>
      <point x="541.665" y="708.335" type="curve" smooth="yes"/>
      <point x="310.24" y="708.335"/>
      <point x="132.975" y="521.915"/>
      <point x="132.975" y="262.045" type="curve" smooth="yes"/>
      <point x="132.975" y="97.75"/>
      <point x="215.29" y="9.045"/>
      <point x="339.945" y="-9.985" type="curve"/>
      <point x="326.61" y="-27.99"/>
      <point x="312.945" y="-48.99"/>
      <point x="303.6" y="-65.665" type="curve"/>
      <point x="341.94" y="-80.665"/>
      <point x="351.605" y="-90.335"/>
      <point x="351.605" y="-108.66" type="curve" smooth="yes"/>
      <point x="351.605" y="-128.65"/>
      <point x="333.95" y="-137.315"/>
      <point x="304.29" y="-137.315" type="curve" smooth="yes"/>
      <point x="286.285" y="-137.315"/>
      <point x="266.94" y="-133.31"/>
      <point x="251.27" y="-126.64" type="curve"/>
      <point x="227.24" y="-182.705" type="line"/>
      <point x="253.91" y="-194.38"/>
      <point x="280.27" y="-198.39"/>
    </contour>
  </outline>
</glyph>
<glyph name="Eth" format="2">
  <advance width="700.71"/>
  <unicode hex="00D0"/>
  <outline>
    <contour>
      <point x="265.365" y="-7.005" type="curve" smooth="yes"/>
      <point x="594.28" y="-7.005"/>
      <point x="734.05" y="194.9"/>
      <point x="734.05" y="424.995" type="curve" smooth="yes"/>
      <point x="734.05" y="602.63"/>
      <point x="622.705" y="699.67"/>
      <point x="428.695" y="699.67" type="curve" smooth="yes"/>
      <point x="375.355" y="699.67"/>
      <point x="317.32" y="694.67"/>
      <point x="248.635" y="680.335" type="curve"/>
      <point x="181.31" y="399.045" type="line"/>
      <point x="100.975" y="399.045" type="line"/>
      <point x="83.62" y="323.945" type="line"/>
      <point x="163.62" y="323.945" type="line"/>
      <point x="88.965" y="12.665" type="line"/>
      <point x="138.345" y="-0.3400000000000001"/>
      <point x="211.36" y="-7.005"/>
    </contour>
    <contour>
      <point x="283.07" y="76.45" type="curve" smooth="yes"/>
      <point x="254.075" y="76.45"/>
      <point x="229.44" y="78.11500000000001"/>
      <point x="202.47" y="81.775" type="curve"/>
      <point x="260.43" y="323.945" type="line"/>
      <point x="390.425" y="323.945" type="line"/>
      <point x="408.115" y="399.045" type="line"/>
      <point x="278.455" y="399.045" type="line"/>
      <point x="329.085" y="610.89" type="line"/>
      <point x="358.73" y="614.885"/>
      <point x="388.705" y="617.215"/>
      <point x="417.35" y="617.215" type="curve" smooth="yes"/>
      <point x="545.34" y="617.215"/>
      <point x="632.57" y="559.205"/>
      <point x="632.57" y="424.975" type="curve" smooth="yes"/>
      <point x="632.57" y="211.055"/>
      <point x="499.295" y="76.45"/>
    </contour>
  </outline>
</glyph>
<glyph name="multiply" format="2">
  <advance width="565.0"/>
  <unicode hex="00D7"/>
  <outline>
    <contour>
      <point x="164.25" y="95.75" type="line"/>
      <point x="341.5" y="240.0" type="line"/>
      <point x="450.0" y="96.75" type="line"/>
      <point x="507.75" y="142.75" type="line"/>
      <point x="397.5" y="287.5" type="line"/>
      <point x="582.75" y="435.25" type="line"/>
      <point x="539.75" y="489.75" type="line"/>
      <point x="355.0" y="341.0" type="line"/>
      <point x="243.5" y="488.75" type="line"/>
      <point x="185.75" y="442.0" type="line"/>
      <point x="298.25" y="293.5" type="line"/>
      <point x="122.0" y="151.0" type="line"/>
    </contour>
  </outline>
</glyph>
<glyph name="Oslash" format="2">
  <advance width="750.25"/>
  <unicode hex="00D8"/>
  <outline>
    <contour>
      <point x="170.0" y="-33.0" type="line"/>
      <point x="230.25" y="35.5" type="line"/>
      <point x="274.25" y="1.5"/>
      <point x="329.5" y="-14.75"/>
      <point x="389.0" y="-14.75" type="curve" smooth="yes"/>
      <point x="598.0" y="-14.75"/>
      <point x="783.5" y="171.5"/>
      <point x="783.5" y="431.5" type="curve" smooth="yes"/>
      <point x="783.5" y="505.75"/>
      <point x="764.75" y="564.25"/>
      <point x="733.5" y="609.0" type="curve"/>
      <point x="800.75" y="686.25" type="line"/>
      <point x="749.75" y="729.0" type="line"/>
      <point x="687.0" y="657.25" type="line"/>
      <point x="643.0" y="691.25"/>
      <point x="588.0" y="708.25"/>
      <point x="528.75" y="708.25" type="curve" smooth="yes"/>
      <point x="320.5" y="708.25"/>
      <point x="134.25" y="521.5"/>
      <point x="134.25" y="262.75" type="curve" smooth="yes"/>
      <point x="134.25" y="188.5"/>
      <point x="151.75" y="129.5"/>
      <point x="183.25" y="84.75" type="curve"/>
      <point x="118.25" y="10.5" type="line"/>
    </contour>
    <contour>
      <point x="396.0" y="63.25" type="curve" smooth="yes"/>
      <point x="353.0" y="63.25"/>
      <point x="315.25" y="75.5"/>
      <point x="286.5" y="99.75" type="curve"/>
      <point x="670.5" y="537.0" type="line"/>
      <point x="683.5" y="510.0"/>
      <point x="690.75" y="476.5"/>
      <point x="690.75" y="437.5" type="curve" smooth="yes"/>
      <point x="690.75" y="208.5"/>
      <point x="548.25" y="63.25"/>
    </contour>
    <contour>
      <point x="246.25" y="156.75" type="line"/>
      <point x="233.25" y="183.5"/>
      <point x="227.0" y="216.0"/>
      <point x="227.0" y="255.75" type="curve" smooth="yes"/>
      <point x="227.0" y="484.5"/>
      <point x="369.0" y="630.25"/>
      <point x="521.5" y="630.25" type="curve" smooth="yes"/>
      <point x="563.25" y="630.25"/>
      <point x="601.75" y="618.0"/>
      <point x="630.5" y="593.0" type="curve"/>
    </contour>
  </outline>
</glyph>
<glyph name="Thorn" format="2">
  <advance width="556.75"/>
  <unicode hex="00DE"/>
  <outline>
    <contour>
      <point x="80.75" y="0.0" type="line"/>
      <point x="170.5" y="0.0" type="line"/>
      <point x="204.5" y="143.75" type="line"/>
      <point x="273.5" y="143.75" type="line" smooth="yes"/>
      <point x="516.75" y="143.75"/>
      <point x="630.75" y="253.5"/>
      <point x="630.75" y="395.25" type="curve" smooth="yes"/>
      <point x="630.75" y="517.25"/>
      <point x="551.75" y="580.25"/>
      <point x="388.5" y="580.25" type="curve" smooth="yes"/>
      <point x="363.0" y="580.25"/>
      <point x="335.5" y="579.5"/>
      <point x="309.75" y="577.25" type="curve"/>
      <point x="337.5" y="693.0" type="line"/>
      <point x="247.5" y="693.0" type="line"/>
    </contour>
    <contour>
      <point x="223.0" y="218.25" type="line"/>
      <point x="290.5" y="500.0" type="line"/>
      <point x="298.25" y="501.0"/>
      <point x="326.75" y="504.5"/>
      <point x="379.0" y="504.5" type="curve" smooth="yes"/>
      <point x="483.5" y="504.5"/>
      <point x="538.0" y="471.0"/>
      <point x="538.0" y="390.5" type="curve" smooth="yes"/>
      <point x="538.0" y="286.0"/>
      <point x="460.5" y="218.25"/>
      <point x="287.0" y="218.25" type="curve" smooth="yes"/>
    </contour>
  </outline>
</glyph>
<glyph name="germandbls" format="2">
  <advance width="605.08"/>
  <unicode hex="00DF"/>
  <outline>
    <contour>
      <point x="59.75" y="-189.0" type="line"/>
      <point x="127.075" y="-120.385"/>
      <point x="163.45" y="-31.36"/>
      <point x="199.14" y="117.745" type="curve" smooth="yes"/>
      <point x="303.45" y="551.99" type="line" smooth="yes"/>
      <point x="328.435" y="655.585"/>
      <point x="393.385" y="695.885"/>
      <point x="460.005" y="695.885" type="curve" smooth="yes"/>
      <point x="508.315" y="695.885"/>
      <point x="539.655" y="672.575"/>
      <point x="539.655" y="629.605" type="curve" smooth="yes"/>
      <point x="539.655" y="520.34"/>
      <point x="372.015" y="486.005"/>
      <point x="372.015" y="368.66" type="curve" smooth="yes"/>
      <point x="372.015" y="315.03"/>
      <point x="410.945" y="287.68"/>
      <point x="457.625" y="253.335" type="curve" smooth="yes"/>
      <point x="501.02" y="221.29"/>
      <point x="522.325" y="199.985"/>
      <point x="522.325" y="158.69" type="curve" smooth="yes"/>
      <point x="522.325" y="97.76"/>
      <point x="467.715" y="68.77"/>
      <point x="404.75" y="68.77" type="curve" smooth="yes"/>
      <point x="366.44" y="68.77"/>
      <point x="325.455" y="81.425"/>
      <point x="293.105" y="101.1" type="curve"/>
      <point x="256.73" y="22.67" type="line"/>
      <point x="299.4" y="-1.9949999999999999"/>
      <point x="351.735" y="-12.0"/>
      <point x="401.41" y="-12.0" type="curve" smooth="yes"/>
      <point x="512.1" y="-12.0"/>
      <point x="615.465" y="45.68"/>
      <point x="615.465" y="168.04" type="curve" smooth="yes"/>
      <point x="615.465" y="238.315"/>
      <point x="578.51" y="275.33"/>
      <point x="538.52" y="302.33" type="curve" smooth="yes"/>
      <point x="497.825" y="330.025"/>
      <point x="467.16" y="347.36"/>
      <point x="467.16" y="381.345" type="curve" smooth="yes"/>
      <point x="467.16" y="453.7"/>
      <point x="631.115" y="498.64"/>
      <point x="631.115" y="638.64" type="curve" smooth="yes"/>
      <point x="631.115" y="722.99"/>
      <point x="561.71" y="776.0"/>
      <point x="462.355" y="776.0" type="curve" smooth="yes"/>
      <point x="349.35" y="776.0"/>
      <point x="250.65" y="716.01"/>
      <point x="212.325" y="554.035" type="curve" smooth="yes"/>
      <point x="98.01" y="78.1" type="line"/>
      <point x="76.345" y="-13.239999999999998"/>
      <point x="46.635" y="-95.36"/>
      <point x="-21.37" y="-176.65" type="curve"/>
    </contour>
  </outline>
</glyph>
<glyph name="ae" format="2">
  <advance width="789.0"/>
  <unicode hex="00E6"/>
  <outline>
    <contour>
      <point x="210.75" y="-12.5" type="curve" smooth="yes"/>
      <point x="297.0" y="-12.5"/>
      <point x="370.75" y="29.0"/>
      <point x="417.5" y="92.0" type="curve"/>
      <point x="444.75" y="25.0"/>
      <point x="501.25" y="-12.5"/>
      <point x="593.75" y="-12.5" type="curve" smooth="yes"/>
      <point x="652.75" y="-12.5"/>
      <point x="712.5" y="2.5"/>
      <point x="755.25" y="21.0" type="curve"/>
      <point x="747.25" y="95.25" type="line"/>
      <point x="701.5" y="74.25"/>
      <point x="655.0" y="63.5"/>
      <point x="614.25" y="63.5" type="curve" smooth="yes"/>
      <point x="512.0" y="63.5"/>
      <point x="486.0" y="99.0"/>
      <point x="483.75" y="198.25" type="curve"/>
      <point x="711.5" y="205.0"/>
      <point x="834.5" y="240.75"/>
      <point x="834.5" y="395.0" type="curve" smooth="yes"/>
      <point x="834.5" y="488.25"/>
      <point x="765.75" y="531.75"/>
      <point x="686.0" y="531.75" type="curve" smooth="yes"/>
      <point x="611.75" y="531.75"/>
      <point x="530.25" y="495.75"/>
      <point x="479.25" y="426.0" type="curve"/>
      <point x="453.5" y="493.25"/>
      <point x="395.5" y="531.75"/>
      <point x="303.25" y="531.75" type="curve" smooth="yes"/>
      <point x="244.25" y="531.75"/>
      <point x="184.0" y="516.5"/>
      <point x="142.25" y="498.25" type="curve"/>
      <point x="150.25" y="425.5" type="line"/>
      <point x="196.0" y="446.5"/>
      <point x="242.5" y="457.25"/>
      <point x="283.25" y="457.25" type="curve" smooth="yes"/>
      <point x="387.0" y="457.25"/>
      <point x="413.0" y="417.25"/>
      <point x="415.25" y="322.5" type="curve"/>
      <point x="187.5" y="314.25"/>
      <point x="63.0" y="278.5"/>
      <point x="63.0" y="124.25" type="curve" smooth="yes"/>
      <point x="63.0" y="31.5"/>
      <point x="130.5" y="-12.5"/>
    </contour>
    <contour>
      <point x="224.25" y="61.25" type="curve" smooth="yes"/>
      <point x="176.5" y="61.25"/>
      <point x="146.25" y="85.75"/>
      <point x="146.25" y="131.75" type="curve" smooth="yes"/>
      <point x="146.25" y="203.0"/>
      <point x="193.0" y="245.5"/>
      <point x="406.75" y="249.75" type="curve"/>
      <point x="381.75" y="121.0"/>
      <point x="302.0" y="61.25"/>
    </contour>
    <contour>
      <point x="492.25" y="268.0" type="curve"/>
      <point x="517.25" y="397.5"/>
      <point x="597.0" y="458.0"/>
      <point x="673.25" y="458.0" type="curve" smooth="yes"/>
      <point x="721.0" y="458.0"/>
      <point x="751.25" y="433.5"/>
      <point x="751.25" y="387.5" type="curve" smooth="yes"/>
      <point x="751.25" y="314.75"/>
      <point x="704.5" y="272.25"/>
    </contour>
  </outline>
</glyph>
<glyph name="ccedilla" format="2">
  <advance width="463.375"/>
  <unicode hex="00E7"/>
  <outline>
    <contour>
      <point x="213.37" y="-198.39" type="curve" smooth="yes"/>
      <point x="278.715" y="-198.39"/>
      <point x="333.415" y="-167.055"/>
      <point x="333.415" y="-105.015" type="curve" smooth="yes"/>
      <point x="333.415" y="-74.69"/>
      <point x="319.745" y="-56.34"/>
      <point x="289.415" y="-40.01" type="curve"/>
      <point x="293.75" y="-32.675"/>
      <point x="300.085" y="-22.34"/>
      <point x="307.42" y="-12.67" type="curve"/>
      <point x="368.74" y="-10.335"/>
      <point x="419.045" y="6.32"/>
      <point x="447.395" y="21.315" type="curve"/>
      <point x="439.055" y="100.415" type="line"/>
      <point x="417.705" y="87.75"/>
      <point x="365.41" y="69.44"/>
      <point x="314.44" y="69.44" type="curve" smooth="yes"/>
      <point x="228.79" y="69.44"/>
      <point x="194.815" y="120.76"/>
      <point x="194.815" y="202.06" type="curve" smooth="yes"/>
      <point x="194.815" y="339.67"/>
      <point x="278.095" y="450.575"/>
      <point x="405.69" y="450.575" type="curve" smooth="yes"/>
      <point x="438.045" y="450.575"/>
      <point x="466.705" y="444.565"/>
      <point x="496.365" y="432.9" type="curve"/>
      <point x="531.405" y="510.995" type="line"/>
      <point x="496.395" y="524.675"/>
      <point x="457.71" y="532.685"/>
      <point x="414.335" y="532.685" type="curve" smooth="yes"/>
      <point x="216.68" y="532.685"/>
      <point x="98.67" y="373.71"/>
      <point x="98.67" y="192.045" type="curve" smooth="yes"/>
      <point x="98.67" y="87.055"/>
      <point x="146.33" y="10.030000000000001"/>
      <point x="247.35" y="-7.66" type="curve"/>
      <point x="233.685" y="-26.995"/>
      <point x="219.02" y="-48.325"/>
      <point x="209.345" y="-65.665" type="curve"/>
      <point x="247.685" y="-81.0"/>
      <point x="257.35" y="-90.335"/>
      <point x="257.35" y="-108.66" type="curve" smooth="yes"/>
      <point x="257.35" y="-128.65"/>
      <point x="239.695" y="-137.315"/>
      <point x="210.035" y="-137.315" type="curve" smooth="yes"/>
      <point x="192.03" y="-137.315"/>
      <point x="172.685" y="-133.31"/>
      <point x="157.015" y="-126.64" type="curve"/>
      <point x="132.985" y="-182.705" type="line"/>
      <point x="159.655" y="-194.38"/>
      <point x="186.015" y="-198.39"/>
    </contour>
  </outline>
</glyph>
<glyph name="eth" format="2">
  <advance width="576.74"/>
  <unicode hex="00F0"/>
  <outline>
    <contour>
      <point x="288.375" y="-12.67" type="curve" smooth="yes"/>
      <point x="525.995" y="-12.67"/>
      <point x="604.065" y="242.485"/>
      <point x="604.065" y="416.285" type="curve" smooth="yes"/>
      <point x="604.065" y="491.295"/>
      <point x="590.735" y="560.635"/>
      <point x="562.395" y="621.975" type="curve"/>
      <point x="674.72" y="657.64" type="line"/>
      <point x="666.715" y="720.695" type="line"/>
      <point x="531.695" y="677.02" type="line"/>
      <point x="506.025" y="716.675"/>
      <point x="473.36" y="749.335"/>
      <point x="435.025" y="776.0" type="curve"/>
      <point x="365.95" y="729.615" type="line"/>
      <point x="399.275" y="706.62"/>
      <point x="425.935" y="679.3"/>
      <point x="446.595" y="650.32" type="curve"/>
      <point x="343.31" y="617.335" type="line"/>
      <point x="351.65" y="554.95" type="line"/>
      <point x="478.96" y="595.61" type="line"/>
      <point x="499.945" y="548.645"/>
      <point x="509.27" y="497.685"/>
      <point x="511.275" y="448.375" type="curve"/>
      <point x="469.965" y="477.34"/>
      <point x="428.97" y="488.335"/>
      <point x="374.0" y="488.335" type="curve" smooth="yes"/>
      <point x="237.69" y="488.335"/>
      <point x="98.67" y="386.075"/>
      <point x="98.67" y="192.355" type="curve" smooth="yes"/>
      <point x="98.67" y="77.015"/>
      <point x="165.355" y="-12.67"/>
    </contour>
    <contour>
      <point x="301.055" y="69.78" type="curve" smooth="yes"/>
      <point x="227.445" y="69.78"/>
      <point x="194.14" y="125.74"/>
      <point x="194.14" y="197.015" type="curve" smooth="yes"/>
      <point x="194.14" y="315.95"/>
      <point x="259.75" y="409.57"/>
      <point x="375.34" y="409.57" type="curve" smooth="yes"/>
      <point x="428.61" y="409.57"/>
      <point x="464.6" y="394.255"/>
      <point x="503.925" y="358.635" type="curve"/>
      <point x="491.27" y="216.715"/>
      <point x="430.97" y="69.78"/>
    </contour>
  </outline>
</glyph>
<glyph name="divide" format="2">
  <advance width="565.0"/>
  <unicode hex="00F7"/>
  <outline>
    <contour>
      <point x="113.25" y="258.5" type="line"/>
      <point x="569.75" y="258.5" type="line"/>
      <point x="587.25" y="331.75" type="line"/>
      <point x="130.75" y="331.75" type="line"/>
    </contour>
    <contour>
      <point x="290.75" y="44.75" type="curve" smooth="yes"/>
      <point x="323.75" y="44.75"/>
      <point x="354.5" y="69.5"/>
      <point x="359.0" y="105.5" type="curve" smooth="yes"/>
      <point x="364.25" y="140.0"/>
      <point x="345.0" y="161.5"/>
      <point x="313.25" y="161.5" type="curve" smooth="yes"/>
      <point x="281.0" y="161.5"/>
      <point x="251.0" y="136.75"/>
      <point x="245.75" y="100.0" type="curve" smooth="yes"/>
      <point x="241.25" y="66.25"/>
      <point x="259.75" y="44.75"/>
    </contour>
    <contour>
      <point x="383.25" y="427.75" type="curve" smooth="yes"/>
      <point x="416.25" y="427.75"/>
      <point x="446.25" y="452.5"/>
      <point x="451.5" y="489.25" type="curve" smooth="yes"/>
      <point x="456.0" y="523.0"/>
      <point x="437.5" y="544.5"/>
      <point x="405.75" y="544.5" type="curve" smooth="yes"/>
      <point x="373.5" y="544.5"/>
      <point x="342.75" y="519.75"/>
      <point x="338.25" y="483.75" type="curve" smooth="yes"/>
      <point x="333.0" y="449.25"/>
      <point x="352.25" y="427.75"/>
    </contour>
  </outline>
</glyph>
<glyph name="oslash" format="2">
  <advance width="542.08"/>
  <unicode hex="00F8"/>
  <outline>
    <contour>
      <point x="121.705" y="-36.34" type="line"/>
      <point x="170.705" y="19.66" type="line"/>
      <point x="201.375" y="-1.335"/>
      <point x="240.375" y="-12.67"/>
      <point x="284.06" y="-12.67" type="curve" smooth="yes"/>
      <point x="435.835" y="-12.67"/>
      <point x="573.41" y="124.1"/>
      <point x="573.41" y="344.28" type="curve" smooth="yes"/>
      <point x="573.41" y="384.64"/>
      <point x="564.405" y="420.0"/>
      <point x="547.39" y="447.685" type="curve"/>
      <point x="605.705" y="513.665" type="line"/>
      <point x="557.995" y="552.7" type="line"/>
      <point x="506.675" y="494.38" type="line"/>
      <point x="475.01" y="518.695"/>
      <point x="433.685" y="532.02"/>
      <point x="388.02" y="532.02" type="curve" smooth="yes"/>
      <point x="238.255" y="532.02"/>
      <point x="98.67" y="395.25"/>
      <point x="98.67" y="175.735" type="curve" smooth="yes"/>
      <point x="98.67" y="131.06"/>
      <point x="109.335" y="94.715"/>
      <point x="128.335" y="65.035" type="curve"/>
      <point x="73.995" y="3.3600000000000003" type="line"/>
    </contour>
    <contour>
      <point x="290.07" y="67.77" type="curve" smooth="yes"/>
      <point x="267.09" y="67.77"/>
      <point x="246.105" y="73.095"/>
      <point x="228.78" y="84.745" type="curve"/>
      <point x="477.955" y="367.9" type="line"/>
      <point x="479.95" y="359.915"/>
      <point x="481.28" y="350.265"/>
      <point x="481.28" y="340.285" type="curve" smooth="yes"/>
      <point x="480.61" y="169.79"/>
      <point x="387.415" y="67.77"/>
    </contour>
    <contour>
      <point x="195.775" y="141.49" type="line"/>
      <point x="191.785" y="152.8"/>
      <point x="189.125" y="165.775"/>
      <point x="189.125" y="181.075" type="curve" smooth="yes"/>
      <point x="189.79500000000002" y="351.57"/>
      <point x="282.99" y="453.59"/>
      <point x="380.335" y="453.59" type="curve" smooth="yes"/>
      <point x="406.64" y="453.59"/>
      <point x="430.95" y="445.605"/>
      <point x="449.605" y="429.3" type="curve"/>
    </contour>
  </outline>
</glyph>
<glyph name="thorn" format="2">
  <advance width="533.75"/>
  <unicode hex="00FE"/>
  <outline>
    <contour>
      <point x="35.0" y="-185.0" type="line"/>
      <point x="121.5" y="-185.0" type="line"/>
      <point x="165.25" y="-1.0" type="line"/>
      <point x="187.75" y="-6.5"/>
      <point x="211.5" y="-9.25"/>
      <point x="236.5" y="-9.25" type="curve" smooth="yes"/>
      <point x="442.0" y="-9.25"/>
      <point x="565.25" y="147.0"/>
      <point x="565.25" y="334.5" type="curve" smooth="yes"/>
      <point x="565.25" y="457.5"/>
      <point x="504.0" y="531.25"/>
      <point x="375.25" y="531.25" type="curve" smooth="yes"/>
      <point x="348.0" y="531.25"/>
      <point x="319.25" y="528.0"/>
      <point x="291.5" y="521.75" type="curve"/>
      <point x="351.75" y="776.0" type="line"/>
      <point x="262.0" y="761.0" type="line"/>
    </contour>
    <contour>
      <point x="242.0" y="66.25" type="curve" smooth="yes"/>
      <point x="223.0" y="66.25"/>
      <point x="204.0" y="68.5"/>
      <point x="184.5" y="73.75" type="curve"/>
      <point x="272.5" y="445.25" type="line"/>
      <point x="302.0" y="453.0"/>
      <point x="330.75" y="458.0"/>
      <point x="358.5" y="458.0" type="curve" smooth="yes"/>
      <point x="440.25" y="458.0"/>
      <point x="478.75" y="412.75"/>
      <point x="478.75" y="324.25" type="curve" smooth="yes"/>
      <point x="478.75" y="187.75"/>
      <point x="393.75" y="66.25"/>
    </contour>
  </outline>
</glyph>
<glyph name="Aogonek" format="2">
  <advance width="645.0"/>
  <unicode hex="0104"/>
  <outline>
    <contour>
      <point x="541.5" y="-194.75" type="curve" smooth="yes"/>
      <point x="563.75" y="-194.75"/>
      <point x="584.75" y="-190.5"/>
      <point x="605.0" y="-184.5" type="curve"/>
      <point x="612.75" y="-123.0" type="line"/>
      <point x="603.75" y="-125.25"/>
      <point x="588.5" y="-128.75"/>
      <point x="574.75" y="-128.75" type="curve" smooth="yes"/>
      <point x="554.0" y="-128.75"/>
      <point x="535.5" y="-123.0"/>
      <point x="535.5" y="-104.5" type="curve" smooth="yes"/>
      <point x="535.5" y="-80.75"/>
      <point x="560.0" y="-49.0"/>
      <point x="634.25" y="0.0" type="curve"/>
      <point x="605.0" y="262.0"/>
      <point x="572.75" y="498.5"/>
      <point x="536.5" y="693.0" type="curve"/>
      <point x="447.0" y="693.0" type="line"/>
      <point x="308.0" y="491.25"/>
      <point x="164.75" y="259.75"/>
      <point x="18.75" y="0.0" type="curve"/>
      <point x="115.0" y="0.0" type="line"/>
      <point x="147.25" y="62.5"/>
      <point x="181.0" y="122.25"/>
      <point x="214.0" y="180.25" type="curve"/>
      <point x="523.5" y="180.25" type="line"/>
      <point x="530.5" y="120.0"/>
      <point x="536.5" y="60.25"/>
      <point x="542.5" y="0.0" type="curve"/>
      <point x="554.0" y="0.0" type="line"/>
      <point x="500.25" y="-34.5"/>
      <point x="454.75" y="-80.25"/>
      <point x="454.75" y="-125.5" type="curve" smooth="yes"/>
      <point x="454.75" y="-178.75"/>
      <point x="495.75" y="-194.75"/>
    </contour>
    <contour>
      <point x="255.25" y="254.25" type="line"/>
      <point x="323.5" y="370.75"/>
      <point x="395.5" y="482.0"/>
      <point x="470.25" y="596.5" type="curve"/>
      <point x="488.5" y="478.25"/>
      <point x="502.75" y="363.75"/>
      <point x="515.75" y="254.25" type="curve"/>
    </contour>
  </outline>
</glyph>
<glyph name="aogonek" format="2">
  <advance width="544.11"/>
  <unicode hex="0105"/>
  <outline>
    <contour>
      <point x="420.385" y="-197.725" type="curve" smooth="yes"/>
      <point x="444.08" y="-197.725"/>
      <point x="466.44" y="-193.05"/>
      <point x="487.455" y="-186.37" type="curve"/>
      <point x="495.46" y="-120.62" type="line"/>
      <point x="476.485" y="-125.615"/>
      <point x="432.865" y="-130.955"/>
      <point x="426.5" y="-109.01" type="curve" smooth="yes"/>
      <point x="420.805" y="-91.72"/>
      <point x="437.41" y="-65.44"/>
      <point x="486.62" y="-29.835" type="curve"/>
      <point x="475.315" y="1.1299999999999955"/>
      <point x="479.03" y="31.129999999999995"/>
      <point x="508.175" y="75.16999999999999" type="curve" smooth="yes"/>
      <point x="500.47" y="112.225"/>
      <point x="500.775" y="159.645"/>
      <point x="512.46" y="207.05" type="curve" smooth="yes"/>
      <point x="585.44" y="504.985" type="line"/>
      <point x="534.375" y="526.69"/>
      <point x="473.27" y="532.015"/>
      <point x="437.63" y="532.015" type="curve" smooth="yes"/>
      <point x="242.99" y="532.015"/>
      <point x="98.67" y="390.33"/>
      <point x="98.67" y="186.71" type="curve" smooth="yes"/>
      <point x="98.67" y="57.735"/>
      <point x="167.295" y="-13.335"/>
      <point x="268.045" y="-13.335" type="curve" smooth="yes"/>
      <point x="322.715" y="-13.335"/>
      <point x="373.035" y="8.0"/>
      <point x="416.02" y="48.31" type="curve"/>
      <point x="419.025" y="30.65"/>
      <point x="424.025" y="13.66"/>
      <point x="431.025" y="-0.335" type="curve"/>
      <point x="374.29" y="-36.03"/>
      <point x="331.0" y="-82.035"/>
      <point x="331.0" y="-126.69" type="curve" smooth="yes"/>
      <point x="331.0" y="-181.045"/>
      <point x="373.36" y="-197.725"/>
    </contour>
    <contour>
      <point x="285.095" y="68.44" type="curve" smooth="yes"/>
      <point x="228.76" y="68.44"/>
      <point x="192.14" y="105.78"/>
      <point x="192.14" y="199.04" type="curve" smooth="yes"/>
      <point x="192.14" y="325.98"/>
      <point x="279.1" y="450.91"/>
      <point x="418.645" y="450.91" type="curve" smooth="yes"/>
      <point x="439.31" y="450.91"/>
      <point x="455.965" y="448.58"/>
      <point x="477.62" y="444.25" type="curve"/>
      <point x="429.31" y="249.01" type="line" smooth="yes"/>
      <point x="420.98" y="214.02"/>
      <point x="409.66" y="166.375"/>
      <point x="408.655" y="131.38" type="curve"/>
      <point x="370.68" y="90.08"/>
      <point x="331.39" y="68.44"/>
    </contour>
  </outline>
</glyph>
<glyph name="Eogonek" format="2">
  <advance width="541.5"/>
  <unicode hex="0118"/>
  <outline>
    <contour>
      <point x="416.0" y="-194.75" type="curve" smooth="yes"/>
      <point x="438.25" y="-194.75"/>
      <point x="459.25" y="-190.5"/>
      <point x="479.5" y="-184.5" type="curve"/>
      <point x="487.25" y="-123.0" type="line"/>
      <point x="478.25" y="-125.25"/>
      <point x="463.0" y="-128.75"/>
      <point x="449.25" y="-128.75" type="curve" smooth="yes"/>
      <point x="428.5" y="-128.75"/>
      <point x="410.0" y="-123.0"/>
      <point x="410.0" y="-104.5" type="curve" smooth="yes"/>
      <point x="410.0" y="-80.75"/>
      <point x="435.75" y="-47.75"/>
      <point x="508.75" y="0.0" type="curve"/>
      <point x="525.75" y="76.5" type="line"/>
      <point x="187.75" y="76.5" type="line"/>
      <point x="249.5" y="326.0" type="line"/>
      <point x="528.0" y="326.0" type="line"/>
      <point x="545.5" y="401.0" type="line"/>
      <point x="265.5" y="401.0" type="line"/>
      <point x="317.75" y="616.75" type="line"/>
      <point x="632.75" y="616.75" type="line"/>
      <point x="650.5" y="693.0" type="line"/>
      <point x="247.0" y="693.0" type="line"/>
      <point x="81.0" y="0.0" type="line"/>
      <point x="428.5" y="0.0" type="line"/>
      <point x="374.75" y="-34.0"/>
      <point x="329.25" y="-80.25"/>
      <point x="329.25" y="-125.5" type="curve" smooth="yes"/>
      <point x="329.25" y="-178.75"/>
      <point x="370.25" y="-194.75"/>
    </contour>
  </outline>
</glyph>
<glyph name="eogonek" format="2">
  <advance width="502.07"/>
  <unicode hex="0119"/>
  <outline>
    <contour>
      <point x="342.01" y="-197.725" type="curve" smooth="yes"/>
      <point x="365.705" y="-197.725"/>
      <point x="388.065" y="-193.05"/>
      <point x="409.08" y="-186.37" type="curve"/>
      <point x="417.085" y="-120.62" type="line"/>
      <point x="408.085" y="-122.955"/>
      <point x="391.73" y="-126.965"/>
      <point x="377.385" y="-126.965" type="curve" smooth="yes"/>
      <point x="357.06" y="-126.965"/>
      <point x="339.75" y="-121.3"/>
      <point x="339.75" y="-103.65" type="curve" smooth="yes"/>
      <point x="339.75" y="-74.68"/>
      <point x="374.055" y="-39.35"/>
      <point x="465.395" y="23.645" type="curve"/>
      <point x="457.055" y="102.74" type="line"/>
      <point x="416.06" y="79.76"/>
      <point x="367.735" y="68.77"/>
      <point x="322.74" y="68.77" type="curve" smooth="yes"/>
      <point x="219.83" y="68.77"/>
      <point x="191.495" y="116.705"/>
      <point x="190.475" y="195.645" type="curve"/>
      <point x="405.085" y="202.295"/>
      <point x="553.4" y="241.005"/>
      <point x="553.4" y="394.66" type="curve" smooth="yes"/>
      <point x="553.4" y="479.015"/>
      <point x="494.7" y="532.685"/>
      <point x="401.7" y="532.685" type="curve" smooth="yes"/>
      <point x="211.7" y="532.685"/>
      <point x="98.67" y="358.71"/>
      <point x="98.67" y="187.38" type="curve" smooth="yes"/>
      <point x="98.67" y="72.705"/>
      <point x="151.35" y="-11.665"/>
      <point x="302.035" y="-12.67" type="curve" smooth="yes"/>
      <point x="313.68" y="-12.67"/>
      <point x="325.655" y="-11.34"/>
      <point x="337.3" y="-10.01" type="curve"/>
      <point x="289.595" y="-42.36"/>
      <point x="252.625" y="-84.695"/>
      <point x="252.625" y="-126.69" type="curve" smooth="yes"/>
      <point x="252.625" y="-181.045"/>
      <point x="294.985" y="-197.725"/>
    </contour>
    <contour>
      <point x="197.8" y="271.71" type="curve"/>
      <point x="221.115" y="372.325"/>
      <point x="295.07" y="453.92"/>
      <point x="389.67" y="453.92" type="curve" smooth="yes"/>
      <point x="434.645" y="453.92"/>
      <point x="464.285" y="430.935"/>
      <point x="464.285" y="385.97" type="curve" smooth="yes"/>
      <point x="464.285" y="318.05"/>
      <point x="405.36" y="276.045"/>
    </contour>
  </outline>
</glyph>
<glyph name="Hbar" format="2">
  <advance width="684.75"/>
  <unicode hex="0126"/>
  <outline>
    <contour>
      <point x="88.5" y="0.0" type="line"/>
      <point x="178.25" y="0.0" type="line"/>
      <point x="256.0" y="323.5" type="line"/>
      <point x="586.0" y="323.5" type="line"/>
      <point x="508.25" y="0.0" type="line"/>
      <point x="598.25" y="0.0" type="line"/>
      <point x="723.0" y="524.5" type="line"/>
      <point x="801.0" y="524.5" type="line"/>
      <point x="817.25" y="592.5" type="line"/>
      <point x="739.25" y="592.5" type="line"/>
      <point x="763.75" y="693.0" type="line"/>
      <point x="673.75" y="693.0" type="line"/>
      <point x="649.25" y="592.5" type="line"/>
      <point x="319.25" y="592.5" type="line"/>
      <point x="344.5" y="693.0" type="line"/>
      <point x="254.5" y="693.0" type="line"/>
      <point x="230.0" y="592.5" type="line"/>
      <point x="149.25" y="592.5" type="line"/>
      <point x="133.0" y="524.5" type="line"/>
      <point x="213.75" y="524.5" type="line"/>
    </contour>
    <contour>
      <point x="273.0" y="400.75" type="line"/>
      <point x="303.0" y="524.5" type="line"/>
      <point x="633.0" y="524.5" type="line"/>
      <point x="603.75" y="400.75" type="line"/>
    </contour>
  </outline>
</glyph>
<glyph name="hbar" format="2">
  <advance width="550.0"/>
  <unicode hex="0127"/>
  <outline>
    <contour>
      <point x="79.75" y="0.0" type="line"/>
      <point x="165.75" y="0.0" type="line"/>
      <point x="268.25" y="434.5" type="line"/>
      <point x="299.25" y="444.5"/>
      <point x="334.75" y="452.0"/>
      <point x="368.5" y="452.0" type="curve" smooth="yes"/>
      <point x="427.75" y="452.0"/>
      <point x="470.75" y="424.5"/>
      <point x="470.75" y="354.5" type="curve" smooth="yes"/>
      <point x="470.75" y="318.0"/>
      <point x="460.25" y="276.75"/>
      <point x="451.75" y="239.0" type="curve" smooth="yes"/>
      <point x="394.5" y="0.0" type="line"/>
      <point x="480.5" y="0.0" type="line"/>
      <point x="543.5" y="260.75" type="line" smooth="yes"/>
      <point x="552.0" y="295.25"/>
      <point x="557.25" y="329.75"/>
      <point x="557.25" y="362.0" type="curve" smooth="yes"/>
      <point x="557.25" y="470.0"/>
      <point x="490.0" y="527.5"/>
      <point x="395.25" y="527.5" type="curve" smooth="yes"/>
      <point x="360.0" y="527.5"/>
      <point x="323.25" y="519.5"/>
      <point x="285.75" y="505.5" type="curve"/>
      <point x="312.5" y="616.25" type="line"/>
      <point x="474.75" y="616.25" type="line"/>
      <point x="489.5" y="678.5" type="line"/>
      <point x="327.0" y="678.5" type="line"/>
      <point x="351.0" y="776.0" type="line"/>
      <point x="261.25" y="761.0" type="line"/>
      <point x="241.75" y="678.5" type="line"/>
      <point x="176.75" y="678.5" type="line"/>
      <point x="162.0" y="616.25" type="line"/>
      <point x="226.25" y="616.25" type="line"/>
    </contour>
  </outline>
</glyph>
<glyph name="Iogonek" format="2">
  <advance width="250.5"/>
  <unicode hex="012E"/>
  <outline>
    <contour>
      <point x="76.0" y="-194.75" type="curve" smooth="yes"/>
      <point x="97.25" y="-194.75"/>
      <point x="121.0" y="-191.25"/>
      <point x="141.5" y="-185.5" type="curve"/>
      <point x="149.75" y="-123.75" type="line"/>
      <point x="137.0" y="-127.0"/>
      <point x="123.75" y="-128.75"/>
      <point x="111.75" y="-128.75" type="curve" smooth="yes"/>
      <point x="90.5" y="-128.75"/>
      <point x="72.5" y="-122.75"/>
      <point x="72.5" y="-104.25" type="curve" smooth="yes"/>
      <point x="72.5" y="-77.25"/>
      <point x="106.25" y="-42.75"/>
      <point x="171.5" y="0.0" type="curve"/>
      <point x="337.0" y="693.0" type="line"/>
      <point x="247.0" y="693.0" type="line"/>
      <point x="81.0" y="0.0" type="line"/>
      <point x="91.0" y="0.0" type="line"/>
      <point x="45.0" y="-31.75"/>
      <point x="-8.25" y="-78.25"/>
      <point x="-8.25" y="-127.5" type="curve" smooth="yes"/>
      <point x="-8.25" y="-176.25"/>
      <point x="28.75" y="-194.75"/>
    </contour>
  </outline>
</glyph>
<glyph name="iogonek" format="2">
  <advance width="251.08"/>
  <unicode hex="012F"/>
  <outline>
    <contour>
      <point x="72.035" y="-197.725" type="curve" smooth="yes"/>
      <point x="94.39" y="-197.725"/>
      <point x="120.435" y="-194.055"/>
      <point x="141.785" y="-187.71" type="curve"/>
      <point x="150.46" y="-121.625" type="line"/>
      <point x="136.435" y="-125.3"/>
      <point x="122.76" y="-126.965"/>
      <point x="110.76" y="-126.965" type="curve" smooth="yes"/>
      <point x="89.765" y="-126.965"/>
      <point x="73.125" y="-120.965"/>
      <point x="73.125" y="-103.315" type="curve" smooth="yes"/>
      <point x="73.125" y="-76.31"/>
      <point x="109.51" y="-40.965"/>
      <point x="171.45" y="0.0" type="curve"/>
      <point x="296.785" y="520.015" type="line"/>
      <point x="203.645" y="520.015" type="line"/>
      <point x="78.645" y="0.0" type="line"/>
      <point x="88.025" y="0.0" type="line"/>
      <point x="41.005" y="-32.345"/>
      <point x="-14.0" y="-79.355"/>
      <point x="-14.0" y="-129.37" type="curve" smooth="yes"/>
      <point x="-14.0" y="-177.695"/>
      <point x="23.0" y="-197.725"/>
    </contour>
    <contour>
      <point x="279.36" y="613.94" type="curve" smooth="yes"/>
      <point x="311.75" y="613.94"/>
      <point x="345.785" y="640.985"/>
      <point x="345.785" y="681.025" type="curve" smooth="yes"/>
      <point x="345.785" y="715.4"/>
      <point x="321.745" y="736.075"/>
      <point x="290.72" y="736.075" type="curve" smooth="yes"/>
      <point x="257.665" y="736.075"/>
      <point x="225.625" y="708.365"/>
      <point x="225.625" y="666.995" type="curve" smooth="yes"/>
      <point x="225.625" y="633.285"/>
      <point x="248.335" y="613.94"/>
    </contour>
  </outline>
</glyph>
<glyph name="dotlessi" format="2">
  <advance width="247.0"/>
  <unicode hex="0131"/>
  <outline>
    <contour>
      <point x="79.75" y="0.0" type="line"/>
      <point x="165.5" y="0.0" type="line"/>
      <point x="290.75" y="519.25" type="line"/>
      <point x="204.75" y="519.25" type="line"/>
    </contour>
  </outline>
</glyph>
<glyph name="kgreenlandic" format="2">
  <advance width="527.45"/>
  <unicode hex="0138"/>
  <outline>
    <contour>
      <point x="78.645" y="0.0" type="line"/>
      <point x="171.45" y="0.0" type="line"/>
      <point x="234.1" y="257.265" type="line"/>
      <point x="304.71" y="200.255"/>
      <point x="378.985" y="105.91"/>
      <point x="425.595" y="0.0" type="curve"/>
      <point x="527.755" y="0.0" type="line"/>
      <point x="496.095" y="90.0"/>
      <point x="412.15" y="214.32"/>
      <point x="332.21" y="282.655" type="curve"/>
      <point x="411.29" y="337.405"/>
      <point x="542.82" y="452.31"/>
      <point x="599.2" y="520.015" type="curve"/>
      <point x="486.365" y="520.015" type="line"/>
      <point x="442.355" y="472.015"/>
      <point x="333.76" y="374.73"/>
      <point x="246.465" y="310.73" type="curve"/>
      <point x="297.12" y="520.015" type="line"/>
      <point x="203.98" y="520.015" type="line"/>
    </contour>
  </outline>
</glyph>
<glyph name="Lslash" format="2">
  <advance width="526.095"/>
  <unicode hex="0141"/>
  <outline>
    <contour>
      <point x="102.265" y="0.0" type="line"/>
      <point x="506.41" y="0.0" type="line"/>
      <point x="525.775" y="82.79" type="line"/>
      <point x="218.775" y="82.79" type="line"/>
      <point x="278.415" y="333.005" type="line"/>
      <point x="446.13" y="408.36" type="line"/>
      <point x="428.445" y="479.435" type="line"/>
      <point x="299.77" y="421.43" type="line"/>
      <point x="365.08" y="693.0" type="line"/>
      <point x="267.6" y="693.0" type="line"/>
      <point x="190.605" y="372.69" type="line"/>
      <point x="69.92" y="318.015" type="line"/>
      <point x="87.27" y="246.94" type="line"/>
      <point x="169.915" y="283.93" type="line"/>
    </contour>
  </outline>
</glyph>
<glyph name="lslash" format="2">
  <advance width="295.715"/>
  <unicode hex="0142"/>
  <outline>
    <contour>
      <point x="255.365" y="-9.335" type="curve"/>
      <point x="276.055" y="70.44" type="line"/>
      <point x="175.8" y="87.41"/>
      <point x="193.745" y="150.67"/>
      <point x="214.72" y="236.575" type="curve" smooth="yes"/>
      <point x="250.415" y="386.025" type="line"/>
      <point x="374.485" y="442.055" type="line"/>
      <point x="359.8" y="504.13" type="line"/>
      <point x="269.105" y="462.785" type="line"/>
      <point x="343.745" y="776.0" type="line"/>
      <point x="247.265" y="759.98" type="line"/>
      <point x="164.615" y="416.715" type="line"/>
      <point x="67.285" y="373.05" type="line"/>
      <point x="82.635" y="310.975" type="line"/>
      <point x="146.26" y="339.29" type="line"/>
      <point x="119.6" y="227.65" type="line" smooth="yes"/>
      <point x="90.6" y="104.315"/>
      <point x="95.28999999999999" y="-3.35"/>
    </contour>
  </outline>
</glyph>
<glyph name="Eng" format="2">
  <advance width="693.455"/>
  <unicode hex="014A"/>
  <outline>
    <contour>
      <point x="426.4" y="-187.0" type="curve" smooth="yes"/>
      <point x="557.03" y="-187.0"/>
      <point x="584.79" y="-123.3"/>
      <point x="614.46" y="-0.28999999999999915" type="curve" smooth="yes"/>
      <point x="779.785" y="693.0" type="line"/>
      <point x="683.305" y="693.0" type="line"/>
      <point x="559.7" y="164.945" type="line"/>
      <point x="518.33" y="303.595"/>
      <point x="421.035" y="538.075"/>
      <point x="330.74" y="693.0" type="curve"/>
      <point x="246.32" y="693.0" type="line"/>
      <point x="80.32" y="0.0" type="line"/>
      <point x="176.13" y="0.0" type="line"/>
      <point x="308.74" y="553.43" type="line"/>
      <point x="385.055" y="417.135"/>
      <point x="474.655" y="174.055"/>
      <point x="523.995" y="19.095000000000002" type="curve"/>
      <point x="505.0" y="-61.22"/>
      <point x="494.98" y="-112.205"/>
      <point x="430.355" y="-112.205" type="curve" smooth="yes"/>
      <point x="411.04" y="-112.205"/>
      <point x="396.375" y="-107.875"/>
      <point x="388.355" y="-103.87" type="curve"/>
      <point x="363.965" y="-173.99" type="line"/>
      <point x="375.7" y="-180.005"/>
      <point x="406.705" y="-187.0"/>
    </contour>
  </outline>
</glyph>
<glyph name="eng" format="2">
  <advance width="551.25"/>
  <unicode hex="014B"/>
  <outline>
    <contour>
      <point x="291.75" y="-187.75" type="curve" smooth="yes"/>
      <point x="396.25" y="-187.75"/>
      <point x="451.25" y="-125.5"/>
      <point x="484.75" y="13.5" type="curve" smooth="yes"/>
      <point x="544.75" y="263.75" type="line" smooth="yes"/>
      <point x="582.25" y="417.0"/>
      <point x="547.0" y="529.75"/>
      <point x="379.75" y="529.75" type="curve" smooth="yes"/>
      <point x="310.5" y="529.75"/>
      <point x="249.75" y="514.5"/>
      <point x="199.25" y="499.75" type="curve"/>
      <point x="79.75" y="0.0" type="line"/>
      <point x="165.75" y="0.0" type="line"/>
      <point x="271.75" y="441.5" type="line"/>
      <point x="302.25" y="448.5"/>
      <point x="335.0" y="453.5"/>
      <point x="366.0" y="453.5" type="curve" smooth="yes"/>
      <point x="495.5" y="453.5"/>
      <point x="481.0" y="361.25"/>
      <point x="453.0" y="242.0" type="curve" smooth="yes"/>
      <point x="398.0" y="11.0" type="line" smooth="yes"/>
      <point x="379.0" y="-68.0"/>
      <point x="351.5" y="-116.75"/>
      <point x="288.25" y="-116.75" type="curve" smooth="yes"/>
      <point x="269.0" y="-116.75"/>
      <point x="250.75" y="-112.0"/>
      <point x="230.5" y="-102.0" type="curve"/>
      <point x="209.75" y="-170.0" type="line"/>
      <point x="228.0" y="-179.0"/>
      <point x="252.75" y="-187.75"/>
    </contour>
  </outline>
</glyph>
<glyph name="OE" format="2">
  <advance width="960.395"/>
  <unicode hex="0152"/>
  <outline>
    <contour>
      <point x="437.0" y="-8.0" type="curve" smooth="yes"/>
      <point x="472.005" y="-8.0"/>
      <point x="508.34" y="-5.0"/>
      <point x="544.67" y="0.0" type="curve"/>
      <point x="926.37" y="0.0" type="line"/>
      <point x="945.07" y="83.12" type="line"/>
      <point x="623.105" y="83.12" type="line"/>
      <point x="682.39" y="322.605" type="line"/>
      <point x="945.025" y="322.605" type="line"/>
      <point x="964.055" y="404.055" type="line"/>
      <point x="700.09" y="404.055" type="line"/>
      <point x="750.045" y="609.88" type="line"/>
      <point x="1049.01" y="609.88" type="line"/>
      <point x="1068.375" y="693.0" type="line"/>
      <point x="699.34" y="693.0" type="line"/>
      <point x="666.0" y="697.335"/>
      <point x="630.31" y="700.0"/>
      <point x="598.635" y="700.0" type="curve" smooth="yes"/>
      <point x="306.695" y="700.0"/>
      <point x="132.975" y="525.055"/>
      <point x="132.975" y="275.995" type="curve" smooth="yes"/>
      <point x="132.975" y="73.27"/>
      <point x="249.745" y="-8.0"/>
    </contour>
    <contour>
      <point x="437.685" y="75.78" type="curve" smooth="yes"/>
      <point x="298.08" y="75.78"/>
      <point x="233.785" y="143.465"/>
      <point x="233.785" y="280.345" type="curve" smooth="yes"/>
      <point x="233.785" y="467.2"/>
      <point x="353.705" y="616.55"/>
      <point x="587.925" y="616.55" type="curve" smooth="yes"/>
      <point x="609.585" y="616.55"/>
      <point x="632.245" y="615.55"/>
      <point x="655.24" y="612.55" type="curve"/>
      <point x="528.295" y="82.445" type="line"/>
      <point x="496.98" y="78.445"/>
      <point x="466.665" y="75.78"/>
    </contour>
  </outline>
</glyph>
<glyph name="oe" format="2">
  <advance width="853.705"/>
  <unicode hex="0153"/>
  <outline>
    <contour>
      <point x="284.06" y="-12.67" type="curve" smooth="yes"/>
      <point x="357.73" y="-12.67"/>
      <point x="428.715" y="21.0"/>
      <point x="479.355" y="91.275" type="curve"/>
      <point x="506.375" y="17.675"/>
      <point x="575.01" y="-12.67"/>
      <point x="654.355" y="-12.67" type="curve" smooth="yes"/>
      <point x="717.035" y="-12.67"/>
      <point x="778.035" y="2.66"/>
      <point x="817.03" y="20.32" type="curve"/>
      <point x="808.69" y="99.415" type="line"/>
      <point x="763.705" y="79.095"/>
      <point x="717.375" y="68.77"/>
      <point x="676.37" y="68.77" type="curve" smooth="yes"/>
      <point x="576.785" y="68.77"/>
      <point x="551.775" y="105.4"/>
      <point x="548.76" y="195.645" type="curve"/>
      <point x="772.68" y="202.96"/>
      <point x="905.035" y="241.005"/>
      <point x="905.035" y="394.66" type="curve" smooth="yes"/>
      <point x="905.035" y="485.0"/>
      <point x="838.355" y="532.685"/>
      <point x="755.33" y="532.685" type="curve" smooth="yes"/>
      <point x="677.0" y="532.685"/>
      <point x="601.695" y="496.365"/>
      <point x="546.7" y="426.735" type="curve"/>
      <point x="521.68" y="498.365"/>
      <point x="469.325" y="532.685"/>
      <point x="388.69" y="532.685" type="curve" smooth="yes"/>
      <point x="209.99" y="532.685"/>
      <point x="98.67" y="356.675"/>
      <point x="98.67" y="187.365" type="curve" smooth="yes"/>
      <point x="98.67" y="72.01"/>
      <point x="156.365" y="-12.67"/>
    </contour>
    <contour>
      <point x="291.41" y="68.11" type="curve" smooth="yes"/>
      <point x="220.78" y="68.11"/>
      <point x="192.805" y="117.08500000000001"/>
      <point x="192.805" y="194.725" type="curve" smooth="yes"/>
      <point x="192.805" y="315.63"/>
      <point x="267.4" y="450.575"/>
      <point x="380.67" y="450.575" type="curve" smooth="yes"/>
      <point x="439.995" y="450.575"/>
      <point x="473.29" y="410.245"/>
      <point x="473.29" y="335.93" type="curve" smooth="yes"/>
      <point x="473.29" y="171.8"/>
      <point x="384.065" y="68.11"/>
    </contour>
    <contour>
      <point x="556.75" y="271.71" type="curve"/>
      <point x="583.39" y="394.27"/>
      <point x="665.325" y="453.92"/>
      <point x="740.64" y="453.92" type="curve" smooth="yes"/>
      <point x="786.945" y="453.92"/>
      <point x="815.92" y="430.27"/>
      <point x="815.92" y="385.97" type="curve" smooth="yes"/>
      <point x="815.92" y="318.715"/>
      <point x="763.645" y="276.045"/>
    </contour>
  </outline>
</glyph>
<glyph name="Scedilla" format="2">
  <advance width="505.0"/>
  <unicode hex="015E"/>
  <outline>
    <contour>
      <point x="175.5" y="-195.5" type="curve" smooth="yes"/>
      <point x="240.25" y="-195.5"/>
      <point x="293.25" y="-164.25"/>
      <point x="293.25" y="-104.25" type="curve" smooth="yes"/>
      <point x="293.25" y="-73.5"/>
      <point x="279.75" y="-56.0"/>
      <point x="249.25" y="-39.5" type="curve"/>
      <point x="254.0" y="-31.75"/>
      <point x="259.25" y="-22.25"/>
      <point x="266.25" y="-13.0" type="curve"/>
      <point x="432.25" y="-3.5"/>
      <point x="513.5" y="90.25"/>
      <point x="513.5" y="201.0" type="curve" smooth="yes"/>
      <point x="513.5" y="319.0"/>
      <point x="430.25" y="356.5"/>
      <point x="355.25" y="395.75" type="curve" smooth="yes"/>
      <point x="303.0" y="422.0"/>
      <point x="258.0" y="448.25"/>
      <point x="258.0" y="513.25" type="curve" smooth="yes"/>
      <point x="258.0" y="600.0"/>
      <point x="334.75" y="632.75"/>
      <point x="415.25" y="632.75" type="curve" smooth="yes"/>
      <point x="467.25" y="632.75"/>
      <point x="513.75" y="620.25"/>
      <point x="556.5" y="593.0" type="curve"/>
      <point x="599.0" y="664.5" type="line"/>
      <point x="544.75" y="693.0"/>
      <point x="489.0" y="708.25"/>
      <point x="424.75" y="708.25" type="curve" smooth="yes"/>
      <point x="248.5" y="708.25"/>
      <point x="165.5" y="609.25"/>
      <point x="165.5" y="505.75" type="curve" smooth="yes"/>
      <point x="165.5" y="401.0"/>
      <point x="235.0" y="360.75"/>
      <point x="305.0" y="323.0" type="curve" smooth="yes"/>
      <point x="363.0" y="292.75"/>
      <point x="420.25" y="265.25"/>
      <point x="420.25" y="196.25" type="curve" smooth="yes"/>
      <point x="420.25" y="98.75"/>
      <point x="333.75" y="62.0"/>
      <point x="247.25" y="62.0" type="curve" smooth="yes"/>
      <point x="186.0" y="62.0"/>
      <point x="125.75" y="85.0"/>
      <point x="88.75" y="112.0" type="curve"/>
      <point x="46.0" y="38.0" type="line"/>
      <point x="88.0" y="11.5"/>
      <point x="145.0" y="-7.5"/>
      <point x="207.0" y="-12.75" type="curve"/>
      <point x="194.75" y="-31.0"/>
      <point x="180.25" y="-50.75"/>
      <point x="172.75" y="-65.75" type="curve"/>
      <point x="210.75" y="-81.0"/>
      <point x="220.5" y="-90.25"/>
      <point x="220.5" y="-109.0" type="curve" smooth="yes"/>
      <point x="220.5" y="-129.5"/>
      <point x="202.25" y="-138.25"/>
      <point x="172.25" y="-138.25" type="curve" smooth="yes"/>
      <point x="154.5" y="-138.25"/>
      <point x="135.75" y="-134.5"/>
      <point x="120.25" y="-128.0" type="curve"/>
      <point x="97.75" y="-180.75" type="line"/>
      <point x="124.25" y="-192.0"/>
      <point x="149.25" y="-195.5"/>
    </contour>
  </outline>
</glyph>
<glyph name="scedilla" format="2">
  <advance width="427.805"/>
  <unicode hex="015F"/>
  <outline>
    <contour>
      <point x="154.74" y="-198.39" type="curve" smooth="yes"/>
      <point x="220.085" y="-198.39"/>
      <point x="274.785" y="-167.055"/>
      <point x="274.785" y="-105.015" type="curve" smooth="yes"/>
      <point x="274.785" y="-74.69"/>
      <point x="261.115" y="-56.34"/>
      <point x="230.785" y="-40.01" type="curve"/>
      <point x="235.12" y="-31.675"/>
      <point x="242.79" y="-20.67"/>
      <point x="250.46" y="-10.0" type="curve"/>
      <point x="351.52" y="1.685"/>
      <point x="420.815" y="59.725"/>
      <point x="420.815" y="156.005" type="curve" smooth="yes"/>
      <point x="420.815" y="238.01"/>
      <point x="367.865" y="266.015"/>
      <point x="297.45" y="300.72" type="curve" smooth="yes"/>
      <point x="257.79" y="321.05"/>
      <point x="226.48" y="337.03"/>
      <point x="226.48" y="376.0" type="curve" smooth="yes"/>
      <point x="226.48" y="435.285"/>
      <point x="281.115" y="453.255"/>
      <point x="335.735" y="453.255" type="curve" smooth="yes"/>
      <point x="375.41" y="453.255"/>
      <point x="416.76" y="442.575"/>
      <point x="444.76" y="429.57" type="curve"/>
      <point x="479.135" y="505.325" type="line"/>
      <point x="442.14" y="521.665"/>
      <point x="394.115" y="532.685"/>
      <point x="341.735" y="532.685" type="curve" smooth="yes"/>
      <point x="225.315" y="532.685"/>
      <point x="135.335" y="479.65"/>
      <point x="135.335" y="366.995" type="curve" smooth="yes"/>
      <point x="135.335" y="284.33"/>
      <point x="191.33" y="253.65"/>
      <point x="248.355" y="226.645" type="curve" smooth="yes"/>
      <point x="297.045" y="203.305"/>
      <point x="329.335" y="186.985"/>
      <point x="329.335" y="144.685" type="curve" smooth="yes"/>
      <point x="329.335" y="93.755"/>
      <point x="284.395" y="67.43"/>
      <point x="216.395" y="67.43" type="curve" smooth="yes"/>
      <point x="163.025" y="67.43"/>
      <point x="124.665" y="81.795"/>
      <point x="84.375" y="103.44" type="curve"/>
      <point x="48.67" y="26.015" type="line"/>
      <point x="80.98" y="7.695"/>
      <point x="127.985" y="-7.66"/>
      <point x="185.715" y="-11.335" type="curve"/>
      <point x="173.05" y="-29.67"/>
      <point x="159.05" y="-50.665"/>
      <point x="150.715" y="-65.665" type="curve"/>
      <point x="189.055" y="-80.665"/>
      <point x="198.72" y="-90.335"/>
      <point x="198.72" y="-108.66" type="curve" smooth="yes"/>
      <point x="198.72" y="-128.65"/>
      <point x="181.065" y="-137.315"/>
      <point x="151.405" y="-137.315" type="curve" smooth="yes"/>
      <point x="133.4" y="-137.315"/>
      <point x="114.055" y="-133.31"/>
      <point x="98.385" y="-126.64" type="curve"/>
      <point x="74.355" y="-182.705" type="line"/>
      <point x="101.025" y="-194.38"/>
      <point x="127.385" y="-198.39"/>
    </contour>
  </outline>
</glyph>
<glyph name="uni0162" format="2">
  <advance width="540.0"/>
  <unicode hex="0162"/>
  <outline>
    <contour>
      <point x="202.0" y="-195.5" type="curve" smooth="yes"/>
      <point x="266.75" y="-195.5"/>
      <point x="319.75" y="-164.25"/>
      <point x="319.75" y="-104.25" type="curve" smooth="yes"/>
      <point x="319.75" y="-73.5"/>
      <point x="306.25" y="-56.0"/>
      <point x="275.75" y="-39.5" type="curve"/>
      <point x="282.0" y="-29.25"/>
      <point x="292.5" y="-13.5"/>
      <point x="302.75" y="0.0" type="curve"/>
      <point x="314.25" y="0.0" type="line"/>
      <point x="462.0" y="616.0" type="line"/>
      <point x="671.0" y="616.0" type="line"/>
      <point x="689.5" y="693.0" type="line"/>
      <point x="180.0" y="693.0" type="line"/>
      <point x="162.25" y="616.0" type="line"/>
      <point x="372.0" y="616.0" type="line"/>
      <point x="224.25" y="0.0" type="line"/>
      <point x="243.25" y="0.0" type="line"/>
      <point x="228.25" y="-19.0"/>
      <point x="208.75" y="-46.75"/>
      <point x="199.25" y="-65.75" type="curve"/>
      <point x="237.25" y="-81.0"/>
      <point x="247.0" y="-90.25"/>
      <point x="247.0" y="-109.0" type="curve" smooth="yes"/>
      <point x="247.0" y="-129.5"/>
      <point x="228.75" y="-138.25"/>
      <point x="198.75" y="-138.25" type="curve" smooth="yes"/>
      <point x="181.0" y="-138.25"/>
      <point x="162.25" y="-134.5"/>
      <point x="146.75" y="-128.0" type="curve"/>
      <point x="124.25" y="-180.75" type="line"/>
      <point x="150.75" y="-192.0"/>
      <point x="175.75" y="-195.5"/>
    </contour>
  </outline>
</glyph>
